<svg width="19" height="25" viewBox="0 0 19 25" fill="none" xmlns="http://www.w3.org/2000/svg">
<path d="M9.96405 0.0909234C10.4631 0.216894 10.9857 0.284314 11.4565 0.478296C13.3326 1.25186 14.4957 2.65291 14.7997 4.6702C15.1733 7.15412 13.9748 9.32696 11.7358 10.4122C9.55572 11.4673 6.71983 10.7771 5.25917 8.83609C3.60937 6.64787 3.73075 3.81443 5.58088 1.79477C6.44408 0.852067 7.53177 0.31625 8.79564 0.138828C8.87223 0.128182 8.94765 0.106891 9.02307 0.090332L9.96405 0.0909234Z" fill="#333333" fill-opacity="0.3"/>
<path d="M9.49644 24.268C7.19222 24.268 4.88761 24.268 2.5826 24.268C1.23271 24.268 0.14679 23.3673 0.0230552 22.0295C-0.04058 21.3364 0.0336611 20.6101 0.170359 19.9229C0.751913 17.0002 2.35752 14.7776 4.95655 13.3523C7.41004 12.0045 10.0032 11.7946 12.6523 12.7385C15.2637 13.6693 17.1126 15.4477 18.2339 17.9801C18.7454 19.1424 19.0064 20.4 18.9999 21.6705C18.9999 23.139 17.901 24.2633 16.4362 24.2674C14.1212 24.2727 11.8085 24.268 9.49644 24.268Z" fill="#333333" fill-opacity="0.3"/>
</svg>
