<svg width="21" height="20" viewBox="0 0 21 20" fill="none" xmlns="http://www.w3.org/2000/svg">
<g clip-path="url(#clip0_1120_9621)">
<path d="M15.625 5.625C15.625 8.45433 13.3293 10.75 10.5 10.75C7.67067 10.75 5.375 8.45433 5.375 5.625C5.375 2.79567 7.67067 0.5 10.5 0.5C13.3293 0.5 15.625 2.79567 15.625 5.625ZM10.5 13.625C11.5512 13.625 12.5515 13.3989 13.455 13H15.5C17.9856 13 20 15.0144 20 17.5V18.125C20 18.884 19.384 19.5 18.625 19.5H2.375C1.61599 19.5 1 18.884 1 18.125V17.5C1 15.0144 3.01442 13 5.5 13H7.54536C8.45154 13.3986 9.44814 13.625 10.5 13.625Z" fill="#333333" stroke="#333333"/>
</g>
<defs>
<clipPath id="clip0_1120_9621">
<rect width="20" height="20" fill="white" transform="translate(0.5)"/>
</clipPath>
</defs>
</svg>
