<svg width="18" height="18" viewBox="0 0 18 18" fill="none" xmlns="http://www.w3.org/2000/svg">
<path d="M9.00016 17.14C9.31512 17.1327 9.61738 17.0143 9.85346 16.8057C10.0895 16.5971 10.2442 16.3117 10.2902 16H7.66016C7.70739 16.3202 7.86932 16.6123 8.11581 16.822C8.3623 17.0317 8.67657 17.1447 9.00016 17.14Z" fill="#333333"/>
<path d="M16.4249 14.065L16.2549 13.915C15.7726 13.4853 15.3505 12.9925 14.9999 12.45C14.617 11.7013 14.3875 10.8836 14.3249 10.045V7.575C14.3229 7.27497 14.2961 6.97563 14.2449 6.68C13.398 6.50592 12.6372 6.04451 12.0914 5.37389C11.5456 4.70327 11.2483 3.86464 11.2499 3V2.685C10.7279 2.42809 10.167 2.25915 9.5899 2.185V1.555C9.5899 1.37796 9.51958 1.20818 9.3944 1.083C9.26922 0.957823 9.09943 0.887497 8.9224 0.887497C8.74537 0.887497 8.57559 0.957823 8.45041 1.083C8.32523 1.20818 8.2549 1.37796 8.2549 1.555V2.21C6.96276 2.39227 5.78019 3.03587 4.92551 4.02196C4.07084 5.00806 3.60177 6.27007 3.6049 7.575V10.045C3.54228 10.8836 3.31279 11.7013 2.9299 12.45C2.58534 12.9912 2.17 13.4839 1.6949 13.915L1.5249 14.065V15.475H16.4249V14.065Z" fill="#333333"/>
<path d="M15 5.5C16.3807 5.5 17.5 4.38071 17.5 3C17.5 1.61929 16.3807 0.5 15 0.5C13.6193 0.5 12.5 1.61929 12.5 3C12.5 4.38071 13.6193 5.5 15 5.5Z" fill="#333333"/>
</svg>
