<svg width="17" height="17" viewBox="0 0 17 17" fill="none" xmlns="http://www.w3.org/2000/svg">
<path d="M3.97272 3.44702L10.7498 1.59716L10.3909 0.871724C10.1561 0.400191 9.58338 0.205469 9.11185 0.440281L3.04492 3.44702H3.97272Z" fill="#187226"/>
<path d="M12.8536 1.65057C12.7696 1.65057 12.6856 1.66203 12.6016 1.68494L11.0094 2.1202L6.14709 3.44697H11.6661H14.0715L13.7737 2.35501C13.6592 1.92929 13.2735 1.65057 12.8536 1.65057Z" fill="#187226"/>
<path d="M15.0661 4.11523H14.8485H14.5526H14.2567H11.9983H3.69972H2.61157H1.69523H1.52532H0.956429C0.654801 4.11523 0.385626 4.25459 0.209994 4.47413C0.129815 4.57531 0.0687254 4.69176 0.0343627 4.81967C0.0133633 4.89985 0 4.98385 0 5.06975V5.1843V6.27245V15.705C0 16.2319 0.427625 16.6595 0.95452 16.6595H15.0642C15.5911 16.6595 16.0188 16.2319 16.0188 15.705V13.0419H10.3546C9.45929 13.0419 8.73195 12.3146 8.73195 11.4192V10.5449V10.249V9.95308V9.29637C8.73195 8.85729 8.90756 8.45832 9.19203 8.16624C9.44402 7.90659 9.78192 7.73096 10.1599 7.68705C10.2229 7.67943 10.2878 7.67559 10.3527 7.67559H15.2246H15.5205H15.8164H16.0188V5.06975C16.0207 4.54286 15.593 4.11523 15.0661 4.11523Z" fill="#187226"/>
<path d="M16.6889 8.58799C16.5934 8.50017 16.4808 8.43335 16.3548 8.38945C16.2574 8.35701 16.1544 8.33792 16.0456 8.33792H16.0207H16.0016H15.7057H14.6386H10.3547C9.82776 8.33792 9.40015 8.76553 9.40015 9.29244V9.76777V10.0637V10.3596V11.4172C9.40015 11.9441 9.82776 12.3717 10.3547 12.3717H16.0207H16.0456C16.1544 12.3717 16.2575 12.3526 16.3548 12.3202C16.4808 12.2782 16.5934 12.2094 16.6889 12.1216C16.8798 11.9479 17.0001 11.6959 17.0001 11.4172V9.29244C17.0001 9.0137 16.8798 8.76169 16.6889 8.58799ZM12.3477 10.5448C12.3477 10.8082 12.1339 11.022 11.8705 11.022H11.5536C11.2901 11.022 11.0763 10.8082 11.0763 10.5448V10.2279C11.0763 10.0751 11.1469 9.93957 11.2596 9.85366C11.3417 9.79066 11.4429 9.75059 11.5536 9.75059H11.6337H11.8705C12.1339 9.75059 12.3477 9.96438 12.3477 10.2279V10.5448Z" fill="#187226"/>
</svg>
