<svg width="20" height="20" viewBox="0 0 20 20" fill="none" xmlns="http://www.w3.org/2000/svg">
<g clip-path="url(#clip0_1120_9637)">
<path d="M14.4444 7.77778C14.4444 4.70834 11.2118 2.22223 7.22222 2.22223C3.23264 2.22223 0 4.70834 0 7.77778C0 8.96876 0.489583 10.066 1.31944 10.9722C0.854167 12.0208 0.0868056 12.8542 0.0763889 12.8646C0 12.9445 -0.0208333 13.0625 0.0243056 13.1667C0.0694444 13.2708 0.166667 13.3333 0.277778 13.3333C1.54861 13.3333 2.60069 12.9063 3.35764 12.4653C4.47569 13.0104 5.79861 13.3333 7.22222 13.3333C11.2118 13.3333 14.4444 10.8472 14.4444 7.77778ZM18.6806 15.4167C19.5104 14.5139 20 13.4132 20 12.2222C20 9.89931 18.1424 7.90973 15.5104 7.07987C15.5417 7.30903 15.5556 7.54167 15.5556 7.77778C15.5556 11.4549 11.816 14.4445 7.22222 14.4445C6.84722 14.4445 6.48264 14.4167 6.12153 14.3785C7.21528 16.375 9.78472 17.7778 12.7778 17.7778C14.2014 17.7778 15.5243 17.4583 16.6424 16.9097C17.3993 17.3507 18.4514 17.7778 19.7222 17.7778C19.8333 17.7778 19.934 17.7118 19.9757 17.6111C20.0208 17.5104 20 17.3924 19.9236 17.309C19.9132 17.2986 19.1458 16.4688 18.6806 15.4167Z" fill="#333333"/>
</g>
<defs>
<clipPath id="clip0_1120_9637">
<rect width="20" height="20" fill="white"/>
</clipPath>
</defs>
</svg>
