<svg width="30" height="25" viewBox="0 0 30 25" fill="none" xmlns="http://www.w3.org/2000/svg">
<path d="M0 8.24289C0.246505 7.56901 0.730989 7.34229 1.42399 7.34937C3.80223 7.37378 6.18124 7.35646 8.55947 7.36433C8.73022 7.36607 8.89792 7.41041 9.04783 7.49344C12.0292 9.23323 15.0084 10.9762 17.9856 12.7223C18.0667 12.7593 18.1344 12.8212 18.1792 12.8993C18.2239 12.9774 18.2435 13.0677 18.2352 13.1576C18.2274 16.6624 18.2256 20.1677 18.2298 23.6735V24.0018C18.0964 23.9302 18.0042 23.8837 17.9197 23.8318C14.9585 22.0967 11.9966 20.3627 9.03388 18.6297C8.87607 18.5407 8.69889 18.4931 8.51839 18.4912C6.16884 18.4825 3.81928 18.4707 1.47051 18.4912C0.775174 18.5022 0.26511 18.2896 0 17.6118V17.0851C0.248056 16.4121 0.73409 16.1491 1.42632 16.1964C1.82088 16.2231 2.21855 16.2011 2.61466 16.2011C4.6358 16.2011 6.65642 16.2011 8.67652 16.2011C9.21449 16.2011 9.56952 15.9358 9.6889 15.4579C9.88967 14.6581 9.44317 14.0716 8.62846 14.07C7.18741 14.07 5.74714 14.0795 4.30687 14.0606C4.03892 14.0557 3.77612 13.9849 3.541 13.8543C3.11542 13.6087 2.95109 13.0718 3.08907 12.5947C3.15693 12.3619 3.2969 12.1575 3.48821 12.0119C3.67951 11.8662 3.91196 11.7871 4.15106 11.7862C5.34017 11.7792 6.52929 11.7862 7.71686 11.7823C8.21452 11.7823 8.56955 11.5123 8.68583 11.0565C8.87187 10.3133 8.4587 9.63079 7.64399 9.63945C5.58513 9.66779 3.52549 9.63315 1.46663 9.65677C0.775174 9.66307 0.267435 9.44894 0 8.7727V8.24289Z" fill="#333333" fill-opacity="0.3"/>
<path d="M28.7101 5.57742L28.066 5.95766L19.4615 11.0054C19.329 11.0842 19.2212 11.1471 19.0453 11.0432C15.9968 9.24569 12.9451 7.45315 9.89045 5.66559C9.84936 5.64197 9.81293 5.61442 9.73541 5.56876C9.85634 5.49397 9.95556 5.42863 10.0579 5.36801L14.2531 2.91498C14.3113 2.88034 14.3896 2.85909 14.4237 2.80791C14.4872 2.71108 14.5787 2.58198 14.5585 2.49302C14.5384 2.40406 14.3857 2.30723 14.2865 2.30172C13.8524 2.28047 13.4167 2.30172 12.9818 2.28834C12.728 2.28157 12.4839 2.18721 12.2899 2.02079C12.0959 1.85438 11.9635 1.62583 11.9144 1.37278C11.864 1.13036 11.8946 0.877788 12.0012 0.654964C12.1079 0.43214 12.2847 0.251763 12.5036 0.142326C12.6873 0.0568074 12.8867 0.0114792 13.0888 0.00928241C15.0707 -0.00016445 17.0528 -0.00016445 19.0352 0.00928241C19.1587 0.00944758 19.2803 0.0411182 19.3887 0.101389C22.4614 1.89524 25.5332 3.69277 28.6039 5.49397C28.6249 5.51287 28.6466 5.52861 28.7101 5.57742Z" fill="#333333" fill-opacity="0.3"/>
<path d="M29.7081 7.31714V7.65565C29.7081 11.0518 29.7042 14.4472 29.7135 17.8433C29.7135 18.2629 29.5686 18.5408 29.2074 18.751C26.302 20.4451 23.4003 22.1466 20.5021 23.8554C20.4246 23.9027 20.337 23.9413 20.2215 24.0011C20.2153 23.861 20.2068 23.757 20.2068 23.6539C20.2068 20.1696 20.2047 16.6853 20.2006 13.201C20.1912 13.1016 20.2125 13.0018 20.2615 12.9153C20.3106 12.8288 20.3849 12.76 20.4742 12.7184C23.4545 10.9775 26.4317 9.2317 29.4058 7.48088C29.4887 7.43444 29.5732 7.39114 29.7081 7.31714Z" fill="#333333" fill-opacity="0.3"/>
<path d="M5.76239 2.29076C4.62211 2.29076 3.4826 2.29627 2.34232 2.29076C2.08309 2.29263 1.83143 2.20211 1.63115 2.03496C1.43087 1.86781 1.29465 1.63462 1.24622 1.37599C1.19406 1.13424 1.22313 0.881709 1.32879 0.658691C1.43444 0.435673 1.6106 0.255015 1.82915 0.145537C2.01197 0.0584922 2.21097 0.0120612 2.41286 0.00934462C4.64433 0.000422581 6.8758 -0.00193913 9.10726 0.00225947C9.79484 0.00225947 10.2948 0.488773 10.2995 1.13746C10.3049 1.79874 9.80027 2.28446 9.09564 2.28683C7.98481 2.29312 6.87321 2.29076 5.76239 2.29076Z" fill="#333333" fill-opacity="0.3"/>
</svg>
