<svg width="18" height="18" viewBox="0 0 18 18" fill="none" xmlns="http://www.w3.org/2000/svg">
<path d="M15.3004 0.900024H2.70039C1.71039 0.900024 0.900391 1.71002 0.900391 2.70002V15.3C0.900391 16.2909 1.71039 17.1 2.70039 17.1H9.00039V10.8H7.20039V8.57252H9.00039V6.72752C9.00039 4.77992 10.0912 3.41192 12.3898 3.41192L14.0125 3.41372V5.75822H12.9352C12.0406 5.75822 11.7004 6.42962 11.7004 7.05242V8.57342H14.0116L13.5004 10.8H11.7004V17.1H15.3004C16.2904 17.1 17.1004 16.2909 17.1004 15.3V2.70002C17.1004 1.71002 16.2904 0.900024 15.3004 0.900024Z" fill="#2F80ED"/>
</svg>
