<svg width="26" height="25" viewBox="0 0 26 25" fill="none" xmlns="http://www.w3.org/2000/svg">
<path d="M0 11.6848C0.117629 11.2157 0.429118 10.8811 0.762291 10.5505C3.9074 7.43112 7.04966 4.30891 10.1891 1.18387C11.508 -0.122955 13.4512 -0.377785 15.0323 0.569007C15.3187 0.748249 15.5833 0.959836 15.8208 1.19955C16.7408 2.09472 17.6438 3.00361 18.5539 3.90728C18.5749 3.9236 18.5968 3.93866 18.6196 3.95237C18.6302 3.88745 18.6372 3.82201 18.6407 3.75634C18.6407 3.31856 18.6315 2.88077 18.6459 2.44364C18.6696 1.71117 19.1513 1.12702 19.8242 0.988496C20.4971 0.849973 21.1838 1.17537 21.4605 1.80069C21.5663 2.05624 21.6205 2.32998 21.6202 2.60634C21.6353 3.98634 21.6202 5.36569 21.634 6.7457C21.6395 6.88206 21.6933 7.0121 21.7858 7.11291C23.0113 8.34525 24.2481 9.56712 25.4776 10.7955C26.1249 11.4424 26.1729 12.2899 25.6091 12.9204C25.3598 13.1944 25.0159 13.365 24.6458 13.3983C24.2758 13.4316 23.9067 13.3252 23.612 13.1001C23.5001 13.0104 23.3939 12.914 23.2939 12.8113C20.119 9.65926 16.9465 6.50633 13.7764 3.35254C13.2152 2.79452 12.7809 2.79648 12.2157 3.35842C9.0268 6.52964 5.83744 9.70064 2.64765 12.8714C2.05622 13.4595 1.35635 13.5725 0.715634 13.1916C0.328574 12.9616 0.137344 12.595 0 12.1899V11.6848Z" fill="#187226"/>
<path d="M15.4159 24.0546V17.4839H10.5754V24.0546C10.4808 24.0611 10.4157 24.0689 10.3507 24.0689C9.0219 24.0689 7.69381 24.0755 6.36571 24.0689C4.93181 24.0604 3.85672 23.1502 3.62935 21.7617C3.60817 21.6035 3.59982 21.4437 3.60438 21.2841C3.60438 19.2821 3.60438 17.28 3.59912 15.278C3.59461 15.1315 3.62159 14.9858 3.67825 14.8506C3.73491 14.7154 3.81996 14.5938 3.92769 14.4939C6.7416 11.7016 9.55397 8.90677 12.3648 6.1093C12.8117 5.66498 13.1843 5.66367 13.6285 6.10472C16.4407 8.90002 19.2533 11.6947 22.0663 14.4886C22.1741 14.5885 22.2592 14.7101 22.3158 14.8454C22.3725 14.9806 22.3995 15.1263 22.3949 15.2727C22.387 17.3166 22.3949 19.3605 22.3883 21.405C22.3885 22.0332 22.1655 22.6414 21.7588 23.1222C21.3521 23.603 20.7877 23.9255 20.1652 24.033C19.9981 24.0596 19.829 24.0718 19.6598 24.0696C18.3144 24.0722 16.9692 24.0722 15.6243 24.0696C15.5697 24.0689 15.5126 24.0618 15.4159 24.0546Z" fill="#187226"/>
</svg>
