<svg width="18" height="18" viewBox="0 0 18 18" fill="none" xmlns="http://www.w3.org/2000/svg">
<g clip-path="url(#clip0_1108_12710)">
<path d="M1.12478 1.22472C-0.289717 2.69397 -0.000216767 4.25472 -0.000216767 8.99622C-0.000216767 12.9337 -0.687217 16.881 2.90828 17.8102C4.03103 18.099 13.979 18.099 15.1003 17.8087C16.5973 17.4225 17.8153 16.2082 17.9818 14.091C18.005 13.7955 18.005 4.20222 17.981 3.90072C17.804 1.64547 16.4158 0.345724 14.5865 0.0824738C14.1673 0.0217238 14.0833 0.00372376 11.9323 -2.62409e-05C4.30253 0.00372376 2.63003 -0.336026 1.12478 1.22472Z" fill="url(#paint0_linear_1108_12710)"/>
<path d="M8.99836 2.35431C6.27511 2.35431 3.68911 2.11206 2.70136 4.64707C2.29336 5.69407 2.35261 7.05382 2.35261 9.00082C2.35261 10.7093 2.29786 12.3151 2.70136 13.3538C3.68686 15.8903 6.29386 15.6473 8.99686 15.6473C11.6046 15.6473 14.2934 15.9188 15.2931 13.3538C15.7019 12.2963 15.6419 10.9568 15.6419 9.00082C15.6419 6.40432 15.7851 4.72807 14.5259 3.46956C13.2509 2.19456 11.5266 2.35431 8.99536 2.35431H8.99836ZM8.40286 3.55207C14.0834 3.54307 14.8064 2.91157 14.4074 11.6843C14.2656 14.7871 11.9031 14.4466 8.99911 14.4466C3.70411 14.4466 3.55186 14.2951 3.55186 8.99782C3.55186 3.63907 3.97186 3.55507 8.40286 3.55057V3.55207ZM12.5459 4.65532C12.1056 4.65532 11.7486 5.01232 11.7486 5.45257C11.7486 5.89282 12.1056 6.24982 12.5459 6.24982C12.9861 6.24982 13.3431 5.89282 13.3431 5.45257C13.3431 5.01232 12.9861 4.65532 12.5459 4.65532ZM8.99836 5.58757C7.11361 5.58757 5.58586 7.11607 5.58586 9.00082C5.58586 10.8856 7.11361 12.4133 8.99836 12.4133C10.8831 12.4133 12.4101 10.8856 12.4101 9.00082C12.4101 7.11607 10.8831 5.58757 8.99836 5.58757ZM8.99836 6.78532C11.9271 6.78532 11.9309 11.2163 8.99836 11.2163C6.07036 11.2163 6.06586 6.78532 8.99836 6.78532Z" fill="white"/>
</g>
<defs>
<linearGradient id="paint0_linear_1108_12710" x1="1.1593" y1="16.8503" x2="17.8884" y2="2.37145" gradientUnits="userSpaceOnUse">
<stop stop-color="#FFDD55"/>
<stop offset="0.5" stop-color="#FF543E"/>
<stop offset="1" stop-color="#C837AB"/>
</linearGradient>
<clipPath id="clip0_1108_12710">
<rect width="18" height="18" fill="white"/>
</clipPath>
</defs>
</svg>
