<svg width="375" height="302" viewBox="0 0 375 302" fill="none" xmlns="http://www.w3.org/2000/svg">
<g clip-path="url(#clip0_1108_10750)">
<path d="M390 265.398H-15V265.601H390V265.398Z" fill="#EBEBEB"/>
<path d="M349.419 278.439H337.35V278.641H349.419V278.439Z" fill="#EBEBEB"/>
<path d="M253.288 280.643H246.249V280.846H253.288V280.643Z" fill="#EBEBEB"/>
<path d="M333.932 270.917H306.238V271.12H333.932V270.917Z" fill="#EBEBEB"/>
<path d="M73.8003 275.1H38.8164V275.302H73.8003V275.1Z" fill="#EBEBEB"/>
<path d="M93.6296 275.1H81.0098V275.302H93.6296V275.1Z" fill="#EBEBEB"/>
<path d="M191.355 272.376H115.475V272.579H191.355V272.376Z" fill="#EBEBEB"/>
<path d="M176.97 229.25H20.5672C19.3419 229.247 18.1676 228.759 17.302 227.891C16.4364 227.024 15.9502 225.848 15.9502 224.622V4.62795C15.9502 3.40194 16.4364 2.22603 17.302 1.35836C18.1676 0.490681 19.3419 0.00214712 20.5672 0L176.97 0C178.197 0 179.373 0.487586 180.241 1.35549C181.108 2.2234 181.595 3.40054 181.595 4.62795V224.622C181.595 225.229 181.476 225.831 181.243 226.393C181.011 226.954 180.67 227.464 180.241 227.894C179.811 228.324 179.301 228.665 178.74 228.897C178.179 229.13 177.577 229.25 176.97 229.25ZM20.5672 0.202625C19.3957 0.204772 18.2728 0.671958 17.4452 1.50163C16.6175 2.33131 16.1527 3.45568 16.1527 4.62795V224.622C16.1527 225.794 16.6175 226.918 17.4452 227.748C18.2728 228.578 19.3957 229.045 20.5672 229.047H176.97C178.142 229.045 179.266 228.578 180.095 227.749C180.924 226.919 181.391 225.795 181.393 224.622V4.62795C181.391 3.45494 180.924 2.33058 180.095 1.50114C179.266 0.671694 178.142 0.204767 176.97 0.202625H20.5672Z" fill="#EBEBEB"/>
<path d="M352.181 229.25H195.77C194.544 229.247 193.368 228.759 192.502 227.892C191.635 227.024 191.147 225.848 191.145 224.622V4.62795C191.147 3.4012 191.635 2.22531 192.502 1.35786C193.368 0.490417 194.544 0.0021428 195.77 0L352.181 0C353.404 0.00428933 354.577 0.493768 355.441 1.36121C356.304 2.22866 356.79 3.40334 356.79 4.62795V224.622C356.79 225.846 356.304 227.021 355.441 227.888C354.577 228.756 353.404 229.245 352.181 229.25ZM195.77 0.202625C194.597 0.204767 193.474 0.671694 192.645 1.50114C191.816 2.33058 191.349 3.45494 191.347 4.62795V224.622C191.349 225.795 191.816 226.919 192.645 227.749C193.474 228.578 194.597 229.045 195.77 229.047H352.181C353.353 229.045 354.477 228.578 355.305 227.749C356.134 226.919 356.601 225.795 356.603 224.622V4.62795C356.601 3.45494 356.134 2.33058 355.305 1.50114C354.477 0.671694 353.353 0.204767 352.181 0.202625H195.77Z" fill="#EBEBEB"/>
<path d="M158.728 265.398H173.811V161.759H158.728V265.398Z" fill="#E6E6E6"/>
<path d="M164.034 265.39H158.721V245.695H169.599L164.034 265.39Z" fill="#F0F0F0"/>
<path d="M318.234 265.398H333.316V161.759H318.234V265.398Z" fill="#E6E6E6"/>
<path d="M158.729 260.024H322.867V161.759H158.729V260.024Z" fill="#F0F0F0"/>
<path d="M317.554 265.39H322.868V245.695H311.989L317.554 265.39Z" fill="#F0F0F0"/>
<path d="M268.751 169.889V251.174H317.408V169.889H268.751Z" fill="#E6E6E6"/>
<path d="M288.264 172.75H297.895C301.971 172.79 305.915 171.304 308.952 168.584H277.216C280.25 171.304 284.191 172.79 288.264 172.75Z" fill="#F0F0F0"/>
<path d="M216.466 169.897V251.182H265.123V169.897H216.466Z" fill="#E6E6E6"/>
<path d="M235.492 172.75H245.115C249.191 172.79 253.134 171.304 256.171 168.584H224.436C227.473 171.304 231.416 172.79 235.492 172.75Z" fill="#F0F0F0"/>
<path d="M164.18 169.897V251.182H212.836V169.897H164.18Z" fill="#E6E6E6"/>
<path d="M183.207 172.75H192.83C196.906 172.791 200.85 171.305 203.886 168.584H172.15C175.188 171.304 179.131 172.79 183.207 172.75Z" fill="#F0F0F0"/>
<path d="M41.684 265.39H144.603L144.603 33.8951H41.684L41.684 265.39Z" fill="#F0F0F0"/>
<path d="M41.6838 265.39H142.432L142.432 33.8951H41.6838L41.6838 265.39Z" fill="#F5F5F5"/>
<path d="M136.292 260.146V39.1552L47.8238 39.1552L47.8238 260.146H136.292Z" fill="#F0F0F0"/>
<path d="M127.6 80.2394C127.598 73.8394 125.056 67.7022 120.532 63.1774C116.009 58.6527 109.875 56.1108 103.478 56.1108H80.6365C77.4691 56.1098 74.3326 56.7331 71.4061 57.9452C68.4795 59.1573 65.8203 60.9344 63.5803 63.1751C61.3402 65.4157 59.5633 68.076 58.351 71.0039C57.1386 73.9319 56.5146 77.0701 56.5146 80.2394H127.6Z" fill="#FAFAFA"/>
<path d="M127.601 246.408V193.612H56.5231V246.408H127.601Z" fill="#F5F5F5"/>
<path d="M127.6 95.1364H96.2451V186.796H127.6V95.1364Z" fill="#F5F5F5"/>
<path d="M87.8697 95.1364H56.5146V186.796H87.8697V95.1364Z" fill="#F5F5F5"/>
<path d="M67.8873 140.557H55.0488C54.5231 140.561 54.017 140.357 53.6408 139.99C53.2645 139.623 53.0486 139.121 53.04 138.595C53.04 138.333 53.0916 138.074 53.1917 137.832C53.2919 137.59 53.4386 137.371 53.6237 137.185C53.8087 137 54.0284 136.853 54.2701 136.753C54.5119 136.653 54.771 136.601 55.0326 136.601H67.8711C68.399 136.604 68.9045 136.814 69.2778 137.188C69.651 137.561 69.8616 138.067 69.8637 138.595C69.8533 139.115 69.6412 139.61 69.2723 139.976C68.9035 140.342 68.4068 140.551 67.8873 140.557Z" fill="#E0E0E0"/>
<path d="M49.4189 260.138L49.4189 39.1471H47.8232L47.8232 260.138H49.4189Z" fill="#F0F0F0"/>
<path d="M209.702 136.342H318.842V33.8951L209.702 33.8951V136.342Z" fill="#E6E6E6"/>
<path d="M206.956 136.342H316.096V33.8951L206.956 33.8951V136.342Z" fill="#F5F5F5"/>
<path d="M200.574 142.275L318.842 142.275V136.342H200.574V142.275Z" fill="#E6E6E6"/>
<path d="M197.479 142.275H309.656V136.342H197.479V142.275Z" fill="#F5F5F5"/>
<path d="M311.154 131.017V39.2281L211.889 39.2281V131.017H311.154Z" fill="white"/>
<path d="M264.271 131.017V39.2281H258.772V131.017H264.271Z" fill="#F5F5F5"/>
<path d="M213.971 131.017V39.2281H211.889V131.017H213.971Z" fill="#E6E6E6"/>
<path d="M266.354 131.017V39.2281H264.272V131.017H266.354Z" fill="#E6E6E6"/>
<path d="M224.371 139.065C222.363 118.252 220.969 84.4864 222.055 73.188C222.072 72.9952 222.132 72.8085 222.228 72.6407C222.324 72.4728 222.456 72.3278 222.614 72.2154C222.823 72.0596 223.072 71.9661 223.332 71.9456C223.592 71.9251 223.852 71.9784 224.083 72.0995C224.314 72.2206 224.507 72.4045 224.638 72.6301C224.769 72.8556 224.834 73.1136 224.825 73.3745C224.631 78.975 224.412 92.9561 225.635 117.093C226.226 129.104 227.085 137.355 226.494 139.065H224.371Z" fill="#E6E6E6"/>
<path d="M216.887 91.092C211.217 84.7458 199.504 80.2313 187.606 80.2475C182.94 80.2475 201.813 87.6393 209.662 95.7848C215.761 102.107 222.622 112.749 224.979 118.649C223.464 106.224 222.606 97.4463 216.887 91.092Z" fill="#E6E6E6"/>
<path d="M228.218 93.0291C232.965 86.4154 243.924 81.3336 255.758 80.7581C260.416 80.5312 242.709 88.8631 236.1 97.3409C230.964 103.947 225.699 114.896 224.258 120.894C223.95 108.437 223.472 99.6428 228.218 93.0291Z" fill="#E6E6E6"/>
<path d="M216.66 67.9036C211.8 62.53 201.935 58.7044 191.866 58.7288C187.905 58.7288 203.895 64.9777 210.545 71.875C215.705 77.2324 221.528 86.2452 223.505 91.246C222.201 80.7176 221.472 73.2853 216.66 67.9036Z" fill="#E6E6E6"/>
<path d="M226.226 75.8627C230.276 70.2621 239.526 65.9503 249.562 65.464C253.498 65.2776 238.505 72.3046 232.916 79.5018C228.567 85.1024 224.112 94.3664 222.88 99.4482C222.589 88.9036 222.208 81.4632 226.226 75.8627Z" fill="#E6E6E6"/>
<path d="M225.181 161.751C222.173 161.74 219.282 160.582 217.097 158.513C214.912 156.444 213.597 153.62 213.42 150.615L212.383 132.517H238.06L237.015 150.615C236.839 153.633 235.514 156.469 233.313 158.54C231.112 160.612 228.202 161.761 225.181 161.751Z" fill="#E6E6E6"/>
<path d="M239.68 136.634H210.674L209.848 129.104H240.506L239.68 136.634Z" fill="#E6E6E6"/>
<path d="M187.5 302C274.237 302 344.551 297.892 344.551 292.825C344.551 287.758 274.237 283.65 187.5 283.65C100.763 283.65 30.4492 287.758 30.4492 292.825C30.4492 297.892 100.763 302 187.5 302Z" fill="#F5F5F5"/>
<path d="M190.667 284.047L183.904 284.809L181.409 269.467L188.173 268.705L190.667 284.047Z" fill="#FFC3BD"/>
<path d="M220.945 285.523H214.189L212.513 269.88H219.268L220.945 285.523Z" fill="#FFC3BD"/>
<path d="M213.639 284.745H221.869C222.003 284.743 222.134 284.789 222.238 284.873C222.343 284.957 222.416 285.075 222.444 285.207L223.78 291.212C223.812 291.359 223.81 291.51 223.775 291.656C223.74 291.801 223.672 291.937 223.577 292.052C223.482 292.168 223.362 292.26 223.226 292.322C223.09 292.385 222.942 292.415 222.792 292.412C220.143 292.363 218.207 292.209 214.87 292.209C212.821 292.209 206.632 292.428 203.797 292.428C200.962 292.428 200.557 289.624 201.756 289.364C206.956 288.23 210.877 286.657 212.545 285.158C212.846 284.889 213.236 284.741 213.639 284.745Z" fill="#263238"/>
<path d="M183.798 283.675L191.088 282.864C191.221 282.848 191.355 282.877 191.469 282.948C191.583 283.019 191.668 283.127 191.712 283.253L193.713 289.073C193.762 289.212 193.78 289.36 193.764 289.507C193.749 289.654 193.7 289.795 193.622 289.921C193.545 290.046 193.439 290.152 193.315 290.232C193.19 290.311 193.049 290.36 192.903 290.377C190.254 290.637 186.423 290.912 183.093 291.285C179.205 291.731 178.557 292.768 173.981 292.663C171.203 292.598 170.498 289.778 171.664 289.551C176.978 288.521 177.999 287.711 182.194 284.404C182.649 284.014 183.205 283.762 183.798 283.675Z" fill="#263238"/>
<path d="M189.76 86.9666C187.492 88.8388 185.256 90.4679 182.948 92.1375C180.639 93.8072 178.282 95.3795 175.852 96.8546C173.422 98.3298 170.936 99.7968 168.319 101.102C165.651 102.483 162.871 103.638 160.009 104.554C159.255 104.798 158.518 105 157.668 105.203C156.837 105.385 155.995 105.521 155.149 105.608C153.626 105.778 152.2 105.843 150.775 105.908C147.932 106.038 145.105 106.038 142.351 106.021C136.778 105.948 131.254 105.681 125.697 105.211L125.616 100.137C131.068 99.432 136.543 98.8242 141.962 98.2163C144.667 97.9245 147.373 97.5922 150.005 97.2518C151.326 97.0735 152.63 96.8628 153.828 96.6358C154.348 96.5449 154.862 96.4231 155.368 96.2711C155.837 96.1171 156.421 95.9226 156.988 95.7118C159.305 94.7691 161.554 93.6669 163.719 92.4131C165.962 91.1244 168.198 89.7466 170.401 88.2796C172.604 86.8126 174.799 85.2888 176.978 83.7408C179.157 82.1927 181.32 80.5393 183.361 78.9912L189.76 86.9666Z" fill="#FFC3BD"/>
<path d="M196.362 81.1877C195.39 87.5744 181.952 97.349 181.952 97.349L172.305 85.3699C176.531 80.8588 181.012 76.594 185.726 72.5964C190.06 69.0464 197.415 74.2417 196.362 81.1877Z" fill="#2D963A"/>
<path d="M127.479 100.688L123.648 97.9569L123.227 106.581C123.227 106.581 125.349 106.581 126.167 105.033L127.479 100.688Z" fill="#FFC3BD"/>
<path d="M120.181 95.4444L119.396 103.898L123.227 106.581L123.648 97.9569L120.181 95.4444Z" fill="#FFC3BD"/>
<path opacity="0.2" d="M181.417 269.475L182.697 277.385L189.46 276.623L188.18 268.713L181.417 269.475Z" fill="black"/>
<path opacity="0.2" d="M219.268 269.88H212.513L213.379 277.944H220.135L219.268 269.88Z" fill="black"/>
<path d="M219.365 72.8071C219.868 72.9193 220.343 73.1312 220.763 73.4304C221.183 73.7295 221.538 74.1099 221.809 74.5489C222.079 74.9879 222.259 75.4766 222.337 75.9863C222.415 76.4959 222.391 77.0161 222.265 77.5161C220.8 83.6025 219.696 89.7704 218.96 95.9874C218.32 101.223 217.939 106.216 217.705 110.747C217.138 121.372 217.372 129.469 217.057 132.217L181.02 129.68C177.359 100.988 181.643 82.6709 184.057 75.2386C184.426 74.0796 185.117 73.0496 186.05 72.2689C186.982 71.4881 188.117 70.9889 189.322 70.8295C190.707 70.6431 192.36 70.4729 194.109 70.3675C194.717 70.3675 195.34 70.3108 195.964 70.2946C201.089 70.3536 206.206 70.7108 211.289 71.3644C212.253 71.4779 213.225 71.6157 214.173 71.7697C216.068 72.1344 217.875 72.4667 219.365 72.8071Z" fill="#263238"/>
<path d="M210.99 54.0198C209.678 58.8828 208.082 67.855 211.298 71.3888C202.947 77.0055 197.617 84.9241 196.078 83.2058C195.268 82.3062 194.928 71.8589 195.981 70.3189C201.57 69.3868 201.716 65.3019 201.027 61.4034L210.99 54.0198Z" fill="#FFC3BD"/>
<path d="M210.65 69.3706C210.65 69.3706 197.034 75.4007 195.26 88.8712C199.002 84.5269 207.288 79.8017 207.288 79.8017L203.635 78.7481C205.957 77.8656 208.361 77.2193 210.812 76.8191C210.407 74.9549 212.569 71.2429 212.569 71.2429L210.65 69.3706Z" fill="#2D963A"/>
<path d="M198.37 69.1518C198.37 69.1518 200.177 76.8515 195.236 88.8712C194.466 84.2838 191.234 76.6003 191.234 76.6003L194.572 77.508C194.572 77.508 194.401 75.96 191.704 73.8932C192.709 71.9561 195.851 69.6867 195.851 69.6867L198.37 69.1518Z" fill="#2D963A"/>
<path opacity="0.2" d="M206.94 57.0348L201.043 61.3953C201.22 62.3035 201.315 63.2258 201.326 64.151C203.449 63.9889 206.494 61.8897 206.867 59.7014C207.053 58.8244 207.078 57.9207 206.94 57.0348Z" fill="black"/>
<path d="M193.688 39.9414C190.391 40.0792 188.577 45.7608 191.914 50.4374C195.251 55.1139 198.119 39.7144 193.688 39.9414Z" fill="#263238"/>
<path d="M209.929 44.9341C210.318 51.6288 210.885 55.5273 207.945 59.3448C203.514 65.0831 194.944 63.0244 192.555 56.581C190.416 50.7859 190.125 40.8086 196.321 37.3802C197.681 36.617 199.214 36.2145 200.773 36.2109C202.333 36.2073 203.867 36.6028 205.231 37.3597C206.594 38.1166 207.742 39.2099 208.564 40.5356C209.387 41.8613 209.857 43.3754 209.929 44.9341Z" fill="#FFC3BD"/>
<path d="M210.909 50.0807C205.838 46.8387 204.048 42.5674 203.659 40.4115C201.691 40.8816 191.922 45.3798 188.917 40.4115C185.912 35.4431 189.727 32.5415 195.316 35.5971C192.83 31.2042 195.089 29.0564 202.906 28.8619C210.722 28.6674 209.669 33.2305 209.669 33.2305C209.669 33.2305 215.582 30.6531 217.68 35.1919C220.102 40.3872 215.631 49.2946 210.909 50.0807Z" fill="#263238"/>
<path d="M208.333 32.0066C208.406 32.0066 211.29 32.7036 214.619 29.3482C214.027 32.2092 208.86 34.1139 208.86 34.1139L208.333 32.0066Z" fill="#263238"/>
<path d="M212.214 41.8055C209.103 40.7276 205.329 45.3474 206.722 50.9237C208.115 56.4999 216.417 43.2563 212.214 41.8055Z" fill="#263238"/>
<path d="M213.979 50.5103C213.839 51.3336 213.538 52.1212 213.093 52.8278C212.649 53.5344 212.069 54.1461 211.387 54.6276C209.556 55.9082 207.904 54.4412 207.799 52.3258C207.701 50.4212 208.544 47.4628 210.674 47.0252C212.804 46.5875 214.311 48.4679 213.979 50.5103Z" fill="#FFC3BD"/>
<path d="M191.185 205.867C192.805 186.107 204.712 131.39 204.712 131.39L181.02 129.68C181.02 129.68 171.883 183.983 171.186 204.602C170.457 226.032 179.076 273.665 179.076 273.665L190.416 272.376C190.416 272.376 189.549 225.683 191.185 205.867Z" fill="#2D963A"/>
<path opacity="0.5" d="M191.185 205.867C192.805 186.107 204.712 131.39 204.712 131.39L181.02 129.68C181.02 129.68 171.883 183.983 171.186 204.602C170.457 226.032 179.076 273.665 179.076 273.665L190.416 272.376C190.416 272.376 189.549 225.683 191.185 205.867Z" fill="white"/>
<path opacity="0.2" d="M195.787 149.886C191.008 155.997 190.927 177.443 192.774 193.304C194.531 181.868 197.301 167.368 199.74 155.211L195.787 149.886Z" fill="black"/>
<path d="M193.802 130.596C193.802 130.596 196.361 188.449 199.213 208.039C202.331 229.493 210.261 276.38 210.261 276.38H222.63C222.63 276.38 220.597 232.208 218.96 211.135C217.105 187.128 217.057 132.209 217.057 132.209L193.802 130.596Z" fill="#2D963A"/>
<path opacity="0.5" d="M193.802 130.596C193.802 130.596 196.361 188.449 199.213 208.039C202.331 229.493 210.261 276.38 210.261 276.38H222.63C222.63 276.38 220.597 232.208 218.96 211.135C217.105 187.128 217.057 132.209 217.057 132.209L193.802 130.596Z" fill="white"/>
<path d="M208.779 276.656H223.343V272.295L207.062 272.02L208.779 276.656Z" fill="#2D963A"/>
<path d="M178.574 274.97L192.117 273.438L191.623 269.061L176.46 270.545L178.574 274.97Z" fill="#2D963A"/>
<path d="M200.079 48.0059C200.144 48.5489 199.909 49.019 199.553 49.0676C199.196 49.1162 198.864 48.7029 198.791 48.1599C198.718 47.6168 198.961 47.1467 199.318 47.1062C199.674 47.0657 200.014 47.4628 200.079 48.0059Z" fill="#263238"/>
<path d="M193.98 48.7434C194.045 49.2865 193.81 49.7566 193.454 49.7971C193.097 49.8376 192.765 49.4405 192.7 48.8974C192.635 48.3544 192.87 47.8843 193.219 47.8357C193.567 47.787 193.899 48.2004 193.98 48.7434Z" fill="#263238"/>
<path d="M195.94 48.7758C195.492 50.5092 194.808 52.1728 193.907 53.7199C194.31 53.9394 194.755 54.0683 195.213 54.0977C195.67 54.1271 196.129 54.0562 196.556 53.8901L195.94 48.7758Z" fill="#ED847E"/>
<path d="M201.74 45.8013C201.684 45.8195 201.624 45.8215 201.567 45.8071C201.509 45.7928 201.457 45.7627 201.416 45.7203C201.144 45.425 200.807 45.1979 200.431 45.0571C200.056 44.9163 199.652 44.8658 199.253 44.9098C199.17 44.9266 199.083 44.9096 199.011 44.8625C198.94 44.8155 198.89 44.7422 198.873 44.6585C198.863 44.6164 198.863 44.5727 198.871 44.5303C198.879 44.4879 198.896 44.4476 198.92 44.4119C198.944 44.3762 198.976 44.3459 199.012 44.3228C199.049 44.2997 199.089 44.2843 199.132 44.2776C199.635 44.2154 200.146 44.2741 200.622 44.4489C201.098 44.6237 201.526 44.9095 201.87 45.2826C201.9 45.3121 201.924 45.3473 201.941 45.3863C201.957 45.4253 201.966 45.4672 201.966 45.5095C201.966 45.5519 201.957 45.5938 201.941 45.6328C201.924 45.6717 201.9 45.707 201.87 45.7365C201.831 45.7664 201.787 45.7884 201.74 45.8013Z" fill="#263238"/>
<path d="M199.391 56.0541C200.163 55.8916 200.884 55.5452 201.493 55.0443C202.102 54.5433 202.582 53.9028 202.89 53.1769C202.906 53.1349 202.905 53.0884 202.887 53.0474C202.869 53.0065 202.835 52.9743 202.793 52.958C202.749 52.9423 202.701 52.9445 202.658 52.9642C202.616 52.9839 202.583 53.0195 202.566 53.0634C202.27 53.7271 201.823 54.3123 201.26 54.7724C200.698 55.2326 200.035 55.5549 199.326 55.7137C199.3 55.7148 199.274 55.7216 199.251 55.7338C199.228 55.746 199.207 55.7632 199.191 55.7842C199.176 55.8051 199.165 55.8294 199.159 55.8552C199.154 55.8809 199.154 55.9076 199.16 55.9332C199.166 55.9588 199.178 55.9827 199.194 56.0033C199.211 56.0239 199.232 56.0405 199.255 56.0521C199.279 56.0636 199.305 56.0698 199.331 56.0702C199.357 56.0705 199.383 56.0651 199.407 56.0541H199.391Z" fill="#263238"/>
<path d="M191.088 46.9522C191.031 46.9685 190.971 46.9689 190.915 46.9536C190.858 46.9383 190.806 46.9077 190.765 46.8652C190.724 46.8227 190.696 46.7698 190.683 46.7123C190.67 46.6548 190.673 46.5949 190.691 46.5389C190.845 46.0553 191.114 45.6158 191.473 45.2576C191.833 44.8993 192.273 44.6327 192.757 44.4802C192.797 44.468 192.84 44.4643 192.881 44.4693C192.923 44.4743 192.964 44.4878 193 44.5091C193.037 44.5304 193.069 44.559 193.093 44.593C193.118 44.6271 193.136 44.6659 193.145 44.7071C193.156 44.7476 193.159 44.7898 193.154 44.8314C193.148 44.8729 193.135 44.913 193.113 44.9492C193.092 44.9854 193.064 45.017 193.031 45.0422C192.997 45.0675 192.959 45.0858 192.919 45.0962C192.541 45.2207 192.197 45.4323 191.916 45.7138C191.635 45.9954 191.423 46.339 191.299 46.7172C191.286 46.7711 191.261 46.8209 191.224 46.8621C191.187 46.9032 191.14 46.9342 191.088 46.9522Z" fill="#263238"/>
<path d="M211.403 285.92C210.945 285.957 210.488 285.837 210.107 285.579C209.991 285.48 209.901 285.355 209.843 285.214C209.785 285.073 209.762 284.921 209.775 284.769C209.773 284.675 209.798 284.582 209.847 284.502C209.895 284.421 209.966 284.357 210.05 284.315C210.796 283.926 212.975 285.271 213.218 285.425C213.246 285.441 213.268 285.465 213.282 285.494C213.295 285.523 213.298 285.556 213.29 285.587C213.285 285.619 213.271 285.647 213.249 285.67C213.227 285.693 213.2 285.71 213.169 285.717C212.59 285.851 211.998 285.919 211.403 285.92ZM210.399 284.526C210.329 284.52 210.259 284.534 210.196 284.566C210.162 284.584 210.134 284.61 210.116 284.644C210.097 284.677 210.088 284.715 210.091 284.753C210.077 284.86 210.09 284.97 210.128 285.072C210.166 285.173 210.228 285.264 210.31 285.336C210.682 285.644 211.565 285.685 212.74 285.458C212.029 284.995 211.233 284.678 210.399 284.526Z" fill="#2D963A"/>
<path d="M213.137 285.685H213.056C212.359 285.304 211.007 283.821 211.153 283.067C211.177 282.949 211.24 282.842 211.333 282.766C211.426 282.689 211.542 282.647 211.663 282.645C211.785 282.632 211.908 282.643 212.025 282.68C212.142 282.716 212.25 282.776 212.343 282.856C213.153 283.496 213.291 285.45 213.291 285.531C213.296 285.56 213.291 285.589 213.278 285.616C213.265 285.642 213.244 285.663 213.218 285.677C213.192 285.687 213.164 285.69 213.137 285.685ZM211.8 282.945H211.736C211.525 282.945 211.509 283.067 211.501 283.107C211.412 283.553 212.311 284.672 212.967 285.198C212.919 284.425 212.636 283.684 212.157 283.075C212.056 282.994 211.93 282.948 211.8 282.945Z" fill="#2D963A"/>
<path d="M183.247 284.655C182.194 284.996 180.299 285.466 179.489 284.907C179.37 284.824 179.273 284.714 179.207 284.585C179.14 284.457 179.107 284.314 179.108 284.169C179.101 284.082 179.116 283.994 179.153 283.914C179.19 283.834 179.247 283.766 179.319 283.715C180.08 283.18 182.94 284.234 183.256 284.355C183.287 284.367 183.314 284.388 183.333 284.416C183.351 284.443 183.361 284.476 183.361 284.509C183.358 284.542 183.346 284.573 183.326 284.599C183.306 284.625 183.278 284.645 183.247 284.655ZM179.513 283.958C179.485 283.98 179.462 284.008 179.448 284.041C179.434 284.073 179.428 284.109 179.432 284.145C179.431 284.24 179.454 284.334 179.497 284.419C179.541 284.504 179.605 284.577 179.683 284.631C180.137 284.947 181.247 284.89 182.705 284.477C181.53 284.104 179.983 283.675 179.513 283.958Z" fill="#2D963A"/>
<path d="M183.247 284.655C183.205 284.672 183.159 284.672 183.117 284.655C182.267 284.388 180.501 283.115 180.542 282.337C180.542 282.159 180.647 281.924 181.076 281.827C181.233 281.793 181.395 281.792 181.552 281.822C181.709 281.853 181.859 281.915 181.992 282.005C182.923 282.605 183.312 284.396 183.328 284.436C183.333 284.464 183.331 284.493 183.322 284.519C183.314 284.546 183.299 284.57 183.279 284.59L183.247 284.655ZM180.971 282.224C180.866 282.289 180.858 282.353 180.858 282.378C180.858 282.848 182.056 283.861 182.939 284.266C182.777 283.509 182.383 282.821 181.813 282.297C181.719 282.229 181.61 282.182 181.495 282.159C181.381 282.137 181.263 282.14 181.149 282.167C181.089 282.175 181.029 282.188 180.971 282.208V282.224Z" fill="#2D963A"/>
<path d="M225.052 82.5493C224.882 85.1916 224.574 87.6474 224.242 90.1842C223.91 92.7211 223.489 95.2093 223.011 97.7219C222.071 102.852 220.681 107.888 218.855 112.773L218.045 114.669L217.843 115.139L217.794 115.253L217.713 115.439L217.47 115.901C217.158 116.468 216.783 116.998 216.353 117.482C215.653 118.275 214.833 118.954 213.923 119.492C213.183 119.936 212.405 120.313 211.598 120.618C208.929 121.592 206.137 122.187 203.303 122.385C198.146 122.77 192.962 122.574 187.849 121.802L188.035 116.736L191.607 116.331C192.806 116.185 193.997 116.007 195.179 115.845C197.544 115.496 199.885 115.107 202.121 114.588C204.184 114.17 206.188 113.504 208.091 112.603C208.605 112.391 209.055 112.047 209.395 111.606C209.395 111.492 209.16 112.003 209.459 111.184L209.994 109.628C211.304 105.147 212.305 100.581 212.991 95.9631C213.38 93.6045 213.704 91.2379 214.028 88.855C214.352 86.4722 214.603 84.0488 214.838 81.7632L225.052 82.5493Z" fill="#FFC3BD"/>
<path d="M225.651 77.6539C228.956 83.1977 226.137 100.64 226.137 100.64L208.803 97.3977C208.803 97.3977 207.864 87.4123 211.168 79.745C214.757 71.4293 221.65 70.9268 225.651 77.6539Z" fill="#2D963A"/>
<path d="M183.191 132.387L173.997 89.6007C173.557 87.7725 172.535 86.1375 171.083 84.9428C169.632 83.7481 167.832 83.0587 165.954 82.9789H130.735C132.612 83.0613 134.411 83.7516 135.862 84.9459C137.313 86.1402 138.336 87.7738 138.779 89.6007L147.964 132.387C148.405 134.215 149.428 135.851 150.879 137.047C152.329 138.242 154.13 138.934 156.007 139.017H191.234C189.356 138.935 187.555 138.244 186.104 137.048C184.653 135.852 183.631 134.216 183.191 132.387Z" fill="#263238"/>
<path opacity="0.7" d="M183.191 132.387L173.997 89.6007C173.557 87.7725 172.535 86.1375 171.083 84.9428C169.632 83.7481 167.832 83.0587 165.954 82.9789H130.735C132.612 83.0613 134.411 83.7516 135.862 84.9459C137.313 86.1402 138.336 87.7738 138.779 89.6007L147.964 132.387C148.405 134.215 149.428 135.851 150.879 137.047C152.329 138.242 154.13 138.934 156.007 139.017H191.234C189.356 138.935 187.555 138.244 186.104 137.048C184.653 135.852 183.631 134.216 183.191 132.387Z" fill="#2D963A"/>
<path d="M116.801 134.61L115.897 144.652L116.707 144.725L117.611 134.683L116.801 134.61Z" fill="#2D963A"/>
<path d="M115.179 149.423L114.791 153.628L115.598 153.702L115.985 149.498L115.179 149.423Z" fill="#2D963A"/>
<path d="M130.735 82.9789H165.954C164.151 83.0124 162.422 83.7039 161.093 84.9234C159.764 86.1429 158.926 87.8062 158.737 89.6007L149.6 189.033C149.409 190.828 148.569 192.491 147.239 193.711C145.908 194.93 144.179 195.621 142.375 195.654H120.392C119.545 195.67 118.704 195.505 117.927 195.169C117.149 194.834 116.452 194.336 115.882 193.709C115.312 193.082 114.883 192.34 114.622 191.534C114.362 190.728 114.277 189.875 114.373 189.033L123.51 89.6007C123.701 87.8056 124.541 86.1421 125.871 84.9227C127.202 83.7034 128.931 83.0122 130.735 82.9789Z" fill="#2D963A"/>
<path d="M136.357 189.033C136.261 189.875 136.346 190.728 136.606 191.534C136.866 192.34 137.295 193.082 137.865 193.709C138.435 194.336 139.132 194.834 139.91 195.169C140.688 195.505 141.528 195.67 142.375 195.654H107.148C106.302 195.67 105.461 195.505 104.684 195.17C103.907 194.834 103.21 194.336 102.641 193.709C102.072 193.082 101.643 192.34 101.384 191.533C101.125 190.727 101.041 189.874 101.138 189.033H136.357Z" fill="#263238"/>
<path opacity="0.7" d="M136.357 189.033C136.261 189.875 136.346 190.728 136.606 191.534C136.866 192.34 137.295 193.082 137.865 193.709C138.435 194.336 139.132 194.834 139.91 195.169C140.688 195.505 141.528 195.67 142.375 195.654H107.148C106.302 195.67 105.461 195.505 104.684 195.17C103.907 194.834 103.21 194.336 102.641 193.709C102.072 193.082 101.643 192.34 101.384 191.533C101.125 190.727 101.041 189.874 101.138 189.033H136.357Z" fill="#2D963A"/>
<g opacity="0.5">
<path opacity="0.5" d="M152.671 94.1152H128.792C128.608 94.1175 128.426 94.0806 128.257 94.007C128.089 93.9334 127.938 93.8248 127.814 93.6884C127.691 93.5519 127.598 93.3907 127.542 93.2156C127.485 93.0404 127.467 92.8553 127.488 92.6725C127.533 92.2839 127.716 91.9246 128.005 91.661C128.294 91.3973 128.668 91.247 129.059 91.2379H152.897C153.081 91.2357 153.262 91.2724 153.43 91.3455C153.598 91.4186 153.748 91.5265 153.872 91.662C153.995 91.7975 154.088 91.9577 154.145 92.1318C154.202 92.306 154.221 92.4903 154.202 92.6725C154.16 93.0559 153.982 93.4117 153.702 93.6761C153.421 93.9406 153.056 94.0962 152.671 94.1152Z" fill="white"/>
<path opacity="0.5" d="M151.925 101.92H128.086C127.902 101.927 127.719 101.894 127.548 101.824C127.377 101.754 127.224 101.648 127.097 101.514C126.971 101.38 126.874 101.22 126.814 101.045C126.754 100.871 126.733 100.686 126.75 100.502C126.793 100.112 126.976 99.7506 127.265 99.4853C127.554 99.22 127.929 99.0686 128.321 99.0592H152.184C152.367 99.058 152.548 99.0957 152.716 99.1698C152.884 99.2439 153.034 99.3527 153.156 99.4891C153.278 99.6254 153.371 99.7861 153.426 99.9607C153.482 100.135 153.501 100.32 153.48 100.502C153.432 100.885 153.249 101.238 152.964 101.498C152.679 101.758 152.31 101.908 151.925 101.92Z" fill="white"/>
<path opacity="0.5" d="M145.38 109.725H127.374C127.19 109.728 127.008 109.691 126.839 109.617C126.671 109.544 126.52 109.435 126.396 109.299C126.273 109.162 126.18 109.001 126.124 108.826C126.067 108.651 126.049 108.465 126.07 108.283C126.113 107.893 126.296 107.531 126.585 107.266C126.874 107.001 127.249 106.849 127.641 106.84H145.631C145.816 106.836 145.999 106.872 146.168 106.946C146.338 107.019 146.49 107.127 146.614 107.264C146.738 107.4 146.832 107.562 146.889 107.738C146.946 107.913 146.964 108.099 146.943 108.283C146.901 108.671 146.719 109.031 146.432 109.297C146.144 109.562 145.771 109.714 145.38 109.725Z" fill="white"/>
<path opacity="0.5" d="M132.768 117.522H126.669C126.485 117.526 126.301 117.49 126.132 117.417C125.962 117.344 125.81 117.235 125.686 117.099C125.562 116.962 125.468 116.8 125.411 116.625C125.355 116.449 125.336 116.263 125.357 116.08C125.4 115.69 125.583 115.328 125.872 115.063C126.161 114.798 126.536 114.646 126.928 114.637H133.036C133.22 114.635 133.402 114.672 133.57 114.745C133.739 114.819 133.89 114.927 134.013 115.064C134.137 115.2 134.229 115.361 134.286 115.537C134.342 115.712 134.36 115.897 134.34 116.08C134.297 116.47 134.114 116.831 133.825 117.096C133.536 117.362 133.16 117.513 132.768 117.522Z" fill="white"/>
<path opacity="0.5" d="M149.795 125.327H125.94C125.756 125.33 125.574 125.293 125.406 125.219C125.237 125.146 125.086 125.037 124.963 124.901C124.839 124.764 124.747 124.603 124.69 124.428C124.634 124.253 124.615 124.068 124.636 123.885C124.679 123.495 124.862 123.134 125.151 122.868C125.44 122.603 125.815 122.451 126.208 122.442H150.038C150.222 122.439 150.405 122.475 150.575 122.548C150.744 122.621 150.896 122.729 151.021 122.866C151.145 123.002 151.239 123.164 151.295 123.34C151.352 123.515 151.371 123.701 151.35 123.885C151.307 124.272 151.127 124.631 150.841 124.896C150.555 125.161 150.184 125.314 149.795 125.327Z" fill="white"/>
<path opacity="0.5" d="M139.71 133.124H125.251C125.067 133.128 124.885 133.092 124.716 133.019C124.547 132.947 124.396 132.839 124.272 132.703C124.148 132.568 124.054 132.407 123.996 132.232C123.939 132.058 123.919 131.873 123.939 131.69C123.982 131.3 124.165 130.939 124.454 130.673C124.743 130.408 125.118 130.257 125.51 130.247H139.961C140.145 130.245 140.328 130.282 140.496 130.355C140.665 130.429 140.817 130.537 140.941 130.674C141.065 130.81 141.158 130.971 141.216 131.146C141.273 131.321 141.292 131.507 141.273 131.69C141.228 132.077 141.046 132.435 140.759 132.699C140.472 132.962 140.099 133.113 139.71 133.124Z" fill="white"/>
<path opacity="0.5" d="M148.377 140.93H124.539C124.355 140.932 124.173 140.895 124.004 140.821C123.836 140.748 123.685 140.639 123.561 140.503C123.438 140.366 123.345 140.205 123.289 140.03C123.233 139.855 123.214 139.67 123.235 139.487C123.278 139.097 123.461 138.736 123.75 138.47C124.039 138.205 124.414 138.054 124.806 138.044H148.62C148.805 138.041 148.988 138.077 149.157 138.15C149.327 138.223 149.479 138.331 149.603 138.468C149.727 138.604 149.821 138.766 149.878 138.942C149.935 139.118 149.953 139.303 149.932 139.487C149.89 139.874 149.709 140.233 149.424 140.498C149.138 140.763 148.766 140.916 148.377 140.93Z" fill="white"/>
<path opacity="0.5" d="M141.824 148.735H123.834C123.65 148.738 123.466 148.702 123.297 148.629C123.127 148.556 122.975 148.448 122.851 148.311C122.727 148.174 122.633 148.013 122.577 147.837C122.52 147.661 122.501 147.475 122.522 147.292C122.565 146.902 122.748 146.541 123.037 146.275C123.326 146.01 123.701 145.859 124.093 145.849H142.083C142.268 145.846 142.451 145.882 142.621 145.955C142.79 146.028 142.942 146.136 143.066 146.273C143.191 146.41 143.284 146.571 143.341 146.747C143.398 146.923 143.416 147.108 143.396 147.292C143.353 147.682 143.17 148.043 142.881 148.309C142.592 148.574 142.216 148.725 141.824 148.735Z" fill="white"/>
<path opacity="0.5" d="M129.229 156.532H123.121C122.937 156.534 122.755 156.497 122.586 156.423C122.417 156.35 122.265 156.241 122.141 156.105C122.017 155.969 121.924 155.808 121.866 155.633C121.809 155.458 121.79 155.272 121.809 155.089C121.852 154.698 122.036 154.335 122.327 154.07C122.618 153.804 122.995 153.654 123.389 153.646H129.488C129.672 153.644 129.855 153.681 130.023 153.755C130.192 153.828 130.344 153.937 130.468 154.073C130.592 154.209 130.685 154.37 130.743 154.545C130.8 154.72 130.82 154.906 130.8 155.089C130.757 155.479 130.574 155.84 130.285 156.106C129.996 156.371 129.621 156.522 129.229 156.532Z" fill="white"/>
<path opacity="0.5" d="M146.247 164.337H122.416C122.231 164.344 122.047 164.31 121.876 164.24C121.705 164.169 121.55 164.063 121.424 163.928C121.297 163.793 121.201 163.632 121.142 163.456C121.082 163.281 121.061 163.095 121.08 162.91C121.12 162.509 121.308 162.137 121.608 161.868C121.908 161.598 122.297 161.449 122.7 161.451H146.514C146.699 161.45 146.881 161.488 147.05 161.563C147.219 161.638 147.37 161.748 147.493 161.887C147.615 162.025 147.707 162.188 147.762 162.364C147.817 162.541 147.833 162.727 147.81 162.91C147.763 163.296 147.58 163.652 147.293 163.914C147.006 164.176 146.635 164.326 146.247 164.337Z" fill="white"/>
<path opacity="0.5" d="M136.155 172.142H121.704C121.52 172.144 121.338 172.107 121.169 172.034C121 171.96 120.848 171.852 120.724 171.715C120.6 171.579 120.507 171.418 120.449 171.243C120.392 171.068 120.373 170.882 120.392 170.699C120.435 170.309 120.618 169.948 120.907 169.683C121.196 169.417 121.571 169.266 121.963 169.257H136.414C136.598 169.253 136.782 169.289 136.951 169.362C137.121 169.435 137.273 169.544 137.397 169.68C137.521 169.817 137.615 169.978 137.671 170.154C137.728 170.33 137.747 170.516 137.726 170.699C137.683 171.089 137.5 171.45 137.211 171.716C136.922 171.981 136.547 172.132 136.155 172.142Z" fill="white"/>
<path opacity="0.5" d="M144.829 179.931H120.999C120.815 179.934 120.631 179.898 120.462 179.825C120.292 179.752 120.14 179.644 120.016 179.507C119.892 179.37 119.798 179.209 119.742 179.033C119.685 178.857 119.666 178.672 119.687 178.488C119.73 178.098 119.913 177.737 120.202 177.472C120.491 177.206 120.866 177.055 121.258 177.045H145.097C145.281 177.043 145.463 177.08 145.631 177.154C145.8 177.227 145.951 177.336 146.074 177.472C146.198 177.609 146.29 177.77 146.347 177.945C146.403 178.12 146.421 178.305 146.401 178.488C146.358 178.878 146.175 179.239 145.886 179.505C145.597 179.77 145.221 179.921 144.829 179.931Z" fill="white"/>
</g>
<path d="M190.117 117.255L184.941 112.757L182.511 121.04C182.511 121.04 187.768 123.893 189.582 121.275L190.117 117.255Z" fill="#FFC3BD"/>
<path d="M179.311 112.432L177.626 119.37L182.518 121.04L184.94 112.757L179.311 112.432Z" fill="#FFC3BD"/>
</g>
<defs>
<clipPath id="clip0_1108_10750">
<rect width="405" height="302" fill="white" transform="translate(-15)"/>
</clipPath>
</defs>
</svg>
