<svg width="20" height="20" viewBox="0 0 20 20" fill="none" xmlns="http://www.w3.org/2000/svg">
<path d="M12.0392 5.8046C11.6952 5.8046 11.4154 5.52479 11.4154 5.18085V2.92429C11.4154 2.65636 11.1974 2.43839 10.9295 2.43839H7.49418C7.22625 2.43839 7.00824 2.65636 7.00824 2.92429V5.18085C7.00824 5.52479 6.72844 5.8046 6.38449 5.8046C6.04055 5.8046 5.76074 5.52479 5.76074 5.18085V2.92429C5.76074 1.9685 6.53832 1.19089 7.49414 1.19089H10.9295C11.8853 1.19089 12.6629 1.96847 12.6629 2.92429V5.18085C12.6629 5.52479 12.3831 5.8046 12.0392 5.8046Z" fill="#828282"/>
<path d="M0 7.35315V15.3776C0 16.3661 0.801367 17.1674 1.78984 17.1674H14.5379C15.5264 17.1674 16.3278 16.366 16.3278 15.3776V7.35315H0Z" fill="#4F4F4F"/>
<path d="M16.6333 4.27731H14.085C15.0735 4.27731 15.8748 5.07868 15.8748 6.06716V15.3775C15.8748 16.3661 15.0734 17.1674 14.085 17.1674H16.6333C17.6218 17.1674 18.4232 16.366 18.4232 15.3775V6.06716C18.4232 5.07864 17.6218 4.27731 16.6333 4.27731Z" fill="#4F4F4F"/>
<path d="M16.3278 10.3464V6.06716C16.3278 5.07864 15.5264 4.27731 14.538 4.27731H1.78984C0.801328 4.27731 0 5.07868 0 6.06716V7.31196C0 9.10321 1.45207 10.5553 3.24332 10.5553H15.1801C15.5842 10.5553 15.971 10.4814 16.3278 10.3464Z" fill="#333333"/>
<path d="M16.6333 4.27731H14.085C15.0735 4.27731 15.8748 5.07868 15.8748 6.06716V10.4799C17.332 10.1616 18.4232 8.86454 18.4232 7.31196V6.06716C18.4232 5.07864 17.6218 4.27731 16.6333 4.27731Z" fill="#333333"/>
<path d="M4.11668 12.7826C3.65473 12.7826 3.28027 12.4081 3.28027 11.9462V10.0023C3.28027 9.54038 3.65473 9.16592 4.11668 9.16592C4.57863 9.16592 4.95309 9.54038 4.95309 10.0023V11.9462C4.95309 12.4081 4.57859 12.7826 4.11668 12.7826Z" fill="#E0E0E0"/>
<path d="M3.28027 11.3202V11.9461C3.28027 12.4081 3.65473 12.7825 4.11668 12.7825C4.57863 12.7825 4.95309 12.408 4.95309 11.9461V11.3202H3.28027Z" fill="#828282"/>
<path d="M12.1494 13.161L13.0078 14.0193L11.2099 15.8172L10.3515 14.9589L12.1494 13.161Z" fill="#E0E0E0"/>
<path d="M11.023 16.265L9.90641 15.1484L9.5584 15.2727L7.63989 17.1912C7.26978 17.5613 7.26978 18.1614 7.63989 18.5315C8.01001 18.9016 8.61004 18.9016 8.98016 18.5315L10.8987 16.613L11.023 16.265Z" fill="#4F4F4F"/>
<path d="M11.4416 15.5595L10.6121 14.73C10.471 14.5889 10.2424 14.5889 10.1013 14.73L9.55859 15.2728L10.8989 16.613L11.4416 16.0703C11.5826 15.9292 11.5826 15.7005 11.4416 15.5595Z" fill="#BDBDBD"/>
<path d="M15.3003 15.5713C17.8959 15.5713 20.0001 13.4671 20.0001 10.8715C20.0001 8.27596 17.8959 6.17181 15.3003 6.17181C12.7047 6.17181 10.6006 8.27596 10.6006 10.8715C10.6006 13.4671 12.7047 15.5713 15.3003 15.5713Z" fill="#828282"/>
<path d="M15.2998 14.1947C17.1351 14.1947 18.623 12.7069 18.623 10.8715C18.623 9.03616 17.1351 7.54831 15.2998 7.54831C13.4644 7.54831 11.9766 9.03616 11.9766 10.8715C11.9766 12.7069 13.4644 14.1947 15.2998 14.1947Z" fill="#BDBDBD"/>
<path d="M17.6504 8.52168C16.6706 7.54188 15.2314 7.30231 14.0264 7.80196C14.4175 7.9641 14.7841 8.20368 15.102 8.52168C16.3999 9.81946 16.3999 11.9236 15.102 13.2214C14.784 13.5394 14.4175 13.779 14.0264 13.9411C15.2314 14.4408 16.6706 14.2012 17.6504 13.2214C18.9482 11.9236 18.9482 9.81946 17.6504 8.52168Z" fill="#4F4F4F"/>
</svg>
