<svg width="6" height="6" viewBox="0 0 6 6" fill="none" xmlns="http://www.w3.org/2000/svg">
<path d="M2.76877 5.87895C1.06605 3.41052 0.75 3.15718 0.75 2.25C0.75 1.00736 1.75736 0 3 0C4.24264 0 5.25 1.00736 5.25 2.25C5.25 3.15718 4.93395 3.41052 3.23123 5.87895C3.1195 6.04036 2.88049 6.04035 2.76877 5.87895ZM3 3.1875C3.51777 3.1875 3.9375 2.76777 3.9375 2.25C3.9375 1.73223 3.51777 1.3125 3 1.3125C2.48223 1.3125 2.0625 1.73223 2.0625 2.25C2.0625 2.76777 2.48223 3.1875 3 3.1875Z" fill="#4F4F4F"/>
</svg>
