<svg width="6" height="6" viewBox="0 0 6 6" fill="none" xmlns="http://www.w3.org/2000/svg">
<path d="M5.375 0H3.78925C3.48874 0 3.20599 0.117 2.9935 0.329496L0.213246 3.11C0.0777539 3.2455 0 3.433 0 3.6255C0 3.817 0.0777539 4.0045 0.213246 4.14L1.86025 5.787C1.9955 5.92225 2.183 6 2.3755 6C2.56699 6 2.75449 5.92225 2.89 5.78675L5.67049 3.00626C5.883 2.794 6 2.51125 6 2.21075V0.624996C6 0.280254 5.71975 0 5.375 0ZM4.625 2C4.28025 2 4.00001 1.71975 4.00001 1.37501C4.00001 1.03025 4.28026 0.750012 4.625 0.750012C4.96975 0.750012 5.25 1.03025 5.25 1.375C5.25 1.71975 4.96975 2 4.625 2Z" fill="#4F4F4F"/>
</svg>
