<svg width="20" height="20" viewBox="0 0 20 20" fill="none" xmlns="http://www.w3.org/2000/svg">
<g clip-path="url(#clip0_1120_9631)">
<path d="M10 0C4.47312 0 0 4.47254 0 10C0 15.5269 4.47254 20 10 20C15.5269 20 20 15.5275 20 10C20 4.47312 15.5275 0 10 0ZM9.74637 13.9218C9.26156 13.9218 8.88953 13.5159 8.88953 13.0537C8.88953 12.5802 9.27285 12.1856 9.74637 12.1856C10.2199 12.1856 10.6145 12.5802 10.6145 13.0537C10.6145 13.5159 10.2312 13.9218 9.74637 13.9218ZM11.0316 9.53605C10.4116 10.0209 10.4003 10.3591 10.4003 10.9454C10.4003 11.1596 10.2875 11.4076 9.73508 11.4076C9.27285 11.4076 9.115 11.2385 9.115 10.6522C9.115 9.68262 9.54344 9.22031 9.87043 8.93844C10.2425 8.62274 10.8739 8.27324 10.8739 7.66445C10.8739 7.14578 10.4229 6.89777 9.85914 6.89777C8.70914 6.89777 8.95719 7.7659 8.34836 7.7659C8.04395 7.7659 7.67188 7.56297 7.67188 7.12324C7.67188 6.51445 8.37094 5.61246 9.89297 5.61246C11.3361 5.61246 12.2945 6.41301 12.2945 7.47277C12.2944 8.53254 11.3361 9.29926 11.0316 9.53605Z" fill="#333333"/>
</g>
<defs>
<clipPath id="clip0_1120_9631">
<rect width="20" height="20" fill="white"/>
</clipPath>
</defs>
</svg>
