<svg width="375" height="322" viewBox="0 0 375 322" fill="none" xmlns="http://www.w3.org/2000/svg">
<path d="M408 282.974H-23V283.19H408V282.974Z" fill="#EBEBEB"/>
<path d="M364.814 296.878H336.265V297.095H364.814V296.878Z" fill="#EBEBEB"/>
<path d="M236.841 296.991H229.351V297.207H236.841V296.991Z" fill="#EBEBEB"/>
<path d="M335.394 288.859H282.433V289.075H335.394V288.859Z" fill="#EBEBEB"/>
<path d="M171.071 293.958H160.132V294.174H171.071V293.958Z" fill="#EBEBEB"/>
<path d="M152.46 293.958H120.713V294.174H152.46V293.958Z" fill="#EBEBEB"/>
<path d="M44.1414 290.311H22.2207V290.527H44.1414V290.311Z" fill="#EBEBEB"/>
<path d="M113.869 290.311H49.3135V290.527H113.869V290.311Z" fill="#EBEBEB"/>
<path d="M181.294 244.432H14.8509C13.547 244.429 12.2973 243.909 11.3761 242.983C10.4549 242.058 9.9375 240.804 9.9375 239.497V4.93444C9.9375 3.62724 10.4549 2.37345 11.3761 1.44831C12.2973 0.523176 13.547 0.00228931 14.8509 0L181.294 0C182.6 0 183.852 0.519877 184.775 1.44526C185.698 2.37065 186.217 3.62574 186.217 4.93444V239.497C186.217 240.145 186.089 240.787 185.842 241.386C185.594 241.984 185.232 242.528 184.775 242.986C184.318 243.445 183.775 243.808 183.178 244.056C182.581 244.304 181.941 244.432 181.294 244.432ZM14.8509 0.216044C13.6041 0.218333 12.4092 0.716458 11.5285 1.60108C10.6477 2.4857 10.153 3.68454 10.153 4.93444V239.497C10.153 240.747 10.6477 241.946 11.5285 242.831C12.4092 243.715 13.6041 244.213 14.8509 244.216H181.294C182.542 244.213 183.738 243.716 184.62 242.831C185.502 241.947 185.999 240.748 186.001 239.497V4.93444C185.999 3.68374 185.502 2.48493 184.62 1.60055C183.738 0.716177 182.542 0.218328 181.294 0.216044H14.8509Z" fill="#EBEBEB"/>
<path d="M367.753 244.432H201.301C199.996 244.429 198.746 243.909 197.823 242.984C196.9 242.059 196.381 240.805 196.379 239.497V4.93444C196.381 3.62644 196.9 2.37268 197.823 1.44779C198.746 0.522895 199.996 0.00228471 201.301 0L367.753 0C369.056 0.0045734 370.303 0.526468 371.222 1.45136C372.142 2.37625 372.658 3.62873 372.658 4.93444V239.497C372.658 240.803 372.142 242.055 371.222 242.98C370.303 243.905 369.056 244.427 367.753 244.432ZM201.301 0.216044C200.053 0.218328 198.858 0.716177 197.975 1.60055C197.093 2.48493 196.597 3.68374 196.594 4.93444V239.497C196.597 240.748 197.093 241.947 197.975 242.831C198.858 243.716 200.053 244.213 201.301 244.216H367.753C369.001 244.213 370.196 243.716 371.079 242.831C371.961 241.947 372.457 240.748 372.46 239.497V4.93444C372.457 3.68374 371.961 2.48493 371.079 1.60055C370.196 0.716177 369.001 0.218328 367.753 0.216044H201.301Z" fill="#EBEBEB"/>
<path d="M141.453 168.125L350.953 168.125V14.7083L141.453 14.7083L141.453 168.125Z" fill="#E6E6E6"/>
<path d="M132.195 168.125L348.807 168.125V14.7083L132.195 14.7083L132.195 168.125Z" fill="#F0F0F0"/>
<path d="M335.842 155.137V27.7141L145.159 27.7141V155.137H335.842Z" fill="#FAFAFA"/>
<path d="M289.484 155.128L246.074 27.7054H204.62L248.03 155.128H289.484Z" fill="white"/>
<path d="M239.126 155.128L195.715 27.7054H179.562L222.972 155.128H239.126Z" fill="white"/>
<path d="M146.806 155.128V27.7054H145.159V155.128H146.806Z" fill="#E6E6E6"/>
<path d="M32.6589 126.394L106.636 126.394L106.636 21.25L32.6589 21.25L32.6589 126.394Z" fill="#E0E0E0"/>
<path d="M27.4272 126.394L103.68 126.394L103.68 21.25L27.4272 21.25L27.4272 126.394Z" fill="#F5F5F5"/>
<path d="M96.1543 118.107V29.5375L34.9523 29.5375L34.9523 118.107H96.1543Z" fill="white"/>
<path d="M61.4161 200.005C66.907 186.428 79.9663 181.364 84.4832 172.792C90.3879 161.557 90.3534 144.697 85.3452 138.614C80.9662 133.333 66.4846 169.067 64.8554 173.068C60.3849 183.843 57.5883 195.242 56.563 206.866C56.6837 198.475 56.7957 190.766 56.8906 184.821C57.2009 165.42 57.5802 159.19 57.7526 157.262C58.356 156.329 59.0714 155.24 59.4766 154.67C62.9849 149.71 70.7601 143.816 74.6478 136.617C80.3197 126.1 79.406 113.518 75.4236 108.834C71.2601 103.934 63.9072 115.514 60.0024 126.982C56.0975 138.449 57.7612 149.45 56.6664 158.956C56.4423 160.832 56.201 167.926 55.9855 177.778C54.7959 167.183 52.434 160.08 48.0637 153.469C42.6848 145.337 38.0386 135.425 33.6079 136.704C29.1773 137.983 31.5564 151.092 35.0647 160.296C38.2024 168.514 53.5891 176.655 55.8562 183.248C55.5889 196.591 55.3476 213.494 55.1838 229.248C53.9684 221.116 54.8045 220.434 49.8222 207.981C46.8655 200.575 34.7544 191.449 33.289 196.539C31.8236 201.629 34.0389 211.23 38.6162 217.962C42.3141 223.398 50.5118 223.389 52.4082 226.759C52.8478 227.546 54.3132 230.562 55.1493 232.29C54.9511 251.509 54.8649 268.473 54.9597 274.263L55.7527 274.324C55.7527 272.828 55.8131 263.046 55.9682 250.127C57.9594 243.213 71.3635 239.221 75.5011 232.065C79.8111 224.573 82.9488 215.828 81.0869 209.977C79.5353 205.095 67.2949 211.705 62.3729 219.82C59.0714 225.204 57.0543 230.959 56.1148 238.685C56.2268 229.87 56.3561 220.399 56.4768 211.463C57.4853 209.217 59.7524 204.075 61.4161 200.005Z" fill="#E6E6E6"/>
<path d="M69.2857 282.974H41.1155C40.3711 282.973 39.6497 282.715 39.0734 282.242C38.497 281.77 38.1009 281.113 37.952 280.381L35.9521 270.487H74.4577L72.4578 280.373C72.3074 281.106 71.91 281.764 71.3323 282.238C70.7547 282.711 70.032 282.971 69.2857 282.974Z" fill="#F0F0F0"/>
<path d="M75.2682 274.324H35.1421C34.6773 274.322 34.2292 274.15 33.8828 273.839C33.5363 273.529 33.3158 273.101 33.263 272.638L32.401 265.336C32.3719 265.071 32.3989 264.803 32.48 264.549C32.5611 264.295 32.6946 264.061 32.8719 263.862C33.0491 263.663 33.2661 263.504 33.5087 263.395C33.7513 263.285 34.0141 263.228 34.2801 263.228H76.0354C76.3018 263.227 76.5653 263.283 76.8086 263.392C77.0518 263.501 77.2694 263.66 77.4469 263.859C77.6244 264.058 77.7578 264.293 77.8384 264.547C77.919 264.802 77.945 265.071 77.9146 265.336L77.0526 272.638C77.0022 273.086 76.7952 273.5 76.4685 273.809C76.1418 274.117 75.7165 274.3 75.2682 274.324Z" fill="#F0F0F0"/>
<path d="M326.653 276.674H335.265V183.784H326.653V276.674Z" fill="#F0F0F0"/>
<path d="M151.176 282.862H331.963V276.674H151.176V282.862Z" fill="#F0F0F0"/>
<path d="M326.661 183.775H147.874V276.665H326.661V183.775Z" fill="#F5F5F5"/>
<path d="M328.687 183.775H337.583V177.916H328.687V183.775Z" fill="#E0E0E0"/>
<path d="M328.688 177.925H145.556V183.784H328.688V177.925Z" fill="#EBEBEB"/>
<path d="M313.826 223.899H160.701C158.872 223.899 157.118 223.171 155.824 221.874C154.531 220.578 153.805 218.819 153.805 216.986V197.032C153.805 195.198 154.531 193.44 155.824 192.143C157.118 190.847 158.872 190.118 160.701 190.118H313.826C315.655 190.118 317.409 190.847 318.703 192.143C319.996 193.44 320.722 195.198 320.722 197.032V216.908C320.733 217.822 320.562 218.73 320.22 219.577C319.878 220.425 319.372 221.196 318.73 221.847C318.089 222.497 317.325 223.013 316.483 223.365C315.642 223.718 314.739 223.899 313.826 223.899ZM160.701 191.847C159.329 191.847 158.013 192.393 157.044 193.365C156.074 194.338 155.529 195.657 155.529 197.032V216.908C155.529 218.283 156.074 219.602 157.044 220.574C158.013 221.547 159.329 222.093 160.701 222.093H313.826C315.198 222.093 316.514 221.547 317.484 220.574C318.453 219.602 318.998 218.283 318.998 216.908V197.032C318.998 195.657 318.453 194.338 317.484 193.365C316.514 192.393 315.198 191.847 313.826 191.847H160.701Z" fill="white"/>
<path d="M313.826 265.509H160.701C158.872 265.509 157.118 264.781 155.824 263.484C154.531 262.188 153.805 260.429 153.805 258.596V238.72C153.805 236.886 154.531 235.128 155.824 233.831C157.118 232.535 158.872 231.806 160.701 231.806H313.826C315.655 231.806 317.409 232.535 318.703 233.831C319.996 235.128 320.722 236.886 320.722 238.72V258.596C320.722 260.429 319.996 262.188 318.703 263.484C317.409 264.781 315.655 265.509 313.826 265.509ZM160.701 233.465C159.329 233.465 158.013 234.012 157.044 234.984C156.074 235.956 155.529 237.275 155.529 238.65V258.526C155.529 259.902 156.074 261.22 157.044 262.193C158.013 263.165 159.329 263.711 160.701 263.711H313.826C315.198 263.711 316.514 263.165 317.484 262.193C318.453 261.22 318.998 259.902 318.998 258.526V238.65C318.998 237.275 318.453 235.956 317.484 234.984C316.514 234.012 315.198 233.465 313.826 233.465H160.701Z" fill="white"/>
<path d="M279.028 210.072H195.5C194.906 210.07 194.338 209.832 193.918 209.412C193.498 208.991 193.261 208.42 193.259 207.825V206.192C193.261 205.597 193.498 205.027 193.918 204.606C194.338 204.185 194.906 203.947 195.5 203.945H279.028C279.621 203.947 280.19 204.185 280.61 204.606C281.03 205.027 281.267 205.597 281.269 206.192V207.825C281.267 208.42 281.03 208.991 280.61 209.412C280.19 209.832 279.621 210.07 279.028 210.072ZM195.5 205.674C195.364 205.678 195.235 205.734 195.139 205.83C195.043 205.926 194.987 206.056 194.983 206.192V207.825C194.985 207.962 195.04 208.093 195.137 208.189C195.233 208.286 195.364 208.342 195.5 208.344H279.028C279.165 208.344 279.297 208.289 279.394 208.192C279.49 208.095 279.545 207.963 279.545 207.825V206.192C279.543 206.055 279.488 205.925 279.391 205.828C279.295 205.731 279.164 205.676 279.028 205.674H195.5Z" fill="white"/>
<path d="M279.028 251.682H195.5C194.906 251.68 194.338 251.442 193.918 251.022C193.498 250.601 193.261 250.031 193.259 249.435V247.802C193.261 247.207 193.498 246.637 193.918 246.216C194.338 245.795 194.906 245.557 195.5 245.555H279.028C279.621 245.557 280.19 245.795 280.61 246.216C281.03 246.637 281.267 247.207 281.269 247.802V249.435C281.267 250.031 281.03 250.601 280.61 251.022C280.19 251.442 279.621 251.68 279.028 251.682ZM195.5 247.283C195.364 247.288 195.235 247.344 195.139 247.44C195.043 247.536 194.987 247.666 194.983 247.802V249.435C194.985 249.572 195.04 249.703 195.137 249.799C195.233 249.896 195.364 249.952 195.5 249.954H279.028C279.165 249.954 279.297 249.899 279.394 249.802C279.49 249.705 279.545 249.573 279.545 249.435V247.802C279.543 247.665 279.488 247.535 279.391 247.438C279.295 247.341 279.164 247.286 279.028 247.283H195.5Z" fill="white"/>
<path d="M188.19 322C280.495 322 355.323 317.62 355.323 312.218C355.323 306.815 280.495 302.435 188.19 302.435C95.8847 302.435 21.0566 306.815 21.0566 312.218C21.0566 317.62 95.8847 322 188.19 322Z" fill="#F5F5F5"/>
<path d="M300.073 97.4759L299.745 102.564L300.605 102.62L300.934 97.5317L300.073 97.4759Z" fill="#2D963A"/>
<path d="M301.372 76.8195L300.296 93.5411L301.156 93.5968L302.232 76.8751L301.372 76.8195Z" fill="#2D963A"/>
<path d="M291.147 52.5245H189.819C187.213 52.5728 184.72 53.593 182.824 55.386C180.929 57.1789 179.769 59.6158 179.57 62.2206L166.476 264.869C166.38 266.111 166.543 267.359 166.955 268.535C167.366 269.71 168.017 270.786 168.866 271.696C169.714 272.605 170.743 273.328 171.885 273.817C173.027 274.307 174.259 274.553 175.501 274.54H276.812C279.418 274.498 281.914 273.484 283.814 271.696C285.714 269.908 286.881 267.474 287.087 264.869L300.172 62.2206C300.272 60.9767 300.111 59.7257 299.702 58.5474C299.292 57.3691 298.642 56.2893 297.793 55.377C296.943 54.4647 295.914 53.7398 294.77 53.2487C293.625 52.7576 292.392 52.5109 291.147 52.5245Z" fill="#2D963A"/>
<path opacity="0.7" d="M287.932 52.5245H189.819C187.213 52.5728 184.72 53.593 182.824 55.386C180.929 57.1789 179.769 59.6158 179.57 62.2206L166.476 264.869C166.38 266.111 166.543 267.359 166.955 268.535C167.366 269.71 168.017 270.786 168.866 271.696C169.714 272.605 170.743 273.328 171.885 273.817C173.027 274.307 174.259 274.553 175.501 274.54H273.597C276.205 274.498 278.704 273.482 280.605 271.69C282.505 269.898 283.67 267.46 283.872 264.852L296.957 62.2206C297.056 60.9767 296.896 59.7257 296.486 58.5474C296.077 57.3691 295.427 56.2893 294.577 55.377C293.728 54.4647 292.699 53.7398 291.554 53.2487C290.41 52.7576 289.176 52.5109 287.932 52.5245Z" fill="white"/>
<path d="M279.656 259.555H171.734C171.33 259.556 170.929 259.473 170.558 259.312C170.187 259.152 169.853 258.916 169.576 258.62C169.3 258.324 169.087 257.975 168.951 257.593C168.815 257.211 168.759 256.805 168.786 256.401L180.63 73.0314C180.678 72.2824 181.009 71.5799 181.554 71.0664C182.1 70.5528 182.821 70.2667 183.569 70.266H291.5C291.907 70.266 292.31 70.3504 292.683 70.5137C293.056 70.677 293.392 70.9159 293.669 71.2152C293.945 71.5146 294.158 71.8681 294.292 72.2534C294.426 72.6388 294.479 73.0478 294.448 73.4548L282.604 256.833C282.546 257.575 282.209 258.268 281.663 258.773C281.116 259.278 280.4 259.557 279.656 259.555Z" fill="white"/>
<path d="M255.676 64.26H216.446C216.245 64.263 216.045 64.2239 215.86 64.1451C215.674 64.0662 215.507 63.9495 215.369 63.8023C215.231 63.6551 215.125 63.4806 215.059 63.2901C214.992 63.0996 214.965 62.8972 214.981 62.6959C215.02 62.2782 215.21 61.8891 215.515 61.6013C215.819 61.3135 216.218 61.1466 216.636 61.1317H255.866C256.067 61.1287 256.267 61.1678 256.452 61.2467C256.638 61.3255 256.805 61.4422 256.943 61.5894C257.081 61.7366 257.186 61.9111 257.253 62.1016C257.32 62.2921 257.347 62.4945 257.331 62.6959C257.291 63.1135 257.102 63.5026 256.797 63.7904C256.493 64.0782 256.094 64.2451 255.676 64.26Z" fill="white"/>
<path d="M225.057 267.255C224.992 268.29 224.54 269.262 223.79 269.976C223.04 270.691 222.049 271.096 221.015 271.109C220.517 271.113 220.025 271.015 219.567 270.82C219.11 270.626 218.697 270.339 218.355 269.977C218.013 269.615 217.749 269.187 217.579 268.719C217.409 268.25 217.337 267.752 217.368 267.255C217.433 266.22 217.886 265.247 218.636 264.533C219.385 263.818 220.377 263.414 221.411 263.4C221.908 263.396 222.401 263.494 222.858 263.689C223.316 263.883 223.729 264.17 224.071 264.532C224.413 264.894 224.677 265.322 224.847 265.79C225.016 266.259 225.088 266.757 225.057 267.255Z" fill="white"/>
<path opacity="0.2" d="M267.899 121.054H175.742L169.881 211.723H267.899C270.456 211.716 272.906 210.695 274.715 208.883C276.524 207.072 277.544 204.616 277.553 202.053V130.732C277.546 128.167 276.527 125.71 274.718 123.896C272.909 122.082 270.457 121.06 267.899 121.054Z" fill="#2D963A"/>
<path d="M259.313 112.991H146.374C141.042 112.991 136.72 117.324 136.72 122.67V193.973C136.72 199.318 141.042 203.651 146.374 203.651H259.313C264.645 203.651 268.968 199.318 268.968 193.973V122.67C268.968 117.324 264.645 112.991 259.313 112.991Z" fill="#2D963A"/>
<path d="M133.634 111.954C133.408 111.953 133.191 111.863 133.031 111.703L131.479 110.148C131.319 109.986 131.229 109.767 131.229 109.538C131.229 109.31 131.319 109.091 131.479 108.929C131.559 108.848 131.655 108.784 131.76 108.74C131.865 108.696 131.977 108.674 132.091 108.674C132.205 108.674 132.318 108.696 132.423 108.74C132.528 108.784 132.623 108.848 132.703 108.929L134.246 110.476C134.327 110.556 134.391 110.652 134.435 110.757C134.479 110.863 134.501 110.976 134.501 111.09C134.501 111.204 134.479 111.317 134.435 111.422C134.391 111.527 134.327 111.623 134.246 111.703C134.166 111.783 134.07 111.847 133.965 111.89C133.86 111.933 133.748 111.954 133.634 111.954Z" fill="#2D963A"/>
<path d="M131.298 117.381H129.117C128.888 117.381 128.669 117.29 128.507 117.128C128.346 116.966 128.255 116.746 128.255 116.517C128.255 116.287 128.346 116.068 128.507 115.906C128.669 115.744 128.888 115.652 129.117 115.652H131.298C131.526 115.652 131.746 115.744 131.907 115.906C132.069 116.068 132.16 116.287 132.16 116.517C132.16 116.746 132.069 116.966 131.907 117.128C131.746 117.29 131.526 117.381 131.298 117.381Z" fill="#2D963A"/>
<path d="M139.125 109.621C138.906 109.621 138.696 109.538 138.536 109.389C138.376 109.24 138.278 109.035 138.263 108.817L138.108 106.63C138.1 106.517 138.114 106.403 138.15 106.295C138.186 106.187 138.242 106.087 138.317 106.001C138.391 105.915 138.482 105.845 138.584 105.794C138.685 105.744 138.796 105.713 138.909 105.706C139.137 105.692 139.36 105.768 139.532 105.919C139.703 106.069 139.808 106.282 139.823 106.509L139.987 108.687C139.995 108.801 139.981 108.915 139.945 109.023C139.909 109.131 139.852 109.231 139.778 109.317C139.703 109.402 139.613 109.473 139.511 109.524C139.409 109.574 139.299 109.604 139.185 109.612L139.125 109.621Z" fill="#2D963A"/>
<path d="M212.489 194.336L247.168 229.093V194.336H212.489Z" fill="#2D963A"/>
<path d="M221.997 179.109L220.273 171.763C219.838 169.838 219.838 167.839 220.273 165.913L222.609 155.456C223.589 151.002 223.058 146.348 221.1 142.23C219.142 138.113 215.869 134.769 211.8 132.729C211.869 132.53 211.946 132.348 211.998 132.141C212.285 130.861 212.053 129.519 211.353 128.41C210.653 127.302 209.543 126.518 208.266 126.23C206.989 125.942 205.65 126.175 204.545 126.877C203.439 127.578 202.657 128.692 202.37 129.972C202.327 130.177 202.301 130.385 202.292 130.594C197.743 130.701 193.359 132.326 189.835 135.213C186.311 138.099 183.848 142.082 182.837 146.529L180.501 156.977C180.07 158.904 179.216 160.711 178.001 162.266L173.355 168.186C172.91 168.765 172.618 169.448 172.505 170.17C172.392 170.892 172.462 171.632 172.708 172.32C172.954 173.008 173.369 173.623 173.914 174.109C174.46 174.595 175.118 174.935 175.829 175.099L216.774 184.294C217.49 184.47 218.239 184.459 218.95 184.262C219.661 184.065 220.31 183.688 220.834 183.168C221.358 182.648 221.741 182.001 221.944 181.291C222.148 180.58 222.166 179.829 221.997 179.109Z" fill="white"/>
<path d="M191.078 181.373C190.766 181.304 190.443 181.313 190.136 181.4C189.829 181.486 189.548 181.647 189.318 181.868C189.087 182.09 188.915 182.365 188.816 182.669C188.717 182.973 188.695 183.296 188.75 183.611C188.986 185 189.628 186.287 190.595 187.308C191.562 188.33 192.811 189.04 194.182 189.347C195.553 189.655 196.984 189.547 198.293 189.036C199.603 188.525 200.731 187.636 201.534 186.48C201.717 186.22 201.834 185.918 201.874 185.602C201.914 185.285 201.875 184.964 201.762 184.666C201.649 184.368 201.464 184.103 201.225 183.893C200.985 183.683 200.697 183.536 200.387 183.464L191.078 181.373Z" fill="white"/>
<path d="M159.632 166.786C159.418 166.786 159.208 166.733 159.02 166.632C158.832 166.531 158.672 166.385 158.554 166.207C154.483 160.092 153.001 152.606 154.435 145.396C155.869 138.186 160.101 131.842 166.2 127.76C166.486 127.569 166.835 127.501 167.172 127.569C167.508 127.637 167.803 127.836 167.993 128.122C168.183 128.409 168.251 128.759 168.183 129.096C168.116 129.433 167.917 129.73 167.631 129.92C162.11 133.627 158.282 139.381 156.989 145.915C155.696 152.45 157.043 159.233 160.735 164.772C160.926 165.058 160.996 165.407 160.929 165.744C160.863 166.081 160.666 166.378 160.382 166.57C160.159 166.716 159.898 166.792 159.632 166.786Z" fill="white"/>
<path d="M165.105 163.139C164.894 163.139 164.686 163.087 164.499 162.988C164.313 162.888 164.154 162.744 164.036 162.568C160.935 157.911 159.806 152.209 160.897 146.717C161.988 141.225 165.21 136.393 169.855 133.282C170.139 133.104 170.482 133.045 170.809 133.116C171.137 133.186 171.424 133.382 171.611 133.661C171.797 133.94 171.869 134.28 171.81 134.611C171.751 134.942 171.566 135.237 171.294 135.433C167.219 138.161 164.391 142.4 163.432 147.218C162.474 152.036 163.463 157.039 166.183 161.125C166.373 161.411 166.443 161.76 166.377 162.097C166.311 162.434 166.114 162.731 165.829 162.923C165.614 163.065 165.362 163.14 165.105 163.139Z" fill="white"/>
<path d="M170.588 159.475C170.376 159.476 170.166 159.424 169.979 159.323C169.792 159.222 169.634 159.075 169.519 158.896C168.463 157.311 167.729 155.533 167.36 153.664C166.99 151.794 166.992 149.87 167.365 148.001C167.738 146.133 168.475 144.356 169.534 142.773C170.593 141.191 171.953 139.833 173.536 138.778C173.821 138.601 174.163 138.541 174.49 138.612C174.818 138.682 175.105 138.878 175.292 139.157C175.479 139.436 175.55 139.777 175.491 140.107C175.432 140.438 175.247 140.733 174.976 140.93C173.676 141.798 172.56 142.915 171.692 144.216C170.823 145.517 170.219 146.977 169.914 148.513C169.609 150.048 169.609 151.629 169.914 153.164C170.219 154.7 170.823 156.16 171.691 157.461C171.88 157.747 171.948 158.096 171.882 158.433C171.816 158.769 171.621 159.066 171.338 159.259C171.116 159.405 170.854 159.481 170.588 159.475Z" fill="white"/>
<path d="M234.178 185.054C233.94 185.055 233.706 184.99 233.503 184.866C233.299 184.743 233.133 184.566 233.023 184.354C232.871 184.05 232.845 183.699 232.95 183.375C233.055 183.052 233.282 182.783 233.583 182.626C239.489 179.567 243.941 174.282 245.962 167.933C247.982 161.584 247.405 154.69 244.358 148.768C244.219 148.465 244.202 148.12 244.309 147.805C244.417 147.49 244.642 147.228 244.937 147.075C245.232 146.921 245.575 146.888 245.894 146.981C246.213 147.074 246.484 147.287 246.651 147.575C248.317 150.812 249.33 154.346 249.633 157.976C249.936 161.606 249.523 165.26 248.416 168.729C247.31 172.198 245.532 175.415 243.185 178.196C240.838 180.976 237.968 183.266 234.738 184.933C234.563 185.016 234.371 185.057 234.178 185.054Z" fill="white"/>
<path d="M231.152 179.187C230.863 179.186 230.583 179.088 230.355 178.909C230.128 178.729 229.968 178.479 229.899 178.197C229.831 177.916 229.858 177.619 229.978 177.355C230.097 177.091 230.301 176.875 230.557 176.741C232.714 175.625 234.63 174.095 236.196 172.236C237.762 170.378 238.947 168.229 239.684 165.911C240.422 163.593 240.696 161.153 240.492 158.729C240.288 156.305 239.61 153.945 238.496 151.784C238.339 151.478 238.309 151.121 238.413 150.793C238.517 150.465 238.747 150.192 239.052 150.034C239.358 149.875 239.713 149.845 240.04 149.95C240.368 150.054 240.64 150.285 240.798 150.591C242.068 153.054 242.842 155.745 243.075 158.508C243.308 161.272 242.995 164.054 242.154 166.696C241.313 169.338 239.962 171.788 238.176 173.906C236.39 176.024 234.206 177.769 231.747 179.04C231.563 179.134 231.359 179.184 231.152 179.187Z" fill="white"/>
<path d="M228.126 173.319C227.838 173.314 227.56 173.214 227.335 173.033C227.11 172.853 226.951 172.603 226.883 172.322C226.814 172.041 226.841 171.746 226.959 171.482C227.076 171.219 227.278 171.001 227.531 170.865C228.92 170.149 230.155 169.165 231.164 167.97C232.173 166.775 232.936 165.392 233.411 163.9C233.886 162.408 234.063 160.837 233.931 159.277C233.799 157.717 233.361 156.198 232.643 154.808C232.565 154.657 232.518 154.491 232.505 154.322C232.491 154.152 232.51 153.981 232.563 153.819C232.615 153.657 232.698 153.507 232.808 153.377C232.918 153.247 233.052 153.14 233.203 153.063C233.354 152.985 233.519 152.938 233.689 152.924C233.858 152.91 234.028 152.93 234.19 152.982C234.352 153.034 234.501 153.118 234.631 153.228C234.76 153.338 234.867 153.473 234.945 153.624C236.699 157.047 237.027 161.027 235.857 164.692C234.687 168.357 232.114 171.407 228.704 173.172C228.525 173.264 228.327 173.315 228.126 173.319Z" fill="white"/>
<path d="M152.296 61.2613H145.711C145.539 61.2677 145.375 61.3344 145.247 61.4497C145.12 61.565 145.037 61.7216 145.012 61.8921L143.633 75.0622C143.623 75.1415 143.631 75.2221 143.654 75.2984C143.678 75.3747 143.718 75.4451 143.771 75.5049C143.824 75.5646 143.889 75.6123 143.962 75.6447C144.035 75.6771 144.114 75.6936 144.193 75.693H150.779C150.951 75.6883 151.116 75.6222 151.244 75.5066C151.372 75.391 151.455 75.2334 151.477 75.0622L152.848 61.8921C152.858 61.8135 152.851 61.7337 152.827 61.658C152.804 61.5822 152.765 61.5123 152.713 61.4527C152.661 61.3931 152.597 61.3453 152.525 61.3123C152.453 61.2793 152.375 61.2619 152.296 61.2613Z" fill="#2D963A"/>
<path opacity="0.4" d="M151.701 61.2613H145.711C145.539 61.2677 145.375 61.3344 145.247 61.4497C145.12 61.565 145.037 61.7216 145.012 61.8922L143.633 75.0622C143.623 75.1415 143.631 75.2221 143.654 75.2984C143.678 75.3748 143.718 75.4452 143.771 75.5049C143.824 75.5646 143.889 75.6123 143.962 75.6447C144.035 75.6772 144.114 75.6936 144.193 75.693H150.227C150.399 75.6881 150.562 75.6217 150.689 75.5059C150.816 75.3901 150.896 75.2327 150.917 75.0622L152.296 61.8922C152.308 61.8095 152.302 61.7252 152.276 61.6456C152.251 61.5659 152.209 61.493 152.151 61.4323C152.094 61.3716 152.024 61.3247 151.946 61.2951C151.868 61.2655 151.784 61.2539 151.701 61.2613Z" fill="white"/>
<path d="M119.29 304.786C120.152 304.786 121.014 304.665 121.316 304.259C121.39 304.154 121.429 304.028 121.429 303.9C121.429 303.771 121.39 303.646 121.316 303.541C121.256 303.444 121.177 303.359 121.083 303.292C120.99 303.225 120.885 303.178 120.773 303.152C119.6 302.833 117.221 304.224 117.118 304.284C117.09 304.303 117.069 304.329 117.057 304.36C117.044 304.391 117.042 304.425 117.049 304.457C117.055 304.492 117.072 304.523 117.097 304.548C117.121 304.573 117.153 304.589 117.187 304.596C117.881 304.717 118.585 304.781 119.29 304.786ZM120.342 303.429C120.45 303.429 120.557 303.444 120.661 303.472C120.799 303.502 120.92 303.586 120.997 303.705C121.118 303.904 121.083 304.008 120.997 304.068C120.695 304.518 118.928 304.535 117.626 304.345C118.462 303.861 119.385 303.549 120.342 303.429Z" fill="#2D963A"/>
<path d="M117.17 304.596C117.192 304.604 117.216 304.604 117.239 304.596C118.101 304.224 119.669 302.703 119.506 301.917C119.506 301.726 119.325 301.502 118.868 301.45C118.705 301.432 118.541 301.448 118.385 301.497C118.229 301.546 118.085 301.627 117.963 301.735C117.101 302.47 117.006 304.328 116.997 304.431C116.996 304.462 117.003 304.492 117.016 304.519C117.03 304.546 117.05 304.57 117.075 304.587C117.105 304.599 117.138 304.602 117.17 304.596ZM118.756 301.761H118.85C119.152 301.761 119.178 301.917 119.178 301.951C119.281 302.426 118.195 303.619 117.359 304.129C117.412 303.338 117.714 302.585 118.221 301.977C118.369 301.846 118.558 301.769 118.756 301.761Z" fill="#2D963A"/>
<path d="M116.463 288.228H109.48V304.431H116.463V288.228Z" fill="#FF8B7B"/>
<path d="M58.8467 296.706L65.8203 297.466L70.363 281.729L63.3894 280.978L58.8467 296.706Z" fill="#FF8B7B"/>
<path d="M69.0621 299.056C69.9241 299.281 70.7861 299.376 71.174 299.056C71.2687 298.968 71.3331 298.852 71.3579 298.724C71.3827 298.597 71.3666 298.465 71.3119 298.348C71.2764 298.24 71.2201 298.14 71.1461 298.054C71.0722 297.968 70.982 297.897 70.8809 297.846C69.8034 297.25 67.1312 297.993 67.0191 298.028C66.9863 298.037 66.957 298.056 66.9354 298.082C66.9138 298.108 66.9008 298.141 66.8984 298.175C66.8994 298.209 66.9095 298.242 66.9277 298.271C66.9459 298.3 66.9715 298.323 67.0019 298.339C67.6685 298.632 68.3574 298.872 69.0621 299.056ZM70.424 298.019C70.5298 298.041 70.6316 298.079 70.7257 298.132C70.8535 298.192 70.9524 298.301 71.0016 298.434C71.0705 298.667 71.0016 298.754 71.0016 298.797C70.5878 299.16 68.8552 298.728 67.6225 298.235C68.5334 297.981 69.4851 297.908 70.424 298.019Z" fill="#2D963A"/>
<path d="M67.0357 298.348H67.1047C67.9667 298.192 69.9493 297.138 69.9838 296.343C69.9838 296.153 69.9148 295.893 69.4752 295.738C69.3213 295.677 69.1562 295.651 68.9912 295.66C68.8261 295.668 68.6649 295.713 68.5184 295.79C67.5012 296.274 66.9323 298.054 66.9064 298.132C66.8929 298.157 66.8857 298.185 66.8857 298.214C66.8857 298.242 66.8929 298.27 66.9064 298.296C66.922 298.314 66.942 298.329 66.9645 298.338C66.9871 298.347 67.0116 298.35 67.0357 298.348ZM69.2769 296.023H69.3804C69.6648 296.127 69.6562 296.248 69.6562 296.282C69.6562 296.766 68.277 297.639 67.3288 297.924C67.5675 297.174 68.0386 296.52 68.6735 296.058C68.8639 295.973 69.0782 295.961 69.2769 296.023Z" fill="#2D963A"/>
<path d="M66.1911 296.818L58.5624 294.623C58.4313 294.584 58.2906 294.591 58.1647 294.645C58.0387 294.699 57.9355 294.795 57.8728 294.917L55.0627 300.499C54.9971 300.642 54.9633 300.796 54.9639 300.953C54.9644 301.11 54.9992 301.264 55.0657 301.406C55.1323 301.548 55.229 301.673 55.3492 301.773C55.4693 301.873 55.6098 301.946 55.7609 301.986C58.4331 302.703 59.7692 302.919 63.1224 303.887C65.1826 304.483 69.3805 305.918 72.2337 306.739C75.087 307.56 76.1386 304.872 75.0352 304.284C70.0874 301.649 68.5013 299.523 67.191 297.544C66.9556 297.189 66.6006 296.932 66.1911 296.818Z" fill="#263238"/>
<path d="M116.385 303.619H108.765C108.629 303.617 108.497 303.664 108.393 303.751C108.289 303.838 108.219 303.96 108.196 304.094L107.084 310.316C107.059 310.47 107.068 310.627 107.11 310.778C107.152 310.928 107.226 311.067 107.326 311.185C107.427 311.304 107.553 311.399 107.694 311.463C107.835 311.528 107.989 311.562 108.145 311.561C110.894 311.561 114.86 311.353 118.316 311.353C122.359 311.353 124.566 311.578 129.307 311.578C132.169 311.578 132.841 308.674 131.625 308.407C126.117 307.214 122.936 307.084 118.092 304.163C117.581 303.834 116.992 303.647 116.385 303.619Z" fill="#263238"/>
<path opacity="0.2" d="M116.463 288.228H109.48V296.585H116.463V288.228Z" fill="black"/>
<path opacity="0.2" d="M63.3896 280.978L70.3631 281.738L67.8375 290.466L61.0449 289.092L63.3896 280.978Z" fill="black"/>
<path d="M104.981 127.103C104.981 127.103 101.128 179.912 97.6796 199.944C93.8782 221.885 71.7593 289.058 71.7593 289.058L59.0879 286.742C59.0879 286.742 75.0607 223.657 76.8278 201.932C78.7501 178.357 81.0603 129.756 81.0603 129.756L104.981 127.103Z" fill="#2D963A"/>
<path opacity="0.3" d="M98.4903 149.027C99.1799 146.123 100.766 149.779 102.611 156.113C101.214 171.789 99.4041 189.946 97.6801 199.944C97.2922 202.191 96.706 204.904 95.9561 207.981C96.5939 185.607 96.6198 156.874 98.4903 149.027Z" fill="black"/>
<path d="M118.143 125.634C118.143 125.634 123.203 178.754 123.376 200.091C123.557 222.292 118.997 294.969 118.997 294.969H107.162C107.162 294.969 103.61 223.588 102.136 201.785C100.524 178.02 93.7402 128.33 93.7402 128.33L118.143 125.634Z" fill="#2D963A"/>
<path d="M74.4059 284.789C74.4576 284.789 72.4147 289.386 72.4147 289.386L58.1572 286.794L59.0192 282.516L74.4059 284.789Z" fill="#263238"/>
<path d="M121.066 290.242C121.117 290.242 120.609 295.167 120.609 295.167H106.231L105.645 290.769L121.066 290.242Z" fill="#263238"/>
<path d="M81.4056 78.3028C80.4574 80.1435 79.4144 82.0793 78.4662 83.9891L75.5699 89.7445C74.6303 91.663 73.708 93.5901 72.8201 95.5085C71.9322 97.427 71.0961 99.3628 70.3806 101.281L70.3117 98.2566C70.8171 99.8092 71.4217 101.328 72.1219 102.802C72.4581 103.563 72.8891 104.289 73.2597 105.04C73.6304 105.792 74.1217 106.509 74.5613 107.218C75.4759 108.683 76.4657 110.099 77.5266 111.461C78.0611 112.144 78.5955 112.835 79.1644 113.501C79.7333 114.166 80.354 114.84 80.8884 115.402L81.0608 115.592C81.2795 115.835 81.4483 116.118 81.5575 116.427C81.6668 116.735 81.7143 117.062 81.6975 117.388C81.6807 117.715 81.5998 118.035 81.4595 118.33C81.3192 118.626 81.1222 118.89 80.8798 119.109C80.4929 119.453 80.0098 119.669 79.4962 119.727C78.9827 119.786 78.4635 119.685 78.0093 119.438C77.1183 118.934 76.2551 118.383 75.4233 117.787C74.5613 117.208 73.8028 116.62 73.027 115.989C71.4738 114.709 70.016 113.317 68.6653 111.824C67.2883 110.311 66.0344 108.69 64.9156 106.976C63.7682 105.226 62.7704 103.381 61.933 101.463C61.5642 100.648 61.4999 99.7281 61.752 98.8702L61.8727 98.464C62.5278 96.2114 63.2605 94.0135 64.0708 91.8704C64.8811 89.7272 65.7431 87.6273 66.6568 85.5705C67.5188 83.4965 68.5273 81.4657 69.5359 79.4522C70.5444 77.4387 71.5616 75.4597 72.7253 73.4548C73.3684 72.3024 74.4391 71.4511 75.7048 71.0856C76.9705 70.7202 78.3289 70.8703 79.4849 71.5032C80.6409 72.1361 81.501 73.2008 81.8784 74.4659C82.2558 75.731 82.12 77.0943 81.5004 78.2596L81.4056 78.3028Z" fill="#FF8B7B"/>
<path d="M86.3529 75.2436C86.6977 81.8287 79.2327 93.9444 79.2327 93.9444L63.8633 86.2446C65.7311 80.7832 68.6217 75.7295 72.3798 71.3549C80.5085 62.3329 86.0339 69.1339 86.3529 75.2436Z" fill="#263238"/>
<path d="M75.9404 118.202L79.035 123.387L85.4741 119.256C84.348 117.239 82.5868 115.652 80.4659 114.745C79.9752 114.588 79.4445 114.612 78.9701 114.814C78.4957 115.015 78.109 115.38 77.8799 115.843L75.9404 118.202Z" fill="#FF8B7B"/>
<path d="M81.6125 125.599L84.6037 125.037C84.8558 124.99 85.0961 124.893 85.3107 124.752C85.5253 124.611 85.7099 124.428 85.8541 124.216C85.9983 124.003 86.0991 123.764 86.1508 123.512C86.2025 123.26 86.204 123 86.1553 122.747L85.4743 119.291L79.0352 123.421L79.4662 124.467C79.6436 124.871 79.9524 125.203 80.3422 125.409C80.732 125.614 81.1798 125.681 81.6125 125.599Z" fill="#FF8B7B"/>
<path d="M99.7745 42.0939C99.8348 42.6557 100.188 43.0964 100.55 43.0618C100.912 43.0273 101.154 42.552 101.085 41.9902C101.016 41.4285 100.671 40.9878 100.309 41.0137C99.9469 41.0396 99.7055 41.5236 99.7745 42.0939Z" fill="#263238"/>
<path d="M100.137 43.0964C101.007 44.773 102.094 46.3274 103.369 47.7197C102.507 48.7394 100.783 48.4456 100.783 48.4456L100.137 43.0964Z" fill="#FF5652"/>
<path d="M97.3613 39.1125C97.406 39.117 97.4512 39.1124 97.4941 39.099C97.5371 39.0857 97.5769 39.0638 97.6113 39.0347C97.9101 38.7542 98.2732 38.5515 98.6685 38.4445C99.0638 38.3375 99.4792 38.3295 99.8783 38.4212C99.9197 38.4328 99.9629 38.436 100.005 38.4305C100.048 38.425 100.089 38.4109 100.126 38.3891C100.163 38.3673 100.195 38.3383 100.221 38.3037C100.247 38.2691 100.265 38.2297 100.275 38.1878C100.294 38.1032 100.281 38.0145 100.238 37.9392C100.194 37.864 100.125 37.8077 100.042 37.7817C99.5382 37.6588 99.0119 37.6624 98.5098 37.792C98.0076 37.9216 97.545 38.1733 97.163 38.5249C97.1174 38.5704 97.0854 38.6279 97.0707 38.6908C97.0559 38.7536 97.0591 38.8194 97.0797 38.8806C97.1003 38.9417 97.1377 38.9959 97.1874 39.0369C97.2372 39.0779 97.2974 39.1041 97.3613 39.1125Z" fill="#263238"/>
<path d="M82.3965 48.3938C84.0429 53.3887 86.2324 62.6181 83.1119 66.3081C83.1119 66.3081 85.1635 71.3462 94.611 70.5512C105.015 69.687 98.921 64.9773 98.921 64.9773C93.0767 64.1131 92.6801 59.8873 93.1629 55.8516L82.3965 48.3938Z" fill="#FF8B7B"/>
<path d="M80.8793 68.0969C79.9052 66.5328 78.8191 64.7439 80.6638 64.0785C82.6895 63.344 94.0679 62.1514 98.1193 63.1452C102.171 64.139 101.343 67.4661 101.343 67.4661L80.8793 68.0969Z" fill="#2D963A"/>
<path d="M114.196 70.2055C115.679 71.5709 117.282 73.0746 118.877 74.4659C120.471 75.8572 122.083 77.2658 123.704 78.6312C125.325 79.9966 126.98 81.2842 128.643 82.5373C130.307 83.7904 131.996 84.9224 133.686 85.9508L130.238 85.631C131.671 85.2479 133.027 84.6193 134.246 83.7731C135.667 82.7857 136.989 81.6628 138.194 80.4201C139.486 79.0876 140.698 77.6794 141.823 76.2029C142.401 75.4597 142.978 74.6992 143.547 73.9128C144.116 73.1264 144.633 72.2968 145.107 71.5709L145.202 71.4327C145.53 70.9342 146.025 70.57 146.598 70.4061C147.171 70.2421 147.783 70.2893 148.324 70.539C148.865 70.7888 149.299 71.2246 149.547 71.7674C149.795 72.3103 149.841 72.9242 149.676 73.498C149.348 74.6215 149.004 75.5807 148.607 76.5918C148.211 77.6029 147.797 78.5794 147.331 79.5473C146.384 81.5195 145.28 83.4124 144.03 85.2076C142.714 87.1088 141.181 88.849 139.461 90.3926C137.558 92.0959 135.35 93.4214 132.953 94.2987C132.439 94.4805 131.894 94.558 131.349 94.5268C130.804 94.4957 130.272 94.3565 129.781 94.1172L129.497 93.9703C127.354 92.9162 125.276 91.736 123.273 90.4359C121.316 89.1655 119.42 87.8433 117.592 86.4347C115.765 85.0261 113.998 83.5829 112.274 82.1138C110.55 80.6448 108.886 79.0547 107.162 77.335C106.268 76.3997 105.769 75.1535 105.771 73.8578C105.774 72.5621 106.276 71.3175 107.174 70.3853C108.071 69.453 109.294 68.9054 110.586 68.8574C111.877 68.8094 113.137 69.2647 114.101 70.1278L114.196 70.2055Z" fill="#FF8B7B"/>
<path d="M108.929 65.7205C108.929 65.7205 117.618 74.1807 118.627 126.455C104.731 129.825 91.3614 131.078 81.0347 129.756C80.5433 123.205 79.8106 100.443 73.1732 76.4362C72.8868 75.4254 72.8133 74.3659 72.9576 73.3251C73.1019 72.2843 73.4608 71.285 74.0113 70.3909C74.5619 69.4967 75.2921 68.7272 76.1555 68.1315C77.0189 67.5357 77.9965 67.1266 79.0262 66.9303C80.3451 66.671 81.7329 66.4377 83.1121 66.2476C88.3523 65.5033 93.6306 65.0589 98.9212 64.9168C102.272 64.9419 105.617 65.2105 108.929 65.7205Z" fill="#263238"/>
<path d="M102.188 74.8288C103.05 81.3706 114.256 93.9444 114.256 93.9444L127.557 80.1176C123.605 75.9576 119.334 72.1147 114.782 68.6241C105.033 61.3564 101.413 68.7623 102.188 74.8288Z" fill="#263238"/>
<path d="M148.814 75.7967L153.261 71.7265L147.934 66.239C146.172 67.7432 144.959 69.7922 144.486 72.0635C144.426 72.5833 144.555 73.1075 144.849 73.5395C145.144 73.9714 145.584 74.2821 146.09 74.4141L148.814 75.7967Z" fill="#FF8B7B"/>
<path d="M154.9 68.7278L153.753 65.9019C153.655 65.661 153.509 65.4422 153.325 65.2583C153.14 65.0745 152.922 64.9292 152.681 64.8311C152.44 64.733 152.182 64.6839 151.922 64.6867C151.663 64.6895 151.406 64.7442 151.167 64.8476L147.9 66.2217L153.262 71.7264L154.193 71.087C154.566 70.8371 154.84 70.4651 154.969 70.0346C155.098 69.6042 155.074 69.1421 154.9 68.7278Z" fill="#FF8B7B"/>
<path d="M81.0696 42.3446C82.3195 49.2579 82.6988 53.3541 86.5778 56.6466C92.4135 61.5984 100.465 57.7441 101.232 50.6752C101.956 44.3235 99.7922 34.083 92.7755 31.8448C85.7589 29.6066 79.8197 35.4312 81.0696 42.3446Z" fill="#FF8B7B"/>
<path d="M94.663 44.8679C97.0853 45.4296 98.9731 42.6211 99.2317 41.826C98.0507 41.9384 95.9561 41.3248 95.5423 40.7977C96.8353 40.91 98.0852 39.3113 98.2403 38.6977C96.8661 38.4326 95.65 37.6385 94.8527 36.4854C96.9473 36.4854 99.4644 32.7522 97.1628 29.4424C94.8613 26.1326 85.2414 28.9066 83.8708 26.5388C81.8537 27.7227 83.6467 29.2869 83.6467 29.2869C83.6467 29.2869 70.0357 31.8794 76.3111 37.1336C71.708 37.557 71.0615 43.01 74.8974 45.7753C78.7333 48.5407 78.9316 50.3814 77.4058 50.148C78.0178 51.332 80.7504 51.4875 80.9055 50.3382C81.552 52.7406 83.4139 55.9812 87.7067 55.4454C91.9995 54.9096 96.2233 48.9123 94.663 44.8679Z" fill="#263238"/>
<path d="M77.5174 36.3385C74.2763 36.7879 72.8023 34.9558 73.6126 33.3398C69.5957 35.4311 73.9833 39.9421 77.5174 36.3385Z" fill="#263238"/>
<path d="M91.3096 43.8223C91.8675 45.2682 92.8544 46.5079 94.137 47.374C95.861 48.5147 97.4212 47.374 97.1282 45.6457C96.8609 44.0556 95.6455 41.5409 93.8525 41.0915C93.4803 40.9681 93.0805 40.9543 92.7007 41.0517C92.3208 41.1491 91.9767 41.3535 91.7091 41.6408C91.4416 41.9282 91.2618 42.2863 91.191 42.6729C91.1202 43.0596 91.1613 43.4584 91.3096 43.8223Z" fill="#FF8B7B"/>
<path d="M310.405 287.39C304.026 272.301 301.449 254.551 308.75 255.294C316.24 256.02 315.361 282.775 316.577 285.713C314.241 287.77 310.405 287.39 310.405 287.39Z" fill="#2D963A"/>
<path d="M312.473 258.768C310.904 264.515 309.241 273.416 307.974 280.952C308.698 283.112 309.517 285.273 310.404 287.398C310.404 287.398 314.232 287.727 316.585 285.713C315.62 283.397 315.964 266.252 312.473 258.768Z" fill="#263238"/>
<path d="M312.508 284.633C310.508 252.564 315.956 222.853 330.299 224.193C342.609 225.351 324.662 279.327 325.007 285.549C319.369 287.77 312.508 284.633 312.508 284.633Z" fill="#2D963A"/>
<path d="M321.8 284.417C324.05 261.378 336.178 234.485 341.384 243.472C347.996 254.871 331.04 282.049 330.584 286.517C326.343 287.424 321.8 284.417 321.8 284.417Z" fill="#2D963A"/>
<path d="M319.533 232.748C318.076 232.515 317.266 231.599 317.361 230.32C317.464 228.868 318.654 227.425 319.757 227.407C320.292 227.407 321.188 227.675 321.412 229.68L320.55 229.775C320.447 228.833 320.162 228.272 319.783 228.272C319.197 228.272 318.301 229.343 318.232 230.38C318.171 231.244 318.654 231.728 319.68 231.901L319.533 232.748Z" fill="#2D963A"/>
<path d="M335.015 238.564C334.389 238.509 333.792 238.278 333.291 237.899L333.756 237.181C334.558 237.7 335.178 237.838 335.42 237.536C335.782 237.078 335.532 235.712 334.782 234.995C334.179 234.407 333.472 234.459 332.687 235.142L332.127 234.494C332.329 234.266 332.574 234.082 332.849 233.952C333.123 233.822 333.421 233.749 333.724 233.736C334.028 233.724 334.33 233.774 334.614 233.882C334.898 233.989 335.157 234.154 335.377 234.364C336.428 235.367 336.782 237.207 336.092 238.08C335.965 238.242 335.8 238.37 335.613 238.455C335.425 238.539 335.22 238.576 335.015 238.564Z" fill="#2D963A"/>
<path d="M313.887 251.604C313.365 251.642 312.848 251.487 312.432 251.168C312.016 250.85 311.73 250.391 311.629 249.876C311.284 248.467 311.973 246.722 313.025 246.367C313.516 246.195 314.465 246.186 315.292 248.027L314.499 248.381C314.111 247.517 313.637 247.059 313.301 247.18C312.749 247.37 312.223 248.666 312.439 249.669C312.637 250.49 313.301 250.827 314.284 250.671L314.413 251.535C314.239 251.569 314.064 251.592 313.887 251.604Z" fill="#2D963A"/>
<path d="M304.706 269.501C304.285 269.51 303.871 269.391 303.519 269.16C303.166 268.929 302.892 268.596 302.732 268.205C302.129 266.892 302.482 265.051 303.439 264.498C303.896 264.239 304.827 264.048 305.982 265.699L305.275 266.2C304.723 265.414 304.198 265.06 303.87 265.25C303.361 265.543 303.086 266.909 303.517 267.842C303.87 268.611 304.542 268.819 305.516 268.473L305.801 269.294C305.45 269.422 305.08 269.492 304.706 269.501Z" fill="#2D963A"/>
<path d="M319.981 243.412C319.892 243.412 319.805 243.385 319.731 243.334C319.202 243.029 318.797 242.546 318.589 241.97C318.38 241.394 318.382 240.763 318.594 240.189C318.844 239.615 319.272 239.138 319.813 238.827C320.355 238.516 320.982 238.387 321.602 238.46C322.136 238.564 323.386 239.039 323.472 241.338C323.472 241.453 323.427 241.562 323.346 241.644C323.265 241.725 323.156 241.77 323.041 241.77C322.927 241.77 322.818 241.725 322.737 241.644C322.656 241.562 322.61 241.453 322.61 241.338C322.559 240.137 322.154 239.411 321.447 239.281C321.018 239.247 320.589 239.347 320.22 239.569C319.85 239.79 319.559 240.122 319.387 240.517C319.076 241.252 319.387 241.995 320.249 242.608C320.324 242.661 320.381 242.737 320.41 242.824C320.44 242.911 320.441 243.006 320.413 243.094C320.385 243.182 320.329 243.258 320.255 243.312C320.18 243.367 320.091 243.395 319.999 243.395L319.981 243.412Z" fill="white"/>
<path d="M330.196 266.736C330.097 266.737 330.001 266.703 329.925 266.64C329.849 266.577 329.799 266.488 329.782 266.39C329.769 266.335 329.768 266.278 329.778 266.223C329.787 266.167 329.808 266.114 329.839 266.066C329.869 266.019 329.909 265.978 329.955 265.946C330.002 265.914 330.054 265.892 330.11 265.881C331.282 265.639 331.928 265.103 331.946 264.394C331.905 263.964 331.734 263.557 331.455 263.228C331.176 262.898 330.802 262.663 330.386 262.553C329.61 262.372 328.92 262.795 328.463 263.746C328.438 263.797 328.404 263.843 328.361 263.88C328.319 263.918 328.269 263.947 328.216 263.965C328.162 263.984 328.105 263.991 328.049 263.988C327.992 263.984 327.937 263.97 327.886 263.945C327.835 263.92 327.789 263.885 327.752 263.842C327.714 263.8 327.685 263.75 327.667 263.696C327.649 263.643 327.641 263.586 327.644 263.529C327.648 263.472 327.663 263.417 327.687 263.366C327.89 262.786 328.295 262.3 328.827 261.996C329.359 261.693 329.984 261.593 330.584 261.715C331.193 261.865 331.738 262.207 332.139 262.691C332.539 263.175 332.774 263.775 332.808 264.403C332.808 264.947 332.532 266.261 330.291 266.727L330.196 266.736Z" fill="white"/>
<path d="M342.315 259.451C341.815 259.451 341.151 259.157 340.41 258.042L341.126 257.559C341.66 258.354 342.169 258.717 342.505 258.535C343.022 258.25 343.367 256.893 342.91 255.943C342.582 255.165 341.91 254.94 340.927 255.268L340.66 254.448C342.057 253.981 343.194 254.447 343.703 255.597C344.281 256.936 343.893 258.76 342.919 259.296C342.735 259.4 342.526 259.453 342.315 259.451Z" fill="#2D963A"/>
<path d="M339.747 292.886C339.753 288.274 338.104 283.814 335.101 280.321C335.394 280.274 335.662 280.126 335.857 279.902C336.053 279.677 336.163 279.391 336.17 279.094C336.167 278.755 336.032 278.431 335.793 278.192C335.555 277.953 335.231 277.817 334.894 277.815H306.034C305.697 277.817 305.375 277.953 305.138 278.192C304.9 278.432 304.767 278.756 304.767 279.094C304.77 279.394 304.881 279.683 305.079 279.908C305.276 280.133 305.548 280.28 305.844 280.321C303.957 282.519 302.588 285.116 301.84 287.918C301.091 290.721 300.983 293.656 301.522 296.506C302.061 299.356 303.234 302.047 304.954 304.38C306.674 306.713 308.896 308.627 311.456 309.979C311.177 310.123 310.955 310.357 310.825 310.644C310.695 310.93 310.665 311.252 310.739 311.557C310.814 311.862 310.989 312.134 311.236 312.327C311.484 312.521 311.789 312.625 312.103 312.624H328.817C329.13 312.625 329.435 312.521 329.683 312.327C329.93 312.134 330.105 311.862 330.18 311.557C330.254 311.252 330.224 310.93 330.094 310.644C329.964 310.357 329.742 310.123 329.463 309.979C332.567 308.338 335.165 305.879 336.977 302.867C338.789 299.855 339.747 296.404 339.747 292.886Z" fill="#263238"/>
</svg>
