<svg width="31" height="25" viewBox="0 0 31 25" fill="none" xmlns="http://www.w3.org/2000/svg">
<path d="M0 18.9636C0.119719 18.2989 0.247528 17.6358 0.358349 16.9703C0.694318 14.9698 1.02597 12.967 1.35331 10.9622C1.37731 10.8129 1.38921 10.6619 1.3889 10.5107C1.3889 7.71954 1.3889 4.92866 1.3889 2.13806C1.3889 0.881636 2.15333 0.111572 3.40067 0.111572H20.6572C21.8949 0.111572 22.6674 0.87353 22.669 2.10888C22.6733 5.72953 22.6733 9.35018 22.669 12.9708C22.669 14.1867 21.8924 14.9568 20.6766 14.9576C16.0448 14.9576 11.4132 14.9603 6.78193 14.9657C6.58498 14.9685 6.39243 15.0245 6.22459 15.1278C4.23466 16.3932 2.25202 17.6755 0.266942 18.953C0.180345 19.0017 0.0912403 19.0458 0 19.0851L0 18.9636ZM12.2283 7.53418C13.7809 7.53418 15.3332 7.53418 16.8853 7.53418C17.0147 7.53418 17.1773 7.55363 17.2663 7.48716C17.3965 7.38989 17.547 7.22453 17.5526 7.08187C17.5583 6.9392 17.4208 6.76249 17.2986 6.65631C17.2177 6.58578 17.0495 6.59713 16.9209 6.59632C13.8168 6.59632 10.7124 6.59632 7.60783 6.59632C7.48892 6.59632 7.33199 6.57849 7.25838 6.64415C7.1188 6.75628 7.01619 6.90798 6.96394 7.07944C6.91864 7.28452 7.06424 7.44582 7.27375 7.49851C7.40157 7.52575 7.53224 7.53718 7.66284 7.53256C9.18468 7.53688 10.7065 7.53823 12.2283 7.53661V7.53418ZM12.2526 4.27964H16.0974C16.4404 4.27964 16.7842 4.28775 17.1271 4.27559C17.188 4.2765 17.2483 4.26478 17.3044 4.24118C17.3605 4.21757 17.4111 4.18259 17.4531 4.13843C17.495 4.09427 17.5274 4.04189 17.5481 3.98458C17.5689 3.92728 17.5776 3.86629 17.5737 3.80545C17.5672 3.5566 17.3957 3.38475 17.1296 3.36286C17.0697 3.358 17.009 3.36286 16.9484 3.36286H7.56334C7.48245 3.36286 7.38376 3.33936 7.32067 3.37664C7.19205 3.4577 7.02461 3.55092 6.98173 3.67575C6.96227 3.75063 6.96009 3.82897 6.97537 3.90482C6.99064 3.98067 7.02298 4.05203 7.06991 4.11347C7.1976 4.22069 7.35956 4.27824 7.52613 4.27559C9.10432 4.28694 10.6777 4.28208 12.2526 4.28208V4.27964ZM12.2308 10.7725H16.8618C16.9524 10.7782 17.0434 10.7758 17.1336 10.7652C17.3868 10.7198 17.5308 10.5569 17.5251 10.3032C17.5195 10.0495 17.3771 9.89139 17.1207 9.85815C17.0502 9.85206 16.9794 9.85043 16.9087 9.85329H7.58357C7.50267 9.85329 7.40156 9.82654 7.34575 9.86464C7.20661 9.96029 7.0149 10.0681 6.98173 10.2043C6.94857 10.3405 7.0424 10.552 7.14352 10.6728C7.21632 10.7539 7.40075 10.7684 7.53503 10.7693C9.10351 10.7766 10.6671 10.7749 12.2308 10.7749V10.7725Z" fill="#333333" fill-opacity="0.3"/>
<path d="M31.0001 24.2194L28.3266 22.4993C27.1472 21.7398 25.9711 20.9754 24.7852 20.2296C24.6183 20.1249 24.4263 20.0673 24.2295 20.0626C19.5977 20.0529 14.9655 20.0502 10.3332 20.0545C9.34468 20.0545 8.60371 19.526 8.39178 18.6465C8.34244 18.3793 8.32209 18.1075 8.33111 17.8359C8.32302 17.1996 8.33111 16.5633 8.33111 15.8775H8.73071C12.7365 15.8775 16.7427 15.8775 20.7496 15.8775C22.1296 15.8775 23.2281 15.0191 23.5225 13.7141C23.5789 13.4476 23.6061 13.1758 23.6034 12.9035C23.6093 10.4863 23.6093 8.06936 23.6034 5.65271V5.24741C23.7134 5.23687 23.8153 5.21823 23.9173 5.21823C25.1576 5.21823 26.3979 5.21823 27.6383 5.21823C28.8314 5.21823 29.6072 6.00207 29.6088 7.19689C29.6088 9.45196 29.6411 11.7078 29.5975 13.9621C29.5691 15.4074 29.7495 16.8203 30.0019 18.2356C30.3473 20.1964 30.6579 22.171 31.0001 24.2194Z" fill="#333333" fill-opacity="0.3"/>
</svg>
