<svg width="20" height="20" viewBox="0 0 20 20" fill="none" xmlns="http://www.w3.org/2000/svg">
<path d="M15.625 2.5H12.5C12.5 1.12109 11.3789 0 10 0C8.62109 0 7.5 1.12109 7.5 2.5H4.375C3.33984 2.5 2.5 3.33984 2.5 4.375V18.125C2.5 19.1602 3.33984 20 4.375 20H15.625C16.6602 20 17.5 19.1602 17.5 18.125V4.375C17.5 3.33984 16.6602 2.5 15.625 2.5ZM6.25 16.5625C5.73047 16.5625 5.3125 16.1445 5.3125 15.625C5.3125 15.1055 5.73047 14.6875 6.25 14.6875C6.76953 14.6875 7.1875 15.1055 7.1875 15.625C7.1875 16.1445 6.76953 16.5625 6.25 16.5625ZM6.25 12.8125C5.73047 12.8125 5.3125 12.3945 5.3125 11.875C5.3125 11.3555 5.73047 10.9375 6.25 10.9375C6.76953 10.9375 7.1875 11.3555 7.1875 11.875C7.1875 12.3945 6.76953 12.8125 6.25 12.8125ZM6.25 9.0625C5.73047 9.0625 5.3125 8.64453 5.3125 8.125C5.3125 7.60547 5.73047 7.1875 6.25 7.1875C6.76953 7.1875 7.1875 7.60547 7.1875 8.125C7.1875 8.64453 6.76953 9.0625 6.25 9.0625ZM10 1.5625C10.5195 1.5625 10.9375 1.98047 10.9375 2.5C10.9375 3.01953 10.5195 3.4375 10 3.4375C9.48047 3.4375 9.0625 3.01953 9.0625 2.5C9.0625 1.98047 9.48047 1.5625 10 1.5625ZM15 15.9375C15 16.1094 14.8594 16.25 14.6875 16.25H9.0625C8.89062 16.25 8.75 16.1094 8.75 15.9375V15.3125C8.75 15.1406 8.89062 15 9.0625 15H14.6875C14.8594 15 15 15.1406 15 15.3125V15.9375ZM15 12.1875C15 12.3594 14.8594 12.5 14.6875 12.5H9.0625C8.89062 12.5 8.75 12.3594 8.75 12.1875V11.5625C8.75 11.3906 8.89062 11.25 9.0625 11.25H14.6875C14.8594 11.25 15 11.3906 15 11.5625V12.1875ZM15 8.4375C15 8.60938 14.8594 8.75 14.6875 8.75H9.0625C8.89062 8.75 8.75 8.60938 8.75 8.4375V7.8125C8.75 7.64062 8.89062 7.5 9.0625 7.5H14.6875C14.8594 7.5 15 7.64062 15 7.8125V8.4375Z" fill="#333333"/>
</svg>
