<svg width="282" height="152" viewBox="0 0 282 152" fill="none" xmlns="http://www.w3.org/2000/svg">
<path d="M7.16748 120.029L40.5346 119.875L73.9018 119.817L140.63 119.715L207.358 119.817L240.725 119.875L274.092 120.029L240.725 120.189L207.358 120.246L140.63 120.349L73.9018 120.246L40.5346 120.189L7.16748 120.029Z" fill="#263238"/>
<path d="M140.63 152C218.297 152 281.259 144.115 281.259 134.388C281.259 124.661 218.297 116.776 140.63 116.776C62.9621 116.776 0 124.661 0 134.388C0 144.115 62.9621 152 140.63 152Z" fill="#EBEBEB"/>
<path d="M25.5981 138.415L119.524 138.818C142.358 120.893 144.713 94.3183 128.426 78.2109C118.57 68.4735 106.027 70.4389 94.1307 68.8897C89.9203 68.4423 85.8251 67.2387 82.042 65.3366C69.7677 58.8642 62.8434 43.5699 52.5274 30.7275C51.2474 29.1206 49.8971 27.5266 48.4828 26.0413C39.9907 16.9697 23.0959 16.6752 14.2518 29.4279C-8.21058 61.8219 2.07986 110.042 25.5981 138.415Z" fill="#C7C7C7"/>
<path d="M23.5182 64.2866C25.982 102.839 70.4844 117.231 98.2775 105.682C122.449 95.6371 114.539 72.718 94.137 68.8897C89.9267 68.4423 85.8315 67.2387 82.0483 65.3366C69.774 58.8642 62.8497 43.5699 52.5337 30.7275C37.1172 22.7315 21.7584 36.0604 23.5182 64.2866Z" fill="#DBDBDB"/>
<path d="M111.742 144.254C110.289 143.722 77.4663 117.474 76.8455 115.682C76.6024 115.003 80.1477 109.997 84.5954 104.075C85.5617 102.794 86.56 101.476 87.584 100.144C94.2203 91.5014 101.458 82.481 101.458 82.481L123.466 99.9712L108.99 117.154L105.791 120.931C105.791 120.931 113.867 136.603 114.334 138.645C114.801 140.688 113.195 144.785 111.742 144.254Z" fill="#F7A9A0"/>
<path d="M111.742 144.254C110.29 143.722 77.4664 117.474 76.8456 115.682C76.5576 114.856 81.8436 107.641 87.584 100.144L108.99 117.154L105.791 120.931C105.791 120.931 113.867 136.603 114.334 138.645C114.801 140.688 113.195 144.785 111.742 144.254Z" fill="white"/>
<path d="M111.742 144.254C110.289 143.722 77.4663 117.474 76.8455 115.682C76.6024 115.003 80.1477 109.997 84.5954 104.075L105.81 120.931C105.81 120.931 113.886 136.603 114.353 138.645C114.82 140.688 113.195 144.785 111.742 144.254Z" fill="#1F842A"/>
<path d="M112.325 142.57C106.93 138.037 84.7426 120.253 79.047 116.181C78.9958 116.181 78.9766 116.181 79.047 116.219C84.2946 120.829 106.629 138.428 112.261 142.66C112.369 142.743 112.433 142.659 112.325 142.57Z" fill="#263238"/>
<path d="M113.188 135.771C112.588 135.268 111.891 134.895 111.14 134.675C110.389 134.455 109.6 134.392 108.824 134.491C107.424 134.661 106.144 135.362 105.247 136.45C105.247 136.482 105.247 136.533 105.311 136.501C106.37 135.562 107.704 134.993 109.114 134.877C110.524 134.762 111.933 135.107 113.131 135.861C113.14 135.87 113.153 135.875 113.166 135.875C113.179 135.875 113.192 135.87 113.201 135.861C113.213 135.859 113.224 135.853 113.231 135.843C113.238 135.833 113.241 135.821 113.24 135.809C113.238 135.798 113.232 135.787 113.222 135.78C113.212 135.772 113.2 135.769 113.188 135.771Z" fill="#263238"/>
<path d="M107.512 123.185C105.336 121.392 102.162 120.131 99.3527 120.835C99.2439 120.867 99.2887 121.021 99.3527 121.04C102.101 121.565 104.785 122.385 107.359 123.486C107.397 123.496 107.437 123.492 107.473 123.476C107.509 123.46 107.539 123.432 107.557 123.397C107.575 123.362 107.58 123.322 107.572 123.283C107.564 123.244 107.543 123.21 107.512 123.185Z" fill="#263238"/>
<path d="M108.677 125.208C106.501 123.415 103.327 122.154 100.517 122.858C100.409 122.89 100.447 123.044 100.517 123.063C103.248 123.594 105.914 124.414 108.472 125.509C108.492 125.522 108.514 125.532 108.537 125.536C108.561 125.541 108.585 125.542 108.608 125.537C108.632 125.533 108.654 125.524 108.674 125.51C108.694 125.497 108.711 125.48 108.725 125.461C108.738 125.441 108.748 125.419 108.753 125.395C108.757 125.372 108.758 125.348 108.753 125.324C108.749 125.301 108.74 125.278 108.727 125.258C108.713 125.238 108.697 125.221 108.677 125.208Z" fill="#263238"/>
<path d="M109.848 127.205C107.672 125.413 104.498 124.151 101.689 124.856C101.58 124.888 101.618 125.041 101.689 125.06C104.419 125.592 107.086 126.412 109.643 127.506C109.683 127.533 109.732 127.543 109.78 127.534C109.827 127.525 109.869 127.498 109.896 127.458C109.923 127.418 109.933 127.369 109.924 127.322C109.915 127.274 109.888 127.232 109.848 127.205Z" fill="#263238"/>
<path d="M111.019 129.254C108.843 127.461 105.669 126.2 102.86 126.904C102.751 126.904 102.789 127.09 102.86 127.103C105.59 127.636 108.257 128.458 110.814 129.555C110.834 129.568 110.855 129.578 110.878 129.583C110.901 129.588 110.925 129.588 110.948 129.584C110.972 129.58 110.994 129.571 111.014 129.558C111.033 129.546 111.05 129.529 111.064 129.51C111.091 129.47 111.102 129.421 111.094 129.373C111.085 129.325 111.059 129.282 111.019 129.254Z" fill="#263238"/>
<path d="M84.6402 112.071C82.1636 110.099 79.1046 113.947 81.5813 115.912C84.0579 117.878 87.1233 114.043 84.6402 112.071Z" fill="white"/>
<path d="M114.584 119.209C114.212 117.391 112.081 117.173 110.629 117.583C108.146 118.335 105.904 119.726 104.127 121.616C104.12 121.623 104.114 121.632 104.11 121.641C104.106 121.651 104.104 121.661 104.104 121.671C104.104 121.681 104.106 121.691 104.11 121.7C104.114 121.709 104.12 121.718 104.127 121.725C104.106 121.764 104.093 121.808 104.089 121.852C104.086 121.896 104.091 121.941 104.104 121.984C104.118 122.026 104.14 122.065 104.169 122.099C104.198 122.132 104.234 122.16 104.274 122.18C104.308 122.199 104.344 122.212 104.383 122.218C106.815 122.384 109.4 122.858 111.813 122.288C113.272 121.956 114.942 120.925 114.584 119.209ZM108.152 121.732C106.949 121.68 105.759 121.565 104.556 121.559C105.795 120.735 107.077 119.976 108.395 119.286C109.039 118.961 109.704 118.679 110.386 118.441C111.448 118.095 115.083 117.98 113.387 120.554C112.472 121.975 109.573 121.796 108.152 121.732Z" fill="#263238"/>
<path d="M98.0025 118.063C99.6855 119.888 102.098 120.925 104.216 122.135C104.297 122.175 104.39 122.181 104.475 122.152C104.561 122.123 104.631 122.062 104.671 121.981C104.687 121.945 104.698 121.906 104.703 121.866C104.748 121.866 104.792 121.866 104.786 121.783C104.35 119.218 103.246 116.814 101.586 114.811C100.607 113.659 98.7192 112.66 97.3945 113.96C96.0698 115.259 97.0169 116.994 98.0025 118.063ZM97.6761 115.746C97.6761 112.66 100.652 114.779 101.343 115.656C101.778 116.23 102.174 116.834 102.527 117.461C103.236 118.772 103.877 120.118 104.447 121.495C103.442 120.854 102.393 120.265 101.362 119.638C100.159 118.883 97.6633 117.442 97.6761 115.746Z" fill="#263238"/>
<path d="M145.698 66.3353C144.194 77.7756 116.011 110.797 112.753 114.587L111.992 115.445L88.6847 97.5193L88.9535 97.1735L109.477 70.2853L48.2461 69.9268L71.4956 51.8476C71.4956 51.8476 73.4154 52.936 77.3 52.3662C90.8158 50.388 121.284 46.0026 128.496 46.2907C137.75 46.6748 147.08 55.836 145.698 66.3353Z" fill="#37474F"/>
<path d="M116.868 60.2982C116.105 61.1572 115.398 62.0639 114.75 63.0127C114.027 63.9602 113.291 64.9333 112.561 65.8551V65.8871C112.689 65.6055 112.817 65.3302 112.952 65.0485C113.406 64.101 113.771 63.1279 114.315 62.2188C114.347 62.1612 114.264 62.11 114.232 62.1676C113.675 63.0639 113.028 63.9217 112.555 64.8692C112.331 65.311 112.12 65.7655 111.915 66.22C111.806 66.4697 111.691 66.7258 111.595 66.9819C111.55 67.0971 111.499 67.2188 111.461 67.3468C111.141 67.7885 110.821 68.2303 110.507 68.6848C109.816 69.6835 109.227 70.7462 108.504 71.7385C108.466 71.7898 108.555 71.841 108.594 71.7898C109.298 70.8551 110.091 69.9844 110.814 69.0561C111.537 68.1278 112.241 67.1355 112.926 66.1624C113.611 65.1893 114.251 64.2418 114.923 63.2944C115.657 62.3547 116.33 61.3689 116.939 60.343C116.94 60.3342 116.939 60.325 116.936 60.3167C116.932 60.3085 116.926 60.3014 116.919 60.2966C116.911 60.2918 116.902 60.2893 116.893 60.2896C116.884 60.2899 116.875 60.2929 116.868 60.2982Z" fill="#263238"/>
<path d="M51.6762 2.83417C46.8189 6.67535 42.0129 31.643 40.157 34.4215C38.8323 36.3741 37.1684 38.3267 37.2452 39.4278C37.322 40.529 41.9809 45.945 50.793 47.6479C59.6052 49.3509 68.2894 45.1448 69.1725 44.0372C70.0556 42.9297 67.7326 39.1269 67.8222 35.7147C67.9118 32.3024 70.958 13.5703 69.1021 7.98776C66.9583 1.65621 57.2502 -1.54477 51.6762 2.83417Z" fill="#263238"/>
<path d="M69.7549 42.9745C68.8091 40.7405 68.3719 38.3241 68.475 35.9003C68.5262 33.1667 68.8718 30.433 69.1725 27.7186C69.4925 24.8548 69.8104 21.991 70.1261 19.1272C70.4013 16.5984 70.766 14.044 70.2925 11.5216C69.8568 9.07443 68.7816 6.78615 67.1759 4.88919C67.1759 4.88919 67.1055 4.88919 67.1311 4.9212C68.6212 6.86145 69.6163 9.13573 70.0301 11.5472C70.4844 14.2489 70.0301 17.0081 69.7421 19.7161C69.4221 22.5266 69.1021 25.3307 68.8014 28.1411C68.5198 30.7019 68.1998 33.3267 68.1614 35.9259C68.1614 38.3203 68.3726 40.9835 69.6461 43.0449C69.6845 43.1217 69.8189 43.0577 69.7549 42.9745Z" fill="#263238"/>
<path d="M52.4762 2.66771C50.2236 3.89048 49.1229 6.31042 48.2205 8.63434C47.0046 11.7905 45.8847 14.9915 44.8352 18.2373C43.7857 21.4831 42.8513 24.9401 41.7826 28.2692C40.7024 31.501 39.159 34.5589 37.2006 37.3472C37.1558 37.4112 37.2006 37.488 37.2902 37.4304C41.4818 32.5201 42.7745 25.9068 44.6944 19.8762C45.7567 16.5472 46.8766 13.2395 48.0542 9.95315C49.0077 7.28993 49.974 4.2746 52.5338 2.74453C52.521 2.69971 52.4762 2.6485 52.4762 2.66771Z" fill="#263238"/>
<path d="M54.5049 1.75864C49.7948 3.6024 47.9325 8.87762 46.4158 13.3782C44.6112 18.7238 43.3121 24.2295 41.7186 29.6392C40.8291 32.6929 40.0227 36.0092 38.0389 38.5443C37.9813 38.6212 38.0901 38.7172 38.1541 38.6468C39.6771 36.8286 40.4579 34.5687 41.181 32.3344C42.045 29.652 42.8001 26.9376 43.5425 24.2231C45.0272 18.8455 46.3839 13.295 48.7005 8.21822C49.9228 5.5422 51.7467 2.93019 54.524 1.81625C54.556 1.79705 54.5368 1.72663 54.5049 1.75864Z" fill="#263238"/>
<path d="M55.9256 35.593C60.0788 41.5532 74.305 57.0204 84.1411 59.2803C89.5679 60.5159 115.761 64.1778 119.338 60.9128C123.543 57.0716 121.591 42.6544 118.251 42.5263C108.011 42.123 89.1647 44.1204 84.4483 43.0833C82.3172 42.6096 71.0092 35.3113 58.9269 29.4727C54.3961 27.2576 53.2505 31.7454 55.9256 35.593Z" fill="#F7A9A0"/>
<path d="M112.709 41.7197L110.955 63.3199C110.955 63.3199 87.1873 62.9422 80.0134 58.909C72.8395 54.8757 61.1604 44.5814 56.6935 37.424C52.2266 30.2666 53.7177 26.3678 62.4531 30.7723C71.1884 35.1769 82.9316 42.2319 84.4931 42.6032C86.0545 42.9745 112.709 41.7197 112.709 41.7197Z" fill="#1F842A"/>
<path d="M108.888 43.2242C108.888 43.2106 108.883 43.1976 108.873 43.1879C108.863 43.1783 108.85 43.1729 108.837 43.1729C108.823 43.1729 108.81 43.1783 108.801 43.1879C108.791 43.1976 108.786 43.2106 108.786 43.2242C108.498 44.7094 108.37 46.2331 108.203 47.7055C108.037 49.178 107.883 50.8169 107.743 52.3726C107.461 55.4775 107.103 58.6017 107.039 61.7131C107.039 61.8475 107.218 61.8475 107.237 61.7131C107.704 58.6593 107.947 55.548 108.242 52.4686C108.382 50.9385 108.523 49.4149 108.632 47.8848C108.741 46.3547 108.907 44.7798 108.888 43.2242Z" fill="#263238"/>
<path d="M34.6471 75.0612C35.927 75.4773 73.0059 64.754 73.0059 64.754L68.6286 51.8796C68.6286 51.8796 70.7917 47.744 69.7869 43.762C68.4494 38.4419 58.6069 29.6776 57.8326 29.1847C54.7288 27.1232 51.817 27.1617 49.2444 28.5445C38.5316 34.223 34.6471 75.0612 34.6471 75.0612Z" fill="#1F842A"/>
<path d="M62.9202 33.8197C63.8737 34.9272 64.8976 35.9835 65.8831 37.0719C65.4224 36.2652 64.968 35.4458 64.4752 34.6583C65.1973 35.5906 65.8254 36.5921 66.3503 37.648C67.0916 38.4711 67.7758 39.3438 68.3982 40.2601C69.1598 41.3501 69.7291 42.5627 70.0812 43.8452C70.4071 45.1454 70.4594 46.4992 70.2348 47.8208C69.943 49.3353 69.5146 50.8202 68.9549 52.2573C68.8845 52.4494 68.6158 52.3278 68.6669 52.1421C69.3645 49.6261 70.1516 46.9757 69.5949 44.3509C69.0381 41.7261 67.419 39.5623 65.8447 37.5008C64.9155 36.2384 63.9065 35.0367 62.8242 33.9029C62.7922 33.8325 62.8754 33.7685 62.9202 33.8197Z" fill="#263238"/>
<path d="M51.5611 29.2551C51.7083 29.9273 54.844 34.3254 57.9094 34.223C58.9013 34.191 58.9589 28.7365 58.9589 28.7365L59.0549 28.3332L60.3988 22.7059L52.8858 17.7827C52.8858 17.7827 51.5035 28.967 51.5611 29.2551Z" fill="#F7A9A0"/>
<path d="M60.3988 22.6995L59.0549 28.3268C57.5367 27.7302 56.1611 26.8205 55.0177 25.6568C53.8743 24.4931 52.9887 23.1015 52.4186 21.5727C52.649 19.6521 52.8473 18.0196 52.8729 17.7827V17.7315L53.8265 18.3077L60.3988 22.6995Z" fill="#263238"/>
<path d="M69.179 15.811C68.539 25.9453 62.4083 26.6943 60.2197 26.5663C58.2422 26.4446 51.5035 25.7596 51.0875 15.6125C50.6716 5.46537 55.5672 2.56528 60.1365 2.61649C64.7057 2.66771 69.8125 5.65743 69.179 15.811Z" fill="#F7A9A0"/>
<path d="M67.6751 14.8123C67.4573 14.746 67.2436 14.6669 67.0351 14.5754C66.7863 14.5309 66.5603 14.402 66.3952 14.2105C66.3576 14.1396 66.3435 14.0585 66.355 13.9791C66.3665 13.8997 66.403 13.826 66.4592 13.7687C66.5888 13.6766 66.7402 13.62 66.8985 13.6042C67.0567 13.5885 67.2163 13.6143 67.3615 13.6791C67.6747 13.7696 67.9436 13.9725 68.1167 14.2489C68.1527 14.3158 68.1685 14.3917 68.162 14.4675C68.1555 14.5432 68.1271 14.6154 68.0802 14.6752C68.0334 14.735 67.9701 14.7798 67.8981 14.8042C67.8261 14.8285 67.7486 14.8313 67.6751 14.8123Z" fill="#263238"/>
<path d="M61.0388 13.948C61.272 13.9436 61.5049 13.9265 61.7363 13.8967C61.9857 13.9117 62.233 13.8442 62.4403 13.7047C62.4968 13.6488 62.5331 13.5757 62.5435 13.4969C62.5539 13.4181 62.5379 13.338 62.4979 13.2694C62.3992 13.1443 62.2687 13.048 62.1201 12.9905C61.9715 12.9331 61.8103 12.9166 61.6531 12.9429C61.3262 12.951 61.0129 13.0759 60.77 13.295C60.7332 13.3308 60.704 13.3736 60.684 13.4208C60.6641 13.4681 60.6538 13.5189 60.6538 13.5702C60.6538 13.6216 60.6641 13.6724 60.684 13.7197C60.704 13.7669 60.7332 13.8097 60.77 13.8455C60.8426 13.9138 60.9392 13.9506 61.0388 13.948Z" fill="#263238"/>
<path d="M62.2675 15.6445C62.2516 15.6444 62.2362 15.6503 62.2244 15.6609C62.2126 15.6716 62.2051 15.6863 62.2035 15.7021C62.1523 16.3935 61.9731 17.1746 61.3268 17.3346V17.373C62.0755 17.3474 62.3251 16.3103 62.2675 15.6445Z" fill="#263238"/>
<path d="M61.7299 14.8634C60.6356 14.6586 60.3028 16.8609 61.3203 17.0529C62.3379 17.245 62.6514 15.0363 61.7299 14.8634Z" fill="#263238"/>
<path d="M61.2756 14.9147C61.0644 15.0107 60.8404 15.2028 60.6356 15.19C60.4308 15.1772 60.1941 14.9147 60.0533 14.665H60.0085C59.9445 15.0875 60.0085 15.5485 60.482 15.6765C60.9556 15.8046 61.2436 15.4653 61.41 15.0363C61.4356 15.0043 61.3652 14.8763 61.2756 14.9147Z" fill="#263238"/>
<path d="M66.0431 16.0414C66.0431 16.0414 66.0879 16.0798 66.0815 16.1118C65.9535 16.7905 65.9215 17.5907 66.5039 17.9108V17.9492C65.7552 17.7315 65.8128 16.6624 66.0431 16.0414Z" fill="#263238"/>
<path d="M66.76 15.4268C67.8735 15.5164 67.6111 17.7315 66.5872 17.6483C65.5633 17.5651 65.832 15.35 66.76 15.4268Z" fill="#263238"/>
<path d="M67.1951 15.6253C67.3551 15.7661 67.5023 15.9966 67.7134 16.035C67.9246 16.0734 68.1614 15.8622 68.3534 15.6509C68.315 16.0798 68.123 16.5024 67.7134 16.5344C67.3039 16.5664 67.1055 16.1695 67.0735 15.7341C67.0671 15.6829 67.1439 15.5677 67.1951 15.6253Z" fill="#263238"/>
<path d="M61.314 21.5727C61.442 21.7648 61.5636 22.0145 61.8067 22.0785C62.0573 22.136 62.3177 22.136 62.5683 22.0785C62.5683 22.0785 62.6067 22.0785 62.5683 22.1169C62.4458 22.2327 62.2941 22.313 62.1295 22.349C61.9649 22.3851 61.7936 22.3757 61.6339 22.3218C61.5033 22.258 61.3943 22.1573 61.3203 22.0321C61.2464 21.9069 61.2108 21.7628 61.218 21.6175C61.215 21.6112 61.2134 21.6044 61.2131 21.5975C61.2128 21.5905 61.2138 21.5836 61.2162 21.577C61.2186 21.5705 61.2222 21.5645 61.2269 21.5593C61.2316 21.5542 61.2373 21.55 61.2436 21.5471C61.2499 21.5442 61.2567 21.5425 61.2637 21.5422C61.2706 21.5419 61.2775 21.5429 61.2841 21.5453C61.2906 21.5477 61.2966 21.5514 61.3017 21.5561C61.3069 21.5608 61.311 21.5664 61.314 21.5727Z" fill="#263238"/>
<path d="M64.5137 19.4921C64.5137 19.4921 64.5137 20.5292 64.4497 21.0157C64.4497 21.0606 64.3217 21.067 64.1553 21.0542C63.7362 21.0681 63.3211 20.9676 62.9547 20.7634C62.5883 20.5593 62.2844 20.2592 62.0755 19.8954C62.0725 19.8854 62.0727 19.8747 62.076 19.8647C62.0792 19.8548 62.0855 19.8461 62.0938 19.8399C62.1022 19.8336 62.1123 19.83 62.1227 19.8297C62.1332 19.8293 62.1435 19.8321 62.1523 19.8378C62.7135 20.3387 63.4195 20.6481 64.1681 20.7213C64.2193 20.5932 64.1041 18.9415 64.1681 18.9415C64.5381 19.0298 64.8951 19.1654 65.2304 19.3448C65.2944 17.1746 65.0065 15.0107 65.0961 12.8468C65.0989 12.838 65.1036 12.8298 65.1097 12.8227C65.1157 12.8156 65.1232 12.8099 65.1315 12.8057C65.1398 12.8015 65.1489 12.7991 65.1582 12.7984C65.1675 12.7978 65.1768 12.799 65.1857 12.802C65.1959 12.8059 65.2052 12.8119 65.2129 12.8196C65.2206 12.8273 65.2266 12.8366 65.2304 12.8468C65.6086 15.1567 65.7544 17.4988 65.6656 19.8378C65.64 20.0939 64.6929 19.6009 64.5137 19.4921Z" fill="#263238"/>
<path d="M51.0363 16.1375C51.742 15.9637 52.3906 15.6099 52.9189 15.1106C53.4472 14.6113 53.8371 13.9836 54.0505 13.2886C55.9549 12.9075 57.7227 12.0233 59.1701 10.7278C59.0549 10.9199 58.2614 12.2963 57.8326 12.9877C64.3985 13.1606 67.3871 8.74321 67.3871 8.74321C68.3644 10.1115 69.0206 11.6827 69.307 13.3398C69.307 13.3398 70.1837 9.49864 68.7438 6.4513C68.2906 5.41168 67.5695 4.51115 66.6542 3.84185C65.739 3.17256 64.6624 2.75853 63.5346 2.64212C62.0548 1.93197 60.4112 1.63334 58.7763 1.77752C57.1413 1.9217 55.5753 2.5034 54.2425 3.46158C49.1165 7.03388 51.0363 16.1375 51.0363 16.1375Z" fill="#263238"/>
<path d="M62.8242 12.9493C61.6906 13.2878 60.5131 13.456 59.3301 13.4486C61.2089 13.3458 63.0219 12.7206 64.5649 11.6433C65.2186 11.1813 65.8119 10.6393 66.3312 10.03C66.9261 9.38431 67.3872 8.62709 67.6879 7.80208C67.6836 7.79791 67.6802 7.79293 67.6779 7.78743C67.6756 7.78193 67.6744 7.77603 67.6744 7.77007C67.6744 7.76411 67.6756 7.75821 67.6779 7.75271C67.6802 7.74722 67.6836 7.74223 67.6879 7.73806C67.692 7.7338 67.697 7.73042 67.7025 7.72811C67.708 7.7258 67.7139 7.72461 67.7199 7.72461C67.7258 7.72461 67.7317 7.7258 67.7372 7.72811C67.7427 7.73042 67.7477 7.7338 67.7519 7.73806C67.7552 7.7439 67.757 7.75052 67.757 7.75727C67.757 7.76401 67.7552 7.77063 67.7519 7.77647C67.5456 8.624 67.1949 9.42963 66.7151 10.158C66.2141 10.8642 65.5871 11.4719 64.8657 11.9506C64.2232 12.3684 63.5253 12.6939 62.7922 12.9173" fill="#263238"/>
<path d="M52.649 16.4512C52.649 16.4512 50.9339 12.9877 49.3916 13.5511C47.8493 14.1144 48.8157 18.9095 50.3964 19.7866C50.7758 20.0331 51.2376 20.119 51.6803 20.0254C52.123 19.9317 52.5105 19.6663 52.7578 19.2872L52.8026 19.2168L52.649 16.4512Z" fill="#F7A9A0"/>
<path d="M49.7052 14.9403C49.7052 14.9403 49.6668 14.9723 49.7052 14.9851C50.8059 15.6253 51.2603 16.8097 51.5226 18.0004C51.43 17.7671 51.2486 17.58 51.0182 17.4804C50.7878 17.3808 50.5273 17.3767 50.2939 17.4691L50.1595 17.5331C50.1532 17.5401 50.1498 17.5493 50.1498 17.5587C50.1498 17.5681 50.1532 17.5773 50.1595 17.5843C50.3753 17.5468 50.5975 17.5786 50.7941 17.6752C50.9907 17.7719 51.1516 17.9283 51.2539 18.1221C51.4285 18.4425 51.5659 18.7819 51.6634 19.1336C51.7018 19.2424 51.9002 19.2168 51.881 19.0888C52.1306 17.5907 51.2859 15.3308 49.7052 14.9403Z" fill="#263238"/>
<path d="M43.6513 37.5776C40.6755 54.4852 43.5553 67.1483 46.4223 68.7168C54.1529 72.9421 72.7115 64.3763 77.9528 62.6734C80.0646 61.9883 70.4205 45.7978 68.2575 46.7965C63.1379 49.146 56.0408 53.1408 55.7528 53.1088C55.1768 53.0512 54.5113 48.7363 51.5547 36.1564C49.1677 26.0029 44.8736 30.6827 43.6513 37.5776Z" fill="#F7A9A0"/>
<path d="M94.8219 38.8004C95.353 40.9259 90.0094 41.7901 90.0094 41.7901C90.899 42.1054 91.649 42.7242 92.1277 43.5379C92.902 45.0103 90.9438 46.8733 90.9438 46.8733C91.7881 47.4004 92.4565 48.167 92.8636 49.0756C93.4652 50.5544 91.7501 52.7183 91.7501 52.7183C92.2682 53.6326 92.4408 54.7027 92.2365 55.7336C91.5965 58.4609 87.4048 59.53 84.9474 60.708C82.3172 61.9884 77.9655 62.4301 75.9881 63.32L67.4319 47.6416C67.4319 47.6416 75.7193 38.8581 80.4741 37.5264C83.0339 36.7774 94.0155 35.5546 94.8219 38.8004Z" fill="#F7A9A0"/>
<path d="M89.9519 41.7389C86.9761 41.6109 83.9748 42.1935 81.0822 42.7889C81.0182 42.7889 81.0438 42.8977 81.0822 42.8849C83.9492 42.2447 87.0529 42.3919 89.9327 41.8798C89.9416 41.8816 89.9508 41.8815 89.9597 41.8796C89.9685 41.8776 89.9769 41.8737 89.9841 41.8683C89.9914 41.8628 89.9974 41.8559 90.0018 41.8479C90.0062 41.84 90.0088 41.8312 90.0095 41.8221C90.0114 41.8129 90.0113 41.8033 90.0094 41.7941C90.0075 41.7848 90.0037 41.7761 89.9984 41.7683C89.993 41.7605 89.9861 41.7539 89.9781 41.7489C89.9701 41.7438 89.9612 41.7404 89.9519 41.7389Z" fill="#263238"/>
<path d="M90.8093 46.6748C90.1305 46.7117 89.4593 46.8365 88.8126 47.0461C88.1215 47.2254 87.4239 47.4175 86.7328 47.6223C85.3505 48.032 83.981 48.4674 82.6179 48.9411C82.5603 48.9411 82.5795 49.0628 82.6179 49.0436C83.9938 48.6402 85.3825 48.2625 86.7712 47.9168C87.4687 47.7439 88.1727 47.5775 88.8702 47.4174C89.5415 47.3077 90.1984 47.123 90.8285 46.8669C90.8519 46.8545 90.87 46.8341 90.8795 46.8093C90.8889 46.7846 90.889 46.7572 90.8797 46.7324C90.8742 46.7174 90.8647 46.7042 90.8523 46.694C90.84 46.6839 90.8251 46.6773 90.8093 46.6748Z" fill="#263238"/>
<path d="M91.7117 52.7375C91.0984 52.7768 90.4965 52.9219 89.9326 53.1664L88.0511 53.749C86.7712 54.1331 85.5425 54.5172 84.269 54.8501C84.2114 54.8501 84.2306 54.9718 84.269 54.9526C85.5489 54.6133 86.8288 54.3124 88.1087 53.9475L90.0286 53.4225C90.6198 53.3131 91.1859 53.0961 91.6989 52.7823C91.7027 52.7803 91.7062 52.7775 91.7089 52.7741C91.7117 52.7708 91.7137 52.7669 91.7149 52.7627C91.7161 52.7585 91.7165 52.7541 91.7159 52.7497C91.7153 52.7454 91.7139 52.7412 91.7117 52.7375Z" fill="#263238"/>
<path d="M67.7199 46.6748L76.6344 65.6887C76.6344 65.6887 49.0525 73.7359 45.3151 68.8896C41.5778 64.0434 41.8338 48.8131 43.5873 38.2755C45.3407 27.7378 50.0828 27.533 52.1562 37.0591C54.2297 46.5852 55.4584 52.6031 55.8296 52.5518C56.2007 52.5006 67.7199 46.6748 67.7199 46.6748Z" fill="#1F842A"/>
<path d="M64.1233 49.2292C64.1233 49.1844 64.0081 49.2292 64.0273 49.2676C64.5265 50.6953 65.192 52.0717 65.8 53.4545C66.4079 54.8373 67.0799 56.3034 67.7582 57.7182C69.0829 60.5351 70.382 63.3968 71.8731 66.1304C71.8769 66.1426 71.8831 66.1539 71.8912 66.1637C71.8994 66.1736 71.9094 66.1817 71.9207 66.1876C71.932 66.1936 71.9443 66.1972 71.957 66.1984C71.9697 66.1996 71.9825 66.1982 71.9947 66.1944C72.0069 66.1907 72.0182 66.1845 72.028 66.1763C72.0378 66.1682 72.046 66.1582 72.0519 66.1469C72.0578 66.1356 72.0615 66.1232 72.0627 66.1105C72.0638 66.0978 72.0625 66.085 72.0587 66.0728V66.0408C70.9196 63.1599 69.5629 60.3558 68.2574 57.5518C67.6174 56.1562 66.9775 54.7733 66.2799 53.3969C65.5824 52.0205 64.9232 50.5672 64.1233 49.2292Z" fill="#263238"/>
<path d="M62.0307 69.1841C61.2518 69.235 60.4801 69.3637 59.7268 69.5683C58.9269 69.7091 58.127 69.8371 57.327 69.9396C55.776 70.1573 54.2144 70.292 52.649 70.3429C51.1067 70.3813 47.2925 70.1508 46.1214 69.0625C45.1639 68.1209 44.4841 66.9337 44.1568 65.6311C43.7418 63.8423 43.4256 62.0321 43.2096 60.2086C42.7683 56.3564 42.6463 52.4742 42.8449 48.6018C42.8897 47.5263 42.9601 46.4444 43.0369 45.3688C43.1137 44.2933 43.248 43.1794 43.28 42.0782C43.2771 42.0714 43.2721 42.0655 43.2659 42.0614C43.2596 42.0573 43.2523 42.0552 43.2448 42.0552C43.2374 42.0552 43.2301 42.0573 43.2238 42.0614C43.2176 42.0655 43.2126 42.0714 43.2096 42.0782C42.839 43.8296 42.5952 45.6054 42.4801 47.3918C42.4097 46.2843 42.2753 45.1704 42.2625 44.0564C42.2625 44.0428 42.2571 44.0298 42.2475 44.0202C42.2379 44.0106 42.2249 44.0052 42.2113 44.0052C42.1977 44.0052 42.1847 44.0106 42.1751 44.0202C42.1655 44.0298 42.1601 44.0428 42.1601 44.0564C42.1601 45.228 42.1025 46.3995 42.1601 47.5711C42.179 48.2286 42.2324 48.8846 42.3201 49.5365C42.2305 51.0282 42.1857 52.5198 42.2049 54.0179C42.1416 57.9483 42.5825 61.8705 43.5168 65.6887C43.9712 67.3468 44.6751 68.9281 46.1854 69.8179C47.3227 70.3644 48.5548 70.6861 49.814 70.7654C52.4738 70.9486 55.1462 70.7807 57.7622 70.2661C58.4917 70.1252 59.2213 69.9716 59.9508 69.8051C60.6691 69.7021 61.372 69.5107 62.0435 69.2354C62.0435 69.2354 62.0755 69.1841 62.0307 69.1841Z" fill="#263238"/>
<path d="M67.6751 46.3163C65.6464 47.3342 63.6114 48.3521 61.5891 49.3893L58.6005 50.9193C57.6406 51.4187 55.8103 52.4046 55.8103 52.4046C55.6749 51.5129 55.4869 50.63 55.2472 49.7606C55.0552 48.9027 54.8184 47.8976 54.6072 46.9693C54.5432 46.726 54.4728 46.4892 54.4089 46.2459C54.3641 45.8042 54.3257 45.356 54.2873 44.9079C54.2169 44.1909 54.1593 43.461 54.0505 42.744H54.0057C53.9417 43.4275 53.9417 44.1155 54.0057 44.799C53.6985 43.6723 53.3657 42.5584 53.0458 41.4444L67.6751 46.3163ZM52.9882 41.4444C53.3529 43.3266 53.7369 45.2088 54.1657 47.0781C54.3769 47.9808 54.6072 48.8835 54.844 49.7862C55.0618 50.76 55.331 51.7217 55.6504 52.6671C56.6856 52.2703 57.7001 51.8216 58.6901 51.3226C59.7269 50.8297 60.7572 50.3303 61.7875 49.8118C63.7778 48.8131 65.7872 47.7952 67.7135 46.6684L67.8671 46.9565C67.8671 46.9885 67.9823 46.8989 67.9567 46.8093C67.9311 46.7196 67.7263 46.2971 67.6751 46.3163L52.9882 41.4444Z" fill="#263238"/>
<path d="M85.1777 65.0741H111.166L122.557 28.282H96.5753L85.1777 65.0741Z" fill="#263238"/>
<path d="M86.4512 65.0741H112.44L123.837 28.282H97.8487L86.4512 65.0741Z" fill="#455A64"/>
<path d="M107.877 45.5225C107.672 46.2241 107.254 46.8445 106.68 47.2976C106.107 47.7508 105.407 48.0142 104.677 48.0513C104.181 48.0674 103.697 47.8903 103.328 47.5572C102.96 47.2241 102.734 46.761 102.7 46.2651C102.687 46.0123 102.726 45.7595 102.815 45.5225C103.014 44.8149 103.43 44.1875 104.004 43.7282C104.578 43.269 105.281 43.0009 106.015 42.9617C106.261 42.947 106.509 42.9813 106.742 43.0626C106.976 43.1439 107.191 43.2706 107.375 43.4354C107.56 43.6002 107.71 43.7999 107.817 44.023C107.924 44.246 107.985 44.488 107.999 44.735C108.016 45.0033 107.975 45.2721 107.877 45.5225Z" fill="white"/>
<path d="M119.838 41.1819C121.118 43.5186 124.471 46.3867 124.81 48.3329C124.914 48.8087 124.861 49.3054 124.659 49.7486C124.457 50.1918 124.117 50.5576 123.69 50.7913C123.69 50.7913 125.7 51.6555 125.719 53.4737C125.719 54.4084 124.247 55.2471 124.247 55.2471C124.691 55.467 125.065 55.8051 125.329 56.2241C125.593 56.6431 125.737 57.1268 125.744 57.6222C125.68 58.9026 124.209 59.5428 124.209 59.5428C124.209 59.5428 125.38 60.9768 124.893 62.27C123.908 64.8884 112.862 65.5094 110.923 61.5338C110.027 59.6772 112.734 59.6772 112.734 59.6772C112.734 59.6772 108.837 58.7425 108.651 56.4762C108.466 54.2099 111.985 54.4084 111.985 54.4084C111.985 54.4084 108.216 53.4737 108.261 51.0922C108.306 48.7106 111.793 49.4277 111.793 49.4277C111.793 49.4277 109.234 47.8976 109.694 46.0858C110.437 43.0897 115.972 46.6492 118.366 45.9386L119.838 41.1819Z" fill="#F7A9A0"/>
<path d="M123.991 59.7541C120.267 60.899 116.283 60.8834 112.568 59.7092C112.453 59.6708 112.465 59.4659 112.606 59.4852C116.371 60.1058 120.206 60.1769 123.991 59.6964V59.7541Z" fill="#263238"/>
<path d="M124.305 55.2663C124.315 55.2663 124.324 55.2703 124.332 55.2775C124.339 55.2847 124.343 55.2945 124.343 55.3047C124.343 55.3149 124.339 55.3246 124.332 55.3318C124.324 55.3391 124.315 55.3431 124.305 55.3431C120.183 56.5707 115.758 56.28 111.832 54.5236C111.697 54.4596 111.64 54.2676 111.832 54.3252C114.552 55.3943 120.791 55.7656 124.305 55.2663Z" fill="#263238"/>
<path d="M111.55 49.2036C115.39 50.8809 119.396 51.1242 123.543 50.8425C123.594 50.8425 123.594 50.9129 123.543 50.9321C121.559 51.6364 118.897 51.5723 116.823 51.3227C114.901 51.1427 113.06 50.458 111.486 49.3381C111.429 49.2932 111.467 49.1716 111.55 49.2036Z" fill="#263238"/>
<path d="M196.843 114.51C196.306 115.963 169.965 148.716 168.173 149.33C167.495 149.567 162.503 146.008 156.59 141.533C155.31 140.566 154.03 139.561 152.674 138.537C144.053 131.872 135.062 124.6 135.062 124.6L152.616 102.634L169.747 117.18L173.51 120.381C173.51 120.381 189.202 112.353 191.244 111.892C193.285 111.431 197.381 113.057 196.843 114.51Z" fill="#F7A9A0"/>
<path d="M196.843 114.51C196.306 115.963 169.965 148.716 168.173 149.33C167.341 149.612 160.148 144.298 152.674 138.537L169.748 117.18L173.51 120.381C173.51 120.381 189.202 112.353 191.244 111.892C193.285 111.431 197.381 113.057 196.843 114.51Z" fill="white"/>
<path d="M196.843 114.51C196.306 115.963 169.965 148.716 168.173 149.33C167.495 149.567 162.503 146.008 156.59 141.533L173.51 120.368C173.51 120.368 189.202 112.34 191.244 111.879C193.285 111.418 197.381 113.057 196.843 114.51Z" fill="#1F842A"/>
<path d="M195.186 113.921C190.636 119.305 172.787 141.45 168.704 147.109C168.672 147.154 168.704 147.179 168.736 147.141C173.363 141.904 191.032 119.612 195.282 113.998C195.339 113.876 195.25 113.812 195.186 113.921Z" fill="#263238"/>
<path d="M188.37 113.038C187.866 113.636 187.492 114.332 187.272 115.083C187.052 115.833 186.99 116.622 187.09 117.397C187.249 118.794 187.936 120.077 189.01 120.982C189.01 120.982 189.093 120.982 189.061 120.918C188.123 119.858 187.553 118.522 187.438 117.11C187.322 115.699 187.667 114.288 188.421 113.089C188.421 113.089 188.421 113.044 188.383 113.038H188.37Z" fill="#263238"/>
<path d="M175.769 118.678C173.971 120.848 172.698 124.023 173.395 126.834C173.427 126.943 173.581 126.904 173.6 126.834C174.133 124.102 174.961 121.436 176.07 118.883C176.084 118.863 176.093 118.841 176.098 118.817C176.103 118.794 176.103 118.77 176.099 118.746C176.094 118.723 176.085 118.7 176.072 118.68C176.059 118.66 176.042 118.643 176.022 118.63C176.002 118.616 175.98 118.607 175.957 118.602C175.934 118.597 175.909 118.597 175.886 118.601C175.862 118.606 175.84 118.615 175.82 118.628C175.8 118.641 175.783 118.658 175.769 118.678Z" fill="#263238"/>
<path d="M177.798 117.513C176 119.683 174.726 122.858 175.424 125.669C175.424 125.778 175.603 125.739 175.622 125.669C176.161 122.937 176.991 120.271 178.099 117.717C178.126 117.678 178.136 117.628 178.127 117.581C178.118 117.534 178.091 117.492 178.051 117.465C178.011 117.437 177.962 117.427 177.915 117.436C177.867 117.445 177.825 117.473 177.798 117.513Z" fill="#263238"/>
<path d="M179.827 116.322C178.029 118.498 176.755 121.667 177.453 124.478C177.485 124.587 177.638 124.548 177.657 124.478C178.193 121.747 179.021 119.081 180.128 116.527C180.155 116.487 180.165 116.438 180.156 116.39C180.147 116.343 180.119 116.301 180.08 116.274C180.04 116.247 179.991 116.236 179.943 116.245C179.896 116.254 179.854 116.282 179.827 116.322Z" fill="#263238"/>
<path d="M181.849 115.182C180.051 117.359 178.777 120.528 179.475 123.338C179.475 123.447 179.654 123.409 179.673 123.338C180.211 120.605 181.042 117.937 182.15 115.381C182.176 115.341 182.186 115.292 182.176 115.245C182.166 115.198 182.139 115.157 182.099 115.131C182.059 115.105 182.01 115.095 181.963 115.105C181.916 115.115 181.875 115.142 181.849 115.182Z" fill="#263238"/>
<path d="M164.583 141.514C162.606 143.985 166.445 147.064 168.423 144.587C170.4 142.109 166.561 139.042 164.583 141.514Z" fill="white"/>
<path d="M171.821 111.584C170.004 111.956 169.773 114.081 170.183 115.534C170.921 118.032 172.305 120.291 174.195 122.084C174.208 122.096 174.225 122.103 174.243 122.103C174.261 122.103 174.278 122.096 174.291 122.084C174.332 122.105 174.376 122.118 174.421 122.122C174.466 122.126 174.512 122.121 174.555 122.107C174.599 122.093 174.639 122.071 174.674 122.042C174.709 122.013 174.737 121.977 174.758 121.936C174.772 121.901 174.783 121.865 174.79 121.828C174.963 119.395 175.43 116.815 174.88 114.395C174.547 112.942 173.536 111.232 171.821 111.584ZM174.317 118.038C174.259 119.235 174.144 120.425 174.131 121.629C173.314 120.387 172.56 119.105 171.872 117.788C171.552 117.142 171.272 116.477 171.034 115.797C170.695 114.734 170.592 111.098 173.158 112.801C174.547 113.723 174.387 116.61 174.317 118.038Z" fill="#263238"/>
<path d="M170.618 128.172C172.448 126.495 173.491 124.081 174.714 121.968C174.751 121.884 174.753 121.789 174.721 121.703C174.689 121.617 174.624 121.546 174.541 121.507H174.445C174.446 121.497 174.445 121.487 174.441 121.477C174.438 121.468 174.433 121.459 174.427 121.451C174.42 121.443 174.412 121.437 174.403 121.432C174.394 121.428 174.385 121.425 174.374 121.424C171.815 121.845 169.41 122.929 167.399 124.568C166.247 125.547 165.242 127.429 166.535 128.761C167.828 130.092 169.549 129.126 170.618 128.172ZM168.308 128.486C165.223 128.454 167.348 125.502 168.224 124.817C168.804 124.384 169.412 123.989 170.042 123.633C171.322 122.884 172.717 122.352 174.074 121.712C173.434 122.711 172.839 123.761 172.211 124.785C171.469 126.008 170.004 128.479 168.308 128.479V128.486Z" fill="#263238"/>
<path d="M168.832 113.863L150.562 138.524L88.9087 95.7267L82.9635 91.5974C82.9635 91.5974 81.2805 92.7306 78.7463 94.1582C75.2265 96.0788 70.0685 98.5692 65.5056 99.2414C57.8262 100.375 45.0719 100.253 38.6276 91.623C33.1944 84.3568 36.1446 74.8755 36.1446 74.8755L44.5472 71.2648C44.5472 71.2648 64.4369 54.6901 77.3192 54.1907C82.7908 53.9731 90.7582 58.1215 98.1368 62.4557C105.515 66.7898 168.832 113.863 168.832 113.863Z" fill="#37474F"/>
<path d="M82.9635 91.5974C82.9635 91.5974 81.2805 92.7306 78.7463 94.1582C74.2666 88.7934 64.7825 79.0496 64.4945 78.7039L82.9635 91.5974Z" fill="#263238"/>
<path d="M51.8362 65.6951C50.6459 66.5209 49.5004 67.398 48.3229 68.2559C47.1454 69.1137 45.9807 69.8756 44.8864 70.8166C43.792 71.7577 42.7105 72.7372 41.6866 73.7295C41.181 74.2097 40.6755 74.6962 40.1891 75.1956C39.672 75.6743 39.1928 76.1922 38.7556 76.7449C38.7172 76.8025 38.794 76.8601 38.8452 76.8281C39.4022 76.4372 39.9324 76.0094 40.4323 75.5477L42.077 74.0688C43.1457 73.1598 44.2336 72.2763 45.2767 71.3608C46.3199 70.4453 47.3182 69.4402 48.3677 68.5503C49.4172 67.6605 50.6715 66.6297 51.8426 65.7271C51.8746 65.7463 51.8362 65.6759 51.8362 65.6951Z" fill="#263238"/>
<path d="M164.545 112.98C163.354 114.26 162.26 115.637 161.153 116.988C160.046 118.338 158.939 119.708 157.844 121.079C155.656 123.812 153.442 126.539 151.291 129.311C150.107 130.829 148.943 132.359 147.842 133.946C147.791 134.017 147.906 134.094 147.957 134.03C150.319 131.437 152.469 128.671 154.657 125.938C156.846 123.204 159.035 120.445 161.179 117.673C162.356 116.155 163.572 114.645 164.647 113.057C164.692 112.993 164.596 112.922 164.545 112.98Z" fill="#263238"/>
<path d="M113.944 113.23C110.878 110.81 107.698 108.531 104.517 106.264C101.337 103.998 98.1881 101.745 94.9756 99.5551C94.054 98.9149 93.1261 98.3067 92.1982 97.6921C91.2702 97.0775 90.2783 96.5013 89.3952 95.8611C89.344 95.8291 89.2928 95.9124 89.344 95.9508C90.1823 96.5526 90.9694 97.2312 91.7886 97.8394C92.6077 98.4475 93.3501 99.0365 94.1372 99.6191C95.6795 100.759 97.2346 101.879 98.7897 103.006C101.938 105.278 105.112 107.532 108.312 109.728C110.136 110.976 111.947 112.231 113.809 113.422C113.912 113.492 114.053 113.313 113.944 113.23Z" fill="#263238"/>
<path d="M133.661 87.7882C130.826 85.4387 127.786 83.3069 124.816 81.1494C121.847 78.992 118.82 76.7321 115.806 74.5554L106.847 68.0574C103.941 65.9575 101.055 63.8257 97.9896 61.9691C96.3129 60.9512 94.5914 60.0101 92.8252 59.1651C91.1107 58.2885 89.3253 57.5582 87.488 56.982C87.4304 56.982 87.4048 57.046 87.4496 57.0716C88.9599 57.9167 90.5469 58.6273 92.0764 59.4403C93.6059 60.2534 95.0778 61.0921 96.5561 62.0011C99.5959 63.8449 102.469 65.9447 105.355 68.019C111.345 72.3275 117.329 76.6616 123.364 80.9125C126.743 83.2941 130.051 85.8036 133.558 87.9547C133.635 88.0379 133.75 87.8715 133.661 87.7882Z" fill="#263238"/>
<path d="M272.748 77.91C264.928 88.5117 256.749 100.803 254.784 114.094C254.784 114.299 255.085 114.363 255.13 114.164C256.03 110.538 257.187 106.98 258.592 103.518C263.712 102.103 268.78 100.957 271.481 95.8355C274.233 90.5923 273.881 83.7486 273.362 78.0316C273.352 77.9639 273.321 77.9009 273.274 77.8514C273.226 77.8018 273.165 77.7681 273.098 77.7548C273.031 77.7415 272.961 77.7492 272.898 77.777C272.836 77.8048 272.783 77.8512 272.748 77.91Z" fill="#1F842A"/>
<path d="M258.669 103.39C262.182 95.5026 266.7 87.5834 272.46 81.111C272.498 81.0662 272.556 81.111 272.517 81.1751C268.767 85.7909 265.913 90.8228 263.129 95.9444C265.721 93.3132 268.556 90.9572 271.007 88.166C271.013 88.1604 271.019 88.1559 271.026 88.1528C271.033 88.1498 271.041 88.1482 271.049 88.1482C271.057 88.1482 271.064 88.1498 271.071 88.1528C271.079 88.1559 271.085 88.1604 271.09 88.166C271.097 88.1755 271.1 88.1866 271.1 88.198C271.1 88.2094 271.097 88.2205 271.09 88.23C268.652 91.1557 265.971 94.3375 262.816 96.5013L260.256 101.22C260.474 101.098 260.691 100.995 260.896 100.887C260.934 100.887 260.973 100.925 260.928 100.944C260.691 101.066 260.448 101.194 260.198 101.303C259.789 102.045 259.379 102.794 258.957 103.537C258.933 103.565 258.899 103.585 258.863 103.592C258.826 103.599 258.788 103.594 258.755 103.577C258.722 103.56 258.695 103.532 258.68 103.498C258.664 103.464 258.66 103.426 258.669 103.39Z" fill="#263238"/>
<path d="M261.28 100.637C263.383 99.4605 265.39 98.1205 267.283 96.6294C267.334 96.591 267.411 96.6614 267.359 96.6998C265.527 98.2884 263.517 99.659 261.37 100.784C261.36 100.791 261.35 100.795 261.338 100.797C261.327 100.799 261.315 100.799 261.304 100.796C261.293 100.793 261.283 100.787 261.274 100.78C261.266 100.772 261.259 100.763 261.254 100.752C261.248 100.743 261.244 100.733 261.242 100.722C261.241 100.711 261.241 100.7 261.243 100.689C261.246 100.679 261.25 100.668 261.256 100.659C261.263 100.65 261.271 100.643 261.28 100.637Z" fill="#263238"/>
<path d="M253.901 112.09C253.901 112.25 254.189 112.244 254.189 112.09C254.228 107.711 254.189 103.313 254.253 98.9213C255.38 96.655 257.78 95.4066 259.456 93.5884C260.658 92.2655 261.703 90.8091 262.573 89.2479C264.6 85.5143 265.841 81.4053 266.221 77.1738C266.681 72.494 264.941 57.046 262.931 57.5838C261.914 57.8591 258.599 65.5094 257.722 68.0382C256.3 72.2033 255.259 76.4889 254.612 80.8421C252.967 91.1493 253.101 101.725 253.901 112.09Z" fill="#1F842A"/>
<path d="M253.85 93.2107C254.093 87.673 255.335 82.0841 256.506 76.7129C257.786 70.9511 259.232 65.4774 262.208 60.3174C262.265 60.2214 262.406 60.3174 262.355 60.4071C260.372 64.4199 258.836 68.6385 257.773 72.9869C257.971 72.6796 258.215 72.3787 258.413 72.0842C258.49 71.969 258.682 72.0842 258.605 72.1995C258.337 72.6663 258.024 73.1059 257.671 73.5119H257.632C256.608 77.6476 255.872 81.8793 255.245 86.0982C255.289 86.0398 255.336 85.9842 255.386 85.9317C255.418 85.9317 255.469 85.9317 255.45 85.9829C255.431 86.0341 255.284 86.2582 255.2 86.399C254.88 88.5437 254.56 90.682 254.292 92.801C258.131 89.536 261.331 85.6948 263.193 80.9638H263.232C261.434 85.8677 258.599 90.2338 254.234 93.2171C254.151 93.7869 254.074 94.3567 253.991 94.9264C253.991 95.0417 253.786 95.0097 253.786 94.8944C253.786 94.3951 253.786 93.8893 253.831 93.3836C253.82 93.3723 253.81 93.3588 253.804 93.344C253.798 93.3291 253.795 93.3132 253.795 93.2972C253.795 93.2811 253.798 93.2652 253.804 93.2503C253.81 93.2355 253.82 93.222 253.831 93.2107H253.85Z" fill="#263238"/>
<path d="M255.648 85.1891C258.56 80.8357 261.28 76.6168 263.411 71.809C263.417 71.7958 263.427 71.7853 263.44 71.7794C263.453 71.7735 263.468 71.7726 263.481 71.777C263.49 71.7865 263.495 71.7991 263.495 71.8122C263.495 71.8253 263.49 71.8379 263.481 71.8474C261.683 76.6232 259.168 81.4503 255.763 85.2915C255.725 85.3747 255.584 85.2723 255.648 85.1891Z" fill="#263238"/>
<path d="M259.52 70.7334C260.723 68.5951 261.997 66.5209 263.129 64.3315C263.161 64.2738 263.245 64.3315 263.219 64.3891C262.292 66.6724 261.114 68.8454 259.706 70.8678C259.623 70.9511 259.45 70.8678 259.52 70.7334Z" fill="#263238"/>
<path d="M250.919 99.4334C250.863 102.332 250.522 105.218 249.902 108.05L250.036 108.998C250.926 105.869 251.443 102.646 251.578 99.395C251.603 99.3489 251.617 99.2972 251.617 99.2446C251.617 99.192 251.603 99.1403 251.578 99.0941C251.702 94.732 251.378 90.3686 250.612 86.0725C249.255 78.0317 246.299 70.3109 240.686 64.3058C240.649 64.2687 240.605 64.2392 240.557 64.2191C240.509 64.1989 240.457 64.1886 240.405 64.1886C240.352 64.1886 240.3 64.1989 240.252 64.2191C240.204 64.2392 240.16 64.2687 240.123 64.3058C240.09 64.339 240.064 64.3781 240.046 64.4211C237.781 70.1828 238.574 77.0393 240.501 82.7819C241.549 85.8893 243.045 88.8269 244.942 91.5014C246.907 94.1902 249.358 96.4757 250.919 99.4334Z" fill="#1F842A"/>
<path d="M241.365 66.9627C246.676 75.5925 250.375 85.8229 250.83 96.0084C250.83 96.194 250.535 96.2389 250.51 96.0532C250.382 95.1377 250.241 94.2286 250.094 93.326C247.892 91.2197 245.614 88.9982 244.065 86.3606C244.033 86.3158 244.104 86.2646 244.136 86.303C245.961 88.5515 247.918 90.6892 249.998 92.705C249.614 90.4515 249.166 88.2236 248.628 86.0533L248.212 85.5604C248.116 85.4516 248.27 85.2915 248.366 85.4003L248.494 85.5412C247.76 82.5465 246.841 79.6002 245.742 76.7193C244.392 75.106 242.875 73.7103 241.902 71.7641C241.902 71.7193 241.947 71.6809 241.973 71.7193C242.766 72.8333 243.534 73.9536 244.43 74.9843C244.788 75.394 245.185 75.7782 245.556 76.1815C244.331 73.0546 242.877 70.0225 241.205 67.1099C241.193 67.0808 241.193 67.0484 241.203 67.0189C241.214 66.9894 241.235 66.9649 241.262 66.9499C241.279 66.9439 241.297 66.9419 241.315 66.9442C241.333 66.9464 241.35 66.9527 241.365 66.9627Z" fill="#263238"/>
<path d="M242.44 77.6091C244.155 79.9202 246.113 82.1225 247.713 84.5169C247.758 84.5809 247.655 84.6513 247.598 84.6001C245.55 82.6795 243.809 80.0483 242.325 77.6731C242.28 77.5963 242.382 77.5387 242.44 77.6091Z" fill="#263238"/>
<path d="M247.949 85.0482L248.026 85.1247C248.077 85.1757 247.994 85.2522 247.943 85.2012L247.873 85.1311C247.822 85.08 247.898 84.9971 247.949 85.0482Z" fill="#263238"/>
<path d="M233.039 83.5501C233.667 88.3666 235.606 92.9177 238.645 96.7062C239.9 98.1922 241.449 99.402 243.195 100.259C245.166 101.232 247.227 102.353 249.262 103.153C250.23 105.621 250.95 108.18 251.412 110.791C251.476 110.566 251.54 110.336 251.61 110.112C250.298 98.8765 243.029 89.2735 233.736 83.1084C233.686 83.0741 233.629 83.0504 233.569 83.0386C233.509 83.0268 233.448 83.0271 233.388 83.0397C233.328 83.0522 233.272 83.0767 233.221 83.1116C233.171 83.1465 233.129 83.1911 233.096 83.2428C233.043 83.3356 233.022 83.4441 233.039 83.5501Z" fill="#1F842A"/>
<path d="M236.251 86.8728C236.243 86.8665 236.237 86.8587 236.232 86.8498C236.227 86.8409 236.224 86.8311 236.222 86.821C236.221 86.8109 236.222 86.8007 236.225 86.7909C236.228 86.7811 236.232 86.7719 236.239 86.7639C236.245 86.756 236.253 86.7493 236.262 86.7443C236.27 86.7394 236.28 86.7362 236.29 86.735C236.3 86.7338 236.311 86.7346 236.32 86.7374C236.33 86.7402 236.339 86.7448 236.347 86.7511C241.456 90.5521 245.529 95.5754 248.193 101.36C248.263 101.514 248.052 101.649 247.963 101.495C247.534 100.739 247.092 99.9968 246.644 99.2734C244.52 98.8701 242.51 97.3528 240.936 95.9572C240.891 95.9188 240.936 95.8547 241 95.8931C241.807 96.6463 242.708 97.2919 243.681 97.8137C244.552 98.2555 245.479 98.5308 246.382 98.8829C245.595 97.6345 244.776 96.4373 243.918 95.2722C241.618 94.4039 239.46 93.1955 237.518 91.6871C237.505 91.6786 237.495 91.665 237.492 91.6494C237.488 91.6338 237.491 91.6174 237.499 91.6038C237.508 91.5903 237.521 91.5806 237.537 91.577C237.553 91.5734 237.569 91.5761 237.582 91.5846C239.502 92.7425 241.48 93.8003 243.508 94.7536C242.211 93.0462 240.813 91.4172 239.323 89.8753C238.6 89.4912 237.87 89.1071 237.173 88.7037C237.115 88.6717 237.173 88.5693 237.218 88.5949C237.799 88.7969 238.354 89.0699 238.869 89.408C238.039 88.5197 237.166 87.6735 236.251 86.8728Z" fill="#263238"/>
<path d="M236.45 90.746C236.571 90.8228 236.693 90.9124 236.808 91.002C236.808 91.034 236.808 91.0788 236.763 91.066C236.634 91.0035 236.51 90.9308 236.392 90.8484C236.379 90.8407 236.369 90.828 236.364 90.813C236.36 90.798 236.362 90.7819 236.37 90.7684C236.377 90.7548 236.39 90.7448 236.405 90.7406C236.42 90.7364 236.436 90.7383 236.45 90.746Z" fill="#263238"/>
<path d="M266.118 135.124H240.642L242.696 111.917L243.15 106.796H263.61L264.064 111.917L266.118 135.124Z" fill="#455A64"/>
<path d="M264.064 111.917H242.696L243.15 106.796H263.609L264.064 111.917Z" fill="#263238"/>
<path d="M264.825 103.217H241.928V108.281H264.825V103.217Z" fill="#455A64"/>
</svg>
