<svg width="20" height="20" viewBox="0 0 20 20" fill="none" xmlns="http://www.w3.org/2000/svg">
<path d="M17.9193 16.4926L17.0262 5.23839C16.9708 4.51327 16.3573 3.9455 15.6303 3.9455H13.866V6.55944C13.866 6.88315 13.604 7.14518 13.2803 7.14518C12.957 7.14518 12.6946 6.88315 12.6946 6.55944V3.9455H7.30585V6.55944C7.30585 6.88315 7.04342 7.14518 6.7201 7.14518C6.39639 7.14518 6.13436 6.88315 6.13436 6.55944V3.9455H4.37014C3.64307 3.9455 3.02959 4.51327 2.97417 5.23682L2.08073 16.4942C2.01163 17.3958 2.3244 18.2932 2.93862 18.9562C3.55288 19.6192 4.42366 20 5.32764 20H14.6728C15.5768 20 16.4476 19.6192 17.0618 18.9562C17.676 18.2931 17.9888 17.3958 17.9193 16.4926ZM12.6391 10.7614L9.60971 13.7908C9.4953 13.9053 9.34534 13.9626 9.19542 13.9626C9.04545 13.9626 8.89553 13.9053 8.78112 13.7908L7.36131 12.371C7.13249 12.1422 7.13249 11.7716 7.36131 11.5428C7.59014 11.314 7.96112 11.314 8.18956 11.5428L9.19545 12.5483L11.8109 9.93284C12.0394 9.7044 12.4103 9.7044 12.6392 9.93284C12.868 10.1617 12.868 10.5326 12.6391 10.7614Z" fill="#333333"/>
<path d="M10.0006 0C7.86891 0 6.13477 1.73453 6.13477 3.86621V3.94547H7.30625V3.86621C7.30625 2.38039 8.5148 1.17145 10.0006 1.17145C11.4864 1.17145 12.695 2.38039 12.695 3.86621V3.94547H13.8664V3.86621C13.8664 1.73453 12.1323 0 10.0006 0Z" fill="#333333"/>
</svg>
