<svg width="255" height="213" viewBox="0 0 255 213" fill="none" xmlns="http://www.w3.org/2000/svg">

<defs>
<linearGradient id="paint0_linear_584_6771" x1="182.277" y1="213" x2="182.277" y2="-150.004" gradientUnits="userSpaceOnUse">
<stop stop-color="#1B942D"/>
<stop offset="1" stop-color="#187226"/>
</linearGradient>
</defs>
<path d="M159.336 -97.0793C159.515 -95.907 159.508 -94.7138 159.315 -93.5438L159.375 -93.5911C158.082 -84.5698 175.473 -54.7793 196.379 -58.243C219.437 -62.0573 244.988 -65.0318 264.112 -53.4339C284.633 -40.988 292.507 -19.0593 297.533 2.70627C301.507 19.9188 321.621 15.2174 325.219 12.0929L325.219 12.1173C326.063 11.3819 327.096 10.8987 328.2 10.7229C329.305 10.5472 330.436 10.6859 331.466 11.1232C332.496 11.5605 333.382 12.2789 334.023 13.1963C334.665 14.1137 335.036 15.1932 335.094 16.3116C335.152 17.4301 334.895 18.5423 334.352 19.5215C333.809 20.5007 333.003 21.3073 332.024 21.8494C331.045 22.3915 329.934 22.6471 328.817 22.5872C327.7 22.5273 326.623 22.1542 325.708 21.5105C325.204 21.1476 324.76 20.7073 324.393 20.2059C324.393 20.2059 324.393 20.2531 324.393 20.2466C322.263 17.5901 301.702 8.04209 295.066 24.7671C281.897 57.9577 332.049 74.1788 342.726 71.7082L342.715 71.7245C345.47 71.0893 348.351 71.2977 350.986 72.3224C353.621 73.3472 355.888 75.1411 357.492 77.4715C359.096 79.8018 359.964 82.5611 359.983 85.3915C360.002 88.2218 359.172 90.9926 357.599 93.3444C356.026 95.6962 353.784 97.5206 351.163 98.5808C348.542 99.641 345.663 99.8881 342.901 99.2902C340.138 98.6923 337.618 97.2768 335.668 95.2275C333.719 93.1781 332.429 90.5894 331.966 87.7972C330.157 76.8711 301.741 42.9515 269.454 62.0509C263.982 65.2863 258.132 67.6085 252.925 71.0934C228.555 87.4009 242.188 119.461 249.253 124.721L249.206 124.721C251.092 126.075 252.525 127.97 253.316 130.155C254.106 132.341 254.218 134.715 253.636 136.965C253.053 139.215 251.805 141.236 250.053 142.762C248.302 144.288 246.131 145.247 243.825 145.514C241.519 145.781 239.186 145.342 237.134 144.256C235.081 143.17 233.405 141.487 232.326 139.429C231.246 137.372 230.815 135.035 231.087 132.726C231.359 130.418 232.323 128.246 233.851 126.496L233.776 126.506C239.242 120.014 246.921 88.0075 220.839 76.6689C155.19 48.1031 116.555 124.704 116.919 143.988L116.897 143.965C117.118 154.78 110.03 164.772 99.1319 167.725C95.7779 168.634 92.2674 168.805 88.8411 168.227C85.4149 167.649 82.1541 166.335 79.2826 164.377C76.4111 162.418 73.9969 159.86 72.2057 156.879C70.4144 153.898 69.2886 150.564 68.9054 147.106C68.5223 143.648 68.8909 140.148 69.986 136.846C71.081 133.544 72.8766 130.519 75.2494 127.977C77.6223 125.436 80.5162 123.439 83.7326 122.123C86.949 120.807 90.4116 120.203 93.8829 120.353C112.612 121.169 177.163 84.2715 159.089 26.1581C147.653 -10.6153 87.09 3.89674 77.3673 13.5459L77.3673 13.5182C74.7076 16.156 71.3178 17.9328 67.6374 18.618C63.957 19.3033 60.1559 18.8653 56.727 17.3611C53.2982 15.8568 50.3999 13.3556 48.408 10.1819C46.4162 7.00812 45.4226 3.30829 45.5563 -0.437746C45.69 -4.18378 46.9447 -7.80318 49.1577 -10.8265C51.3707 -13.8498 54.4399 -16.1375 57.9672 -17.3928C61.4945 -18.6482 65.3172 -18.8134 68.9393 -17.8668C72.5615 -16.9203 75.8161 -14.9058 78.2809 -12.0846C88.1323 -0.811237 138.397 20.5402 171.855 -34.77C187.798 -61.1229 156.139 -83.1413 147.2 -83.8555L147.239 -83.8849C145.115 -84.0516 143.081 -84.8127 141.369 -86.0815C139.657 -87.3502 138.335 -89.0754 137.555 -91.0602C136.775 -93.045 136.568 -95.2094 136.957 -97.3063C137.347 -99.4033 138.317 -101.348 139.758 -102.92C141.198 -104.491 143.051 -105.625 145.105 -106.192C147.158 -106.76 149.329 -106.738 151.371 -106.129C153.412 -105.52 155.242 -104.348 156.65 -102.748C158.059 -101.148 158.989 -99.1838 159.336 -97.0793ZM299.5 -40.1433C299.416 -39.3818 299.559 -38.6123 299.912 -37.9323C300.264 -37.2522 300.81 -36.692 301.48 -36.3226C302.151 -35.9532 302.915 -35.791 303.678 -35.8567C304.44 -35.9224 305.166 -36.2129 305.764 -36.6915C306.361 -37.1701 306.803 -37.8154 307.035 -38.5457C307.266 -39.2761 307.276 -40.0587 307.063 -40.7947C306.85 -41.5306 306.424 -42.1869 305.839 -42.6805C305.254 -43.1741 304.536 -43.4829 303.775 -43.5679C303.27 -43.6243 302.758 -43.5805 302.27 -43.4389C301.782 -43.2973 301.326 -43.0607 300.929 -42.7427C300.532 -42.4246 300.201 -42.0314 299.956 -41.5854C299.711 -41.1393 299.556 -40.6493 299.5 -40.1433ZM235.219 -78.8948C235.063 -77.4808 235.329 -76.0521 235.984 -74.7894C236.638 -73.5268 237.652 -72.4867 238.897 -71.8009C240.142 -71.115 241.562 -70.814 242.977 -70.9359C244.393 -71.0579 245.74 -71.5973 246.85 -72.4861C247.959 -73.3748 248.781 -74.5729 249.21 -75.929C249.64 -77.2851 249.658 -78.7383 249.263 -80.1048C248.868 -81.4714 248.077 -82.69 246.991 -83.6066C245.904 -84.5233 244.571 -85.0968 243.159 -85.2547C242.22 -85.3604 241.269 -85.2796 240.362 -85.017C239.454 -84.7545 238.607 -84.3153 237.869 -83.7246C237.131 -83.1338 236.516 -82.4032 236.061 -81.5745C235.605 -80.7457 235.317 -79.8351 235.213 -78.8948L235.219 -78.8948ZM226.881 -105.541C226.608 -103.093 227.066 -100.619 228.197 -98.432C229.328 -96.2447 231.082 -94.4424 233.236 -93.253C235.39 -92.0636 237.848 -91.5405 240.299 -91.7498C242.75 -91.9591 245.084 -92.8916 247.005 -94.4291C248.927 -95.9667 250.351 -98.0403 251.095 -100.388C251.84 -102.735 251.873 -105.251 251.19 -107.618C250.507 -109.984 249.138 -112.094 247.257 -113.681C245.376 -115.269 243.068 -116.262 240.623 -116.536C238.999 -116.718 237.356 -116.578 235.786 -116.124C234.216 -115.671 232.751 -114.911 231.474 -113.89C230.197 -112.869 229.134 -111.607 228.345 -110.174C227.555 -108.741 227.056 -107.167 226.874 -105.541L226.881 -105.541ZM313.506 -52.3234C313.309 -50.5553 313.639 -48.7682 314.456 -47.1882C315.273 -45.6083 316.54 -44.3064 318.095 -43.4472C319.651 -42.588 321.427 -42.21 323.197 -42.3611C324.967 -42.5123 326.653 -43.1857 328.041 -44.2963C329.429 -45.4068 330.458 -46.9046 330.996 -48.6003C331.534 -50.2959 331.557 -52.1132 331.064 -53.8223C330.57 -55.5314 329.582 -57.0556 328.223 -58.2022C326.864 -59.3487 325.197 -60.066 323.431 -60.2635C321.063 -60.5282 318.688 -59.8404 316.826 -58.3514C314.965 -56.8624 313.771 -54.694 313.506 -52.3234ZM35.4764 114.512C30.4555 115.892 -8.91269 127.837 1.85724 136.455C8.5345 141.799 27.9409 132.783 34.0709 130.249C49.0704 124.052 62.9444 115.445 76.1393 106.057C83.3166 100.951 89.3489 95.5432 97.7639 92.7318C103.05 90.9641 112.706 89.8144 115.6 84.2519C108.324 83.1658 102.44 88.1429 96.0994 90.6934C89.8831 93.1998 83.5592 94.6969 77.4145 97.6012C63.3532 104.248 50.554 110.362 35.4764 114.512ZM150.206 124.378C154.017 127.791 157.55 127.459 160.515 125.357C164.75 122.366 167.82 115.786 168.895 111.384C173.416 92.89 134.736 110.525 150.206 124.378ZM101.137 193.268C103.694 191.448 103.975 189.287 103.125 187.226C101.914 184.29 98.4023 181.549 95.9154 180.308C85.4663 175.094 90.7479 200.663 101.137 193.268ZM152.275 132.075C149.869 132.715 149.06 134.243 149.117 136.009C149.2 138.531 151.05 141.543 152.55 143.158C158.859 149.947 162.046 129.482 152.275 132.075ZM116.384 164.663C114.341 163.237 112.654 163.606 111.345 164.791C109.475 166.484 108.376 169.847 108.114 172.034C107.011 181.237 124.668 170.45 116.384 164.663ZM198.423 178.384C213.499 177.333 200.934 145.948 200.419 138.023C199.788 128.274 212.512 96.3244 196.731 93.7217C194.356 93.3303 194.268 116.091 193.499 118.565C189.164 132.507 182.883 141.798 184.602 156.788C185.516 164.751 187.185 179.163 198.423 178.384ZM174.261 202.628C181.35 200.609 180.233 187.286 179.832 181.993C179.616 179.134 179.165 167.957 175.132 167.751C170.355 167.508 166.95 184.926 165.768 188.587C164.001 194.093 165.352 205.164 174.261 202.628ZM219.963 146.214C216.38 138.223 211.595 129.51 209.768 140.456C208.74 146.605 213.119 159.725 218.236 163.57C225.87 169.292 226.477 159.77 223.804 154.927C223.098 153.64 221.668 150.009 219.966 146.214L219.963 146.214ZM101.91 -33.1343C94.15 -26.3439 114.498 -25.7813 118.196 -24.4783C122.735 -22.8753 129.548 -11.1518 139.265 -17.5476C140.731 -18.5098 130.982 -22.9291 130.337 -23.7445C126.701 -28.3285 126.126 -32.8653 118.739 -34.9966C114.817 -36.1463 107.698 -38.1962 101.91 -33.1343ZM104.641 -48.3672C101.648 -44.8806 107.99 -42.7982 110.485 -41.9534C111.833 -41.4968 116.889 -39.5383 119.173 -41.262C121.88 -43.3021 116.242 -48.1487 115.31 -49.3717C113.91 -51.2096 108.405 -52.7506 104.641 -48.3672ZM104.016 -17.515C109.407 -17.5395 115.762 -17.952 112.048 -20.8613C109.962 -22.492 101.931 -23.1117 97.487 -21.6163C90.8651 -19.3822 94.6321 -17.2818 98.1694 -17.5167C99.114 -17.5786 101.462 -17.5036 104.016 -17.515ZM74.1475 46.836C70.3659 50.2508 73.6883 51.1216 72.9977 55.3974C71.7942 62.8418 63.4997 64.9308 57.1319 67.0671C44.279 71.3788 29.6086 73.2509 17.7312 80.0788C8.79507 85.2206 9.19408 90.6934 19.4347 93.3189C33.8039 97.0044 50.9742 92.4318 64.2212 86.9019C80.6033 80.0658 95.1386 69.779 110.073 60.3386C116.867 56.0448 123.843 51.4787 130.831 47.6188C135.503 45.0438 146.14 42.963 147.443 36.7188C148.223 32.9681 100.578 42.2797 97.3241 42.7966C91.8537 43.6756 78.4992 42.9043 74.1475 46.836ZM35.0155 38.4915C29.8333 37.2374 22.8711 34.4651 16.5928 38.3724C4.25779 46.0516 27.3611 50.8069 30.9636 50.5052C35.5025 50.1252 40.1831 48.1243 44.7692 47.1361C47.8066 46.4838 53.0392 47.64 55.8437 43.9806C55.5082 44.4192 48.5834 42.464 42.7791 40.7615C39.0512 39.6672 35.7842 38.6725 35.0155 38.4915ZM266.003 -114.962C267.501 -110.386 267.795 -104.046 265.585 -98.8079C264.259 -95.6769 260.573 -89.9252 264 -87.8411C265.669 -86.8251 266.127 -87.0143 266.443 -85.1928C266.668 -83.867 266.321 -82.2574 266.471 -80.8892C266.767 -78.1528 267.69 -75.3169 270.498 -74.3369C275.12 -72.7224 274.244 -77.8397 273.149 -79.9727C272.426 -81.3752 269.687 -84.6399 273.133 -85.9462C275.889 -86.9898 280.289 -83.7055 282.823 -87.1806C283.994 -88.7886 283.504 -91.2314 282.511 -92.3093C281.517 -93.3873 279.416 -93.19 280.301 -95.3262C281.146 -97.3549 284.818 -98.4377 286.633 -99.5156C291.971 -102.687 295.315 -105.876 295.657 -111.547C295.746 -113.015 296.118 -116.113 294.704 -116.929C293.422 -117.656 291.719 -116.581 290.224 -116.259C285.286 -115.194 287.563 -118.379 285.414 -120.551C281.216 -124.791 273.617 -112.754 273.135 -122.623C272.972 -125.937 274.643 -138.228 267.078 -134.28C259.033 -130.081 264.578 -119.319 266 -115.006L266.003 -114.962ZM310.088 -74.5505C307.883 -71.6999 307.506 -69.4316 308.283 -67.7633C311.215 -61.4637 330.606 -63.7174 330.128 -75.5567C329.804 -83.7104 314.724 -80.5353 310.094 -74.557L310.088 -74.5505ZM343.062 -96.5803C347.92 -95.5692 352.996 -102.387 347.272 -103.79C341.727 -105.16 337.671 -97.7104 343.068 -96.5868L343.062 -96.5803ZM294.367 -78.5931C295.134 -78.0484 296.228 -77.8413 297.497 -78.1854C300.352 -78.96 303.394 -82.1188 304.803 -84.4752C305.637 -85.8695 306.218 -86.4321 307.718 -87.3209C308.847 -87.9862 311.913 -89.0527 312.246 -90.478C312.664 -92.2718 310.042 -91.675 308.826 -91.1678C306.352 -90.1355 304.822 -88.0547 303.125 -86.1663C301.674 -84.5486 300.14 -84.591 298.658 -84.7084C296.956 -84.8438 295.321 -85.0786 293.96 -83.0206C293.077 -81.6867 293.074 -80.4 293.611 -79.4574C293.057 -79.8227 292.264 -80.0429 291.168 -80.0216C285.077 -79.9075 283.011 -72.1729 288.875 -72.4648C292.644 -72.6588 295.375 -76.4585 294.381 -78.5997L294.367 -78.5931ZM322.252 -100.086C320.949 -98.1752 318.21 -97.6631 316.574 -96.2019C316.387 -96.0353 316.214 -95.8525 316.058 -95.6557C314.283 -93.4036 317.314 -91.9718 318.869 -91.1907C321.597 -89.8225 328.73 -87.8786 332.085 -90.2253C334.106 -91.6391 333.991 -94.7685 333.598 -96.4319C332.9 -99.3852 330.649 -103.542 327.025 -103.858C324.255 -104.108 323.62 -102.071 322.266 -100.093L322.252 -100.086ZM184.43 -116.361C181.661 -120.719 176.803 -117.992 173.378 -120.652C169.61 -123.572 168.359 -148.384 158.364 -135.607C150.579 -125.66 167.378 -113.907 170.105 -105.153C171.486 -100.721 174.453 -83.6093 179.311 -81.5285C186.335 -78.523 182.345 -94.3886 182.731 -97.7185C183.301 -102.681 187.422 -111.67 184.444 -116.368L184.43 -116.361ZM177.139 -144.725C173.881 -141.744 174.389 -142.103 174.574 -137.876C174.749 -133.853 175.78 -119.227 182.21 -127.059C184.585 -129.952 183.247 -133.409 183.848 -136.716C184.37 -139.578 188.483 -144.42 187.933 -147.153C186.609 -153.776 179.722 -147.085 177.153 -144.731L177.139 -144.725ZM315.64 86.4078C312.943 82.5527 310.55 77.8219 305.482 81.0573C309.109 78.7416 326.11 151.954 351.306 128.313C371.349 109.502 326.344 97.6469 317.552 88.7887C316.849 88.0502 316.209 87.2537 315.64 86.4078ZM340.663 189.497C328.123 196.805 350.598 196.565 349.045 197.945C354.449 193.137 351.342 183.278 340.663 189.497ZM346.088 205.948C336.795 212.789 353.07 215.328 361.061 210.522C372.282 203.765 353.542 200.464 346.088 205.948ZM315.307 138.84C322.224 146.869 322.157 156.336 325.923 165.52C327.255 168.767 336.756 185.252 343.77 176.9C351.537 167.64 335.232 157.084 330.017 151.966C317.931 140.105 316.618 124.515 309.109 110.995C298.821 124.028 308.313 130.712 315.316 138.84L315.307 138.84Z" fill="url(#paint0_linear_584_6771)"/>

</svg>
