<svg width="30" height="24" viewBox="0 0 30 24" fill="none" xmlns="http://www.w3.org/2000/svg">
<path d="M0 7.20865C0.26721 6.77901 0.513865 6.33934 0.807503 5.9319C2.10685 4.13529 3.42822 2.35156 4.7305 0.555668C5.01019 0.170424 5.35448 0 5.84118 0C11.9557 0.00811542 18.0704 0.00811542 24.1854 0C24.6604 0 24.9981 0.169708 25.2712 0.544927C26.7063 2.51841 28.1415 4.49117 29.6023 6.44675C29.7843 6.67617 29.9086 6.94404 29.9652 7.22883C30.0218 7.51362 30.0092 7.8074 29.9282 8.08654C29.5722 9.47357 28.7111 10.4231 27.3017 10.8248C25.8922 11.2265 24.6626 10.8785 23.607 9.89891C23.5593 9.85451 23.5093 9.81155 23.4433 9.7557C22.6739 10.5434 21.7475 10.9802 20.6346 10.9809C19.5217 10.9816 18.5953 10.5441 17.8355 9.76357C16.084 11.5323 13.5778 11.2272 12.1926 9.75498C11.435 10.5298 10.5137 10.9723 9.403 10.9795C8.29232 10.9866 7.35708 10.5584 6.59069 9.76715C6.32642 9.9741 6.08416 10.1932 5.81255 10.3715C3.59265 11.8258 0.513865 10.5355 0.0601956 7.96839C0.0455138 7.88604 0.0205546 7.80513 0 7.7235V7.20865Z" fill="#333333" fill-opacity="0.3"/>
<path d="M18.7669 23.7893H4.01166C2.62569 23.7893 1.87839 23.0597 1.87839 21.7063V12.5535C2.60587 12.6251 3.3084 12.7297 4.01313 12.7512C4.82504 12.7755 5.5973 12.5628 6.31671 12.1912C6.38885 12.1468 6.4719 12.1222 6.55715 12.1199C6.6424 12.1177 6.72671 12.1378 6.80122 12.1783C8.52633 13.0004 10.2573 12.9939 11.981 12.1712C12.0467 12.1344 12.1211 12.1151 12.1968 12.1151C12.2725 12.1151 12.3469 12.1344 12.4126 12.1712C14.1368 12.9918 15.8634 12.993 17.5924 12.1747C17.6623 12.136 17.7414 12.1157 17.8218 12.1157C17.9022 12.1157 17.9813 12.136 18.0512 12.1747C19.777 12.9954 21.5051 12.9853 23.2361 12.1747C23.3411 12.126 23.5092 12.1031 23.6031 12.1511C25.0199 12.855 26.48 13.0025 27.9982 12.5163C28.0431 12.5069 28.0888 12.5009 28.1347 12.4984V12.8192C28.1347 15.7914 28.1347 18.7637 28.1347 21.7364C28.1347 23.0454 27.3742 23.7822 26.0234 23.7829H24.3864V14.6552H18.7669V23.7893ZM5.63988 20.1102H13.1063V14.6566H5.63988V20.1102Z" fill="#333333" fill-opacity="0.3"/>
</svg>
