<svg width="275" height="173" viewBox="0 0 275 173" fill="none" xmlns="http://www.w3.org/2000/svg">
<path d="M113.703 150.915L112.164 150.119L111.587 149.821L108.904 148.429L106.794 147.324C106.614 147.271 106.517 147.097 106.576 146.936C106.61 146.844 106.691 146.771 106.794 146.74L108.327 145.932C108.681 145.776 109.096 145.776 109.45 145.932L110.996 146.74C111.358 146.9 111.781 146.9 112.142 146.74L113.666 145.946C114.023 145.785 114.444 145.785 114.801 145.946L116.347 146.75C116.665 146.912 116.665 147.176 116.347 147.324L114.823 148.122C114.639 148.175 114.538 148.35 114.596 148.514C114.63 148.611 114.715 148.687 114.823 148.717L116.36 149.516C116.679 149.686 116.679 149.952 116.371 150.111L114.836 150.918C114.665 151.003 114.472 151.046 114.278 151.042C114.077 151.043 113.879 150.999 113.703 150.915ZM119.028 148.142L117.494 147.346C117.177 147.177 117.177 146.911 117.48 146.752L119.018 145.947C119.199 145.89 119.294 145.712 119.229 145.55C119.194 145.461 119.117 145.391 119.018 145.36L117.47 144.555C117.151 144.386 117.151 144.123 117.47 143.961L118.993 143.165C119.35 143.005 119.77 143.005 120.126 143.165L121.675 143.969L122.241 144.267L124.355 145.36C124.539 145.417 124.638 145.596 124.575 145.762C124.541 145.85 124.467 145.921 124.369 145.954L122.265 147.049L120.162 148.141C119.989 148.224 119.795 148.265 119.599 148.262C119.4 148.265 119.204 148.223 119.027 148.141L119.028 148.142ZM113.666 145.359L112.116 144.555C111.935 144.496 111.841 144.318 111.906 144.156C111.941 144.069 112.018 143.999 112.116 143.968L113.651 143.164C114.004 143.003 114.421 143.003 114.773 143.164L116.319 143.969C116.642 144.131 116.642 144.396 116.335 144.555L114.8 145.361C114.627 145.443 114.433 145.484 114.237 145.48C114.038 145.483 113.842 145.441 113.666 145.359ZM108.288 145.34L106.753 144.541L106.172 144.243L103.491 142.855L100.811 141.461L98.1292 140.073L95.4492 138.681L93.333 137.585C93.014 137.415 93.014 137.149 93.333 136.99L94.8558 136.192C95.2134 136.034 95.6331 136.034 95.9908 136.192L97.5394 136.999L98.1087 137.298L100.788 138.69L103.47 140.08L105.581 141.175C105.938 141.334 106.359 141.334 106.716 141.175L108.819 140.08L110.923 138.988C111.107 138.93 111.204 138.752 111.14 138.587C111.105 138.496 111.025 138.425 110.923 138.393L109.385 137.597C109.024 137.437 108.6 137.437 108.239 137.597L106.716 138.393C106.358 138.554 105.937 138.554 105.58 138.393L104.031 137.585C103.848 137.532 103.747 137.356 103.807 137.191C103.841 137.097 103.925 137.022 104.031 136.99L105.555 136.192C105.738 136.14 105.84 135.965 105.782 135.8C105.748 135.703 105.663 135.628 105.555 135.597L104.022 134.799C103.66 134.642 103.238 134.642 102.876 134.799L101.352 135.597C100.995 135.758 100.575 135.758 100.218 135.597L98.1069 134.503L95.9889 133.407C95.8056 133.35 95.7085 133.171 95.7718 133.007C95.8074 132.915 95.887 132.844 95.9889 132.813L97.5159 132.021C97.8772 131.861 98.3005 131.861 98.6618 132.021L100.197 132.817C100.554 132.977 100.974 132.977 101.331 132.817L103.437 131.725L106.107 130.333L108.764 128.942L110.868 127.848C111.051 127.792 111.148 127.612 111.085 127.448C111.049 127.357 110.97 127.285 110.868 127.254L109.333 126.458C109.15 126.403 109.051 126.226 109.112 126.061C109.147 125.968 109.229 125.894 109.333 125.864L110.855 125.067C111.215 124.906 111.639 124.906 112 125.067L113.535 125.861L114.115 126.159L116.226 127.253C116.579 127.413 116.996 127.413 117.349 127.253L119.453 126.159L121.556 125.067C121.739 125.002 121.829 124.816 121.758 124.653C121.721 124.57 121.648 124.504 121.556 124.472L120.007 123.664C119.688 123.507 119.699 123.241 120.007 123.08L121.542 122.27C121.896 122.113 122.311 122.113 122.664 122.27L124.214 123.08L124.78 123.378L126.894 124.471C127.255 124.631 127.678 124.631 128.039 124.471L129.563 123.676C129.919 123.516 130.34 123.516 130.696 123.676L132.811 124.769L135.491 126.161L138.173 127.552L140.287 128.655C140.478 128.722 140.573 128.915 140.499 129.086C140.462 129.169 140.391 129.237 140.299 129.271L138.774 130.07C138.414 130.231 137.989 130.231 137.629 130.07L136.094 129.271C135.736 129.114 135.316 129.114 134.959 129.271L132.865 130.365L130.761 131.459C130.404 131.619 129.985 131.619 129.628 131.459L128.078 130.651C127.895 130.597 127.795 130.42 127.855 130.256C127.89 130.161 127.973 130.087 128.078 130.056L129.606 129.258C129.789 129.205 129.889 129.028 129.83 128.865C129.796 128.768 129.712 128.694 129.606 128.663L128.067 127.864C127.706 127.706 127.283 127.706 126.922 127.864L125.397 128.668C125.039 128.826 124.621 128.826 124.263 128.668L122.714 127.857C122.362 127.697 121.946 127.697 121.593 127.857L120.055 128.668C119.738 128.826 119.748 129.091 120.055 129.252L122.169 130.345L124.853 131.737L127.536 133.128L129.65 134.221C129.833 134.278 129.93 134.457 129.867 134.621C129.831 134.713 129.752 134.784 129.65 134.816L128.127 135.611C127.765 135.77 127.342 135.77 126.981 135.611L125.446 134.815C125.085 134.654 124.661 134.654 124.3 134.815L122.197 135.908L120.094 137.002C119.912 137.063 119.82 137.246 119.889 137.409C119.927 137.497 120.006 137.565 120.105 137.596L121.642 138.391C121.824 138.448 121.922 138.628 121.858 138.791C121.823 138.883 121.744 138.954 121.642 138.986L119.538 140.067L117.436 141.159C117.078 141.317 116.659 141.317 116.3 141.159L114.766 140.362C114.404 140.205 113.982 140.205 113.62 140.362L111.52 141.455L109.415 142.552C109.233 142.611 109.139 142.791 109.204 142.954C109.241 143.046 109.323 143.117 109.427 143.147L110.962 143.945C111.145 143.997 111.247 144.172 111.189 144.337C111.154 144.434 111.07 144.509 110.962 144.539L109.438 145.339C109.076 145.495 108.654 145.495 108.292 145.339L108.288 145.34ZM113.567 129.25L111.463 130.344L108.809 131.735L106.706 132.828C106.523 132.884 106.424 133.063 106.487 133.226C106.522 133.318 106.603 133.391 106.706 133.423L108.816 134.515L111.496 135.907L113.611 137C113.972 137.16 114.395 137.16 114.756 137L116.861 135.907L119.518 134.515L121.619 133.423C121.803 133.366 121.9 133.186 121.837 133.023C121.801 132.931 121.721 132.86 121.619 132.828L119.505 131.735L116.831 130.345L114.714 129.251C114.354 129.091 113.93 129.091 113.568 129.251L113.567 129.25ZM129.67 142.567L127.555 141.473L124.877 140.081L122.759 138.976C122.579 138.917 122.486 138.74 122.551 138.578C122.586 138.492 122.662 138.424 122.759 138.392L124.296 137.584C124.65 137.428 125.065 137.428 125.419 137.584L126.964 138.392L127.545 138.691L129.66 139.784C130.016 139.944 130.436 139.944 130.793 139.784L132.897 138.691L135.001 137.597C135.184 137.534 135.275 137.35 135.205 137.186C135.17 137.101 135.095 137.034 135.001 137.003L133.452 136.195C133.133 136.038 133.133 135.771 133.452 135.611L134.987 134.816C135.169 134.753 135.26 134.57 135.19 134.406C135.152 134.319 135.075 134.252 134.976 134.221L133.426 133.413C133.243 133.357 133.146 133.177 133.209 133.013C133.245 132.921 133.324 132.85 133.426 132.819L134.95 132.023C135.307 131.863 135.728 131.863 136.085 132.023L137.635 132.827L138.214 133.126L140.892 134.517L143.007 135.611C143.328 135.78 143.328 136.046 143.007 136.205L140.906 137.299L138.249 138.691L135.579 140.082L132.908 141.473L130.806 142.567C130.633 142.649 130.439 142.691 130.243 142.687C130.044 142.69 129.847 142.648 129.669 142.567L129.67 142.567ZM89.5656 138.404L88.0308 137.609C87.7142 137.438 87.7022 137.172 88.0212 137.013L89.5548 136.202C89.9118 136.042 90.3328 136.042 90.6898 136.202L92.2246 136.998C92.5424 137.168 92.5424 137.435 92.2342 137.593L90.7 138.4C90.5312 138.485 90.3394 138.528 90.1458 138.525C89.9438 138.527 89.7442 138.484 89.5656 138.4V138.404ZM84.2146 135.632L82.1002 134.539L79.9859 133.443C79.6669 133.273 79.6572 133.01 79.975 132.847L82.0785 131.755L84.7471 130.363L87.4061 128.972L89.509 127.875C89.8159 127.708 89.8268 127.442 89.509 127.28L87.9603 126.472C87.7806 126.416 87.6859 126.24 87.7486 126.079C87.7836 125.99 87.8614 125.92 87.9603 125.888L89.4939 125.081C89.8159 124.912 89.8027 124.645 89.483 124.486L87.9476 123.695C87.7649 123.638 87.6678 123.458 87.7311 123.295C87.7661 123.203 87.8463 123.132 87.9476 123.1L89.4716 122.301C89.8334 122.144 90.2556 122.144 90.6174 122.301L92.1516 123.1C92.5092 123.257 92.9284 123.257 93.286 123.1L94.8232 122.292C95.1748 122.132 95.5909 122.132 95.9425 122.292L98.0605 123.385L100.741 124.776L103.424 126.167L105.523 127.263C105.713 127.317 105.818 127.5 105.757 127.67C105.726 127.759 105.654 127.831 105.559 127.868L104.025 128.675C103.668 128.836 103.248 128.836 102.891 128.675L101.356 127.877C101 127.716 100.579 127.716 100.222 127.877L98.6997 128.675C98.3385 128.836 97.9146 128.836 97.5539 128.675L96.0185 127.877C95.8352 127.822 95.7363 127.644 95.7978 127.48C95.8328 127.387 95.9142 127.314 96.0185 127.282L97.5425 126.487C97.7252 126.43 97.8223 126.251 97.7596 126.086C97.724 125.995 97.6444 125.924 97.5425 125.892L96.0046 125.1C95.6434 124.941 95.22 124.941 94.8588 125.1L93.336 125.895C93.1527 125.952 93.0556 126.131 93.1189 126.296C93.1545 126.387 93.2341 126.458 93.336 126.49L94.8727 127.284C95.1893 127.454 95.2013 127.72 94.8823 127.88L92.7788 128.976L90.1084 130.365L88.0037 131.459C87.8216 131.519 87.7287 131.7 87.7962 131.862C87.8336 131.953 87.915 132.024 88.0182 132.053L89.5518 132.851C89.7345 132.905 89.8352 133.08 89.7761 133.245C89.7417 133.34 89.6579 133.415 89.5518 133.446L87.4549 134.539L85.3478 135.632C85.1777 135.716 84.9853 135.759 84.7911 135.755C84.5903 135.758 84.3919 135.715 84.2146 135.632ZM113.594 134.219L112.049 133.411C111.869 133.356 111.773 133.18 111.835 133.019C111.87 132.929 111.949 132.858 112.049 132.827L113.582 132.023C113.934 131.862 114.35 131.862 114.702 132.023L116.253 132.827C116.432 132.879 116.532 133.051 116.474 133.213C116.441 133.307 116.358 133.381 116.253 133.411L114.718 134.219C114.365 134.38 113.947 134.38 113.594 134.219ZM92.2119 134.219L90.6765 133.426C90.4968 133.37 90.4021 133.193 90.4654 133.031C90.4998 132.943 90.5776 132.873 90.6765 132.842L92.2113 132.034C92.5647 131.874 92.982 131.874 93.3354 132.034L94.8721 132.827C95.1887 132.989 95.1887 133.254 94.8817 133.411L93.3481 134.219C93.175 134.302 92.9808 134.343 92.7848 134.339C92.5858 134.343 92.3886 134.302 92.2119 134.219ZM145.68 134.209L144.143 133.411L143.564 133.116L141.453 132.02C141.134 131.85 141.134 131.587 141.453 131.425L142.976 130.626C143.334 130.469 143.752 130.469 144.11 130.626L145.656 131.434L146.225 131.733L148.339 132.825C148.656 132.988 148.656 133.252 148.348 133.409L146.825 134.208C146.465 134.369 146.041 134.369 145.68 134.208V134.209ZM76.1576 131.436L74.0432 130.345L71.3608 128.952L69.2464 127.858C68.9274 127.687 68.9177 127.421 69.2355 127.263L71.3385 126.17L74.0058 124.776L76.6648 123.384L79.3364 121.993L81.4363 120.9C81.7915 120.735 82.2148 120.735 82.57 120.9L84.1085 121.694C84.4275 121.856 84.4383 122.12 84.1416 122.268L82.608 123.079L82.0424 123.377L79.9376 124.47C79.7549 124.533 79.6632 124.717 79.7332 124.882C79.7688 124.966 79.8436 125.033 79.9376 125.066L81.4839 125.871C81.6648 125.928 81.7589 126.106 81.6944 126.269C81.6594 126.357 81.5822 126.426 81.4839 126.457L79.9485 127.263C79.767 127.326 79.6765 127.51 79.7471 127.673C79.7845 127.76 79.8629 127.828 79.9606 127.858L81.4978 128.653C81.6811 128.71 81.7782 128.889 81.7149 129.054C81.6793 129.145 81.5997 129.216 81.4978 129.248L79.3949 130.345L77.292 131.437C77.1207 131.522 76.9283 131.564 76.7335 131.561C76.5327 131.563 76.3343 131.52 76.157 131.436H76.1576ZM153.664 130.045L152.131 129.249C151.947 129.191 151.851 129.011 151.917 128.846C151.953 128.757 152.031 128.686 152.131 128.654L153.655 127.86C154.009 127.694 154.432 127.694 154.788 127.86L156.323 128.654C156.641 128.816 156.655 129.08 156.336 129.249L154.812 130.045C154.635 130.126 154.437 130.167 154.236 130.164C154.037 130.167 153.841 130.126 153.664 130.045ZM145.643 128.653L144.095 127.848C143.911 127.789 143.817 127.607 143.883 127.443C143.919 127.355 143.996 127.285 144.095 127.254L145.621 126.458C145.977 126.298 146.396 126.298 146.752 126.458L148.305 127.263C148.489 127.32 148.587 127.5 148.523 127.664C148.489 127.754 148.413 127.824 148.314 127.857L146.79 128.652C146.43 128.813 146.005 128.813 145.645 128.652L145.643 128.653ZM153.655 127.263L152.105 126.457C151.785 126.287 151.785 126.021 152.105 125.862L153.627 125.068C153.984 124.908 154.404 124.908 154.761 125.068L156.309 125.872C156.493 125.931 156.587 126.113 156.522 126.277C156.486 126.365 156.408 126.435 156.309 126.466L154.788 127.263C154.612 127.345 154.417 127.386 154.219 127.383C154.022 127.388 153.828 127.346 153.655 127.263V127.263ZM84.1422 127.263L82.6086 126.467C82.4253 126.409 82.3306 126.227 82.397 126.063C82.4325 125.974 82.5103 125.905 82.6086 125.873L84.1326 125.078C84.4938 124.918 84.9172 124.918 85.2784 125.078L86.8132 125.873C87.1305 126.035 87.1305 126.3 86.8132 126.467L85.2911 127.263C85.1138 127.345 84.9172 127.387 84.7182 127.383C84.518 127.387 84.3201 127.345 84.1416 127.263L84.1422 127.263ZM140.268 125.871L138.721 125.067C138.539 125.01 138.441 124.831 138.505 124.667C138.54 124.575 138.62 124.504 138.721 124.472L140.246 123.677C140.429 123.62 140.526 123.441 140.462 123.277C140.427 123.185 140.348 123.114 140.246 123.083L138.711 122.287C138.528 122.228 138.433 122.047 138.499 121.882C138.535 121.794 138.613 121.725 138.711 121.693L140.801 120.6L142.904 119.506C143.265 119.346 143.689 119.346 144.049 119.506L145.588 120.302C145.775 120.365 145.868 120.554 145.796 120.721C145.759 120.807 145.684 120.875 145.588 120.907L144.063 121.694C143.879 121.758 143.788 121.941 143.858 122.106C143.894 122.19 143.969 122.257 144.063 122.29L145.608 123.097C145.787 123.15 145.885 123.323 145.827 123.485C145.792 123.577 145.711 123.65 145.608 123.68L143.506 124.776L141.405 125.869C141.047 126.031 140.626 126.031 140.268 125.869V125.871ZM161.639 125.861L144.002 116.709C143.818 116.652 143.721 116.472 143.785 116.309C143.82 116.217 143.899 116.146 144.002 116.114L146.105 115.021L148.774 113.629L151.433 112.237L154.1 110.847L156.759 109.455L159.428 108.063L161.531 106.97C161.892 106.81 162.315 106.81 162.677 106.97L180.313 116.122C180.497 116.186 180.588 116.371 180.516 116.535C180.481 116.618 180.406 116.685 180.313 116.717L178.21 117.809L175.541 119.202L172.884 120.592L170.215 121.984L167.553 123.376L164.889 124.768L162.784 125.861C162.424 126.022 161.999 126.022 161.638 125.861L161.639 125.861ZM161.803 109.635L159.451 110.855L156.794 112.247L154.127 113.64L151.468 115.031L149.116 116.252C148.948 116.338 148.948 116.496 149.126 116.592L161.874 123.208C162.078 123.304 162.321 123.304 162.525 123.208L164.877 121.987L167.536 120.595L170.203 119.204L172.862 117.812L175.214 116.591C175.319 116.557 175.373 116.453 175.334 116.359C175.314 116.309 175.27 116.27 175.214 116.251L162.455 109.633C162.35 109.588 162.234 109.565 162.117 109.566C162.008 109.563 161.9 109.586 161.803 109.633V109.635ZM64.8072 125.861L47.1698 116.709C46.9865 116.652 46.8894 116.472 46.9527 116.309C46.9883 116.217 47.0679 116.146 47.1698 116.114L49.2721 115.021L51.9449 113.629L54.6033 112.237L57.2712 110.847L59.9296 109.455L62.5988 108.063L64.7011 106.97C65.0617 106.809 65.4857 106.809 65.8469 106.97L83.4849 116.121C83.8021 116.291 83.8021 116.557 83.4849 116.715L81.3796 117.808L78.7104 119.202L76.0484 120.593L73.3792 121.985L70.7221 123.376L68.0529 124.768L65.9494 125.86C65.5888 126.022 65.1648 126.022 64.8042 125.86L64.8072 125.861ZM64.9712 109.633L62.6193 110.855L59.9609 112.247L57.2948 113.64L54.6364 115.031L52.2959 116.251C52.115 116.337 52.1065 116.495 52.2959 116.59L65.0545 123.208C65.2577 123.304 65.5007 123.304 65.7046 123.208L68.0451 121.987L70.7016 120.596L73.3708 119.204L76.0279 117.813L78.3799 116.591C78.4842 116.558 78.5391 116.455 78.5023 116.362C78.4818 116.31 78.4366 116.27 78.3799 116.252L65.6226 109.635C65.5176 109.589 65.4018 109.566 65.2842 109.567C65.1751 109.564 65.0671 109.587 64.9706 109.635L64.9712 109.633ZM110.853 124.469L109.319 123.674C108.963 123.509 108.54 123.509 108.185 123.674L106.661 124.469C106.3 124.628 105.877 124.628 105.516 124.469L103.399 123.375L101.285 122.282C101.102 122.226 101.005 122.047 101.068 121.882C101.104 121.791 101.183 121.719 101.285 121.688L103.389 120.595L105.491 119.502C105.849 119.341 106.269 119.341 106.627 119.502L108.737 120.595L110.853 121.686C111.214 121.846 111.638 121.846 111.999 121.686L113.523 120.89C113.88 120.73 114.3 120.73 114.657 120.89L116.192 121.686C116.374 121.749 116.464 121.932 116.394 122.095C116.357 122.182 116.279 122.25 116.181 122.28L114.657 123.075L114.091 123.373L111.989 124.467C111.818 124.551 111.626 124.594 111.431 124.59C111.23 124.594 111.031 124.552 110.853 124.469ZM148.278 124.469L146.743 123.674C146.559 123.617 146.462 123.437 146.526 123.273C146.561 123.182 146.64 123.11 146.743 123.079L148.267 122.284C148.627 122.122 149.051 122.122 149.412 122.284L150.95 123.079C151.252 123.248 151.268 123.515 150.95 123.674L149.426 124.469C149.066 124.628 148.642 124.628 148.281 124.469H148.278ZM134.987 123.087L133.44 122.282C133.087 122.121 132.67 122.121 132.317 122.282L130.784 123.087C130.427 123.247 130.006 123.247 129.649 123.087L127.535 121.993L125.417 120.9C125.237 120.843 125.143 120.667 125.206 120.506C125.241 120.417 125.318 120.348 125.417 120.317L126.955 119.506C127.307 119.346 127.723 119.346 128.075 119.506L129.624 120.317C129.982 120.474 130.4 120.474 130.757 120.317L132.281 119.518C132.464 119.46 132.56 119.279 132.495 119.115C132.459 119.026 132.381 118.955 132.281 118.923L130.732 118.115C130.377 117.95 129.954 117.95 129.598 118.115L128.075 118.911C127.713 119.072 127.289 119.072 126.929 118.911L124.814 117.817L122.133 116.426L119.453 115.034L117.339 113.942C116.982 113.781 116.561 113.781 116.204 113.942L114.102 115.034L112 116.133C111.642 116.291 111.223 116.291 110.865 116.133L109.316 115.322C109.132 115.264 109.038 115.082 109.104 114.918C109.139 114.829 109.217 114.76 109.316 114.728L110.841 113.933C111.024 113.878 111.123 113.7 111.061 113.536C111.027 113.443 110.945 113.369 110.841 113.338L109.306 112.543C108.945 112.382 108.521 112.382 108.16 112.543L106.636 113.338C106.453 113.395 106.356 113.574 106.419 113.738C106.455 113.829 106.534 113.901 106.636 113.933L108.17 114.728C108.489 114.898 108.489 115.164 108.181 115.322L106.08 116.417L103.979 117.513C103.618 117.672 103.194 117.672 102.834 117.513L100.717 116.419L98.6027 115.325C98.4193 115.268 98.3222 115.089 98.3856 114.925C98.4211 114.834 98.5007 114.762 98.6027 114.73L100.127 113.935C100.31 113.878 100.407 113.698 100.344 113.535C100.308 113.443 100.229 113.372 100.127 113.34L98.5918 112.545C98.274 112.375 98.274 112.109 98.5809 111.95L100.116 111.146C100.473 110.985 100.894 110.985 101.251 111.146L102.785 111.94C103.146 112.1 103.57 112.1 103.93 111.94L105.455 111.146C105.639 111.088 105.736 110.909 105.672 110.745C105.637 110.653 105.557 110.582 105.455 110.55L103.34 109.457L101.224 108.364C101.043 108.307 100.948 108.129 101.012 107.967C101.047 107.879 101.125 107.809 101.224 107.777L102.76 106.973C103.113 106.812 103.53 106.812 103.883 106.973L105.429 107.777C105.786 107.938 106.207 107.938 106.564 107.777L108.088 106.982C108.271 106.92 108.363 106.735 108.292 106.571C108.257 106.486 108.182 106.419 108.088 106.388L106.541 105.577C106.222 105.406 106.222 105.14 106.541 104.982L108.065 104.187C108.385 104.017 108.372 103.754 108.053 103.591L106.518 102.793C106.335 102.734 106.24 102.552 106.306 102.388C106.342 102.3 106.42 102.23 106.518 102.199L108.042 101.404C108.403 101.242 108.827 101.242 109.188 101.404L110.721 102.199L111.302 102.497L113.983 103.888L116.663 105.28L119.345 106.671L121.46 107.765C121.643 107.823 121.738 108.005 121.671 108.169C121.636 108.258 121.558 108.327 121.46 108.359L119.936 109.154C119.575 109.316 119.151 109.316 118.79 109.154L117.254 108.359C116.897 108.199 116.478 108.199 116.121 108.359L114.017 109.452L111.914 110.546C111.731 110.602 111.634 110.781 111.697 110.946C111.732 111.036 111.812 111.108 111.914 111.14L113.449 111.935C113.81 112.095 114.234 112.095 114.595 111.935L116.118 111.14C116.475 110.98 116.895 110.98 117.251 111.14L119.366 112.233L122.046 113.625L124.728 115.016L126.832 116.11C127.193 116.27 127.616 116.27 127.978 116.11L130.067 115.016L132.171 113.92C132.533 113.763 132.954 113.763 133.316 113.92L134.855 114.719C135.038 114.775 135.137 114.953 135.074 115.118C135.039 115.209 134.958 115.282 134.855 115.314L133.331 116.112C133.025 116.282 133.013 116.548 133.331 116.707L134.88 117.518C135.236 117.677 135.655 117.677 136.012 117.518L137.536 116.723C137.897 116.562 138.32 116.562 138.681 116.723L140.215 117.518C140.534 117.687 140.534 117.953 140.275 118.112L138.751 118.908L138.183 119.206L136.091 120.299C135.907 120.363 135.816 120.548 135.888 120.712C135.924 120.795 135.998 120.862 136.091 120.894L137.639 121.699C137.823 121.756 137.92 121.935 137.856 122.099C137.821 122.19 137.741 122.262 137.639 122.294L136.121 123.087C135.945 123.169 135.749 123.21 135.551 123.207C135.355 123.211 135.161 123.171 134.988 123.089L134.987 123.087ZM121.543 121.686L120.009 120.89L119.43 120.592L117.314 119.5C116.996 119.329 116.996 119.063 117.314 118.905L118.838 118.109C119.194 117.949 119.615 117.949 119.972 118.109L121.51 118.905L122.086 119.203L124.201 120.296C124.523 120.466 124.523 120.732 124.215 120.891L122.691 121.687C122.513 121.769 122.315 121.81 122.115 121.807C121.917 121.81 121.72 121.769 121.544 121.688L121.543 121.686ZM89.4438 121.676L87.3331 120.583L85.2193 119.486C84.9015 119.317 84.9015 119.051 85.2079 118.892L87.3078 117.801L89.4113 116.705C89.5946 116.645 89.6893 116.464 89.6229 116.299C89.5874 116.211 89.5096 116.142 89.4113 116.11L87.2969 115.019L84.6193 113.627L81.9368 112.235L79.8224 111.142C79.6397 111.085 79.542 110.906 79.6053 110.742C79.6409 110.65 79.7205 110.578 79.8224 110.547L81.3464 109.752C81.5297 109.696 81.6274 109.517 81.5653 109.353C81.5303 109.26 81.4495 109.189 81.3464 109.157L79.8092 108.361C79.4485 108.201 79.0246 108.201 78.6633 108.361L77.14 109.157C76.783 109.317 76.3626 109.317 76.0056 109.157L74.4569 108.349C74.2736 108.296 74.1729 108.12 74.232 107.955C74.2664 107.86 74.3502 107.786 74.4569 107.754L76.5604 106.661L79.2188 105.27L81.3223 104.173C81.6799 104.016 82.0984 104.016 82.4567 104.173L84.0047 104.98C84.3563 105.141 84.7724 105.141 85.124 104.98L87.2275 103.888L89.3323 102.794C89.6935 102.634 90.1175 102.634 90.4781 102.794L92.0165 103.589C92.3343 103.76 92.3343 104.026 92.0165 104.173L90.4914 104.972L89.9245 105.27L87.2649 106.661L85.1626 107.755C84.9799 107.808 84.8792 107.984 84.9383 108.148C84.9727 108.244 85.0565 108.319 85.1626 108.349L86.6999 109.147C87.0177 109.318 87.0177 109.583 86.7107 109.742L85.1717 110.546C84.8502 110.707 84.8502 110.969 85.1717 111.128L87.286 112.223L89.3968 113.318C89.755 113.476 90.1741 113.476 90.5324 113.318L92.0672 112.511C92.2493 112.449 92.341 112.266 92.2716 112.103C92.2342 112.015 92.1558 111.947 92.0563 111.916L89.9456 110.821L87.8312 109.729C87.5122 109.558 87.5122 109.292 87.8312 109.134L89.9311 108.04L92.0346 106.947C92.388 106.787 92.8053 106.787 93.1587 106.947L94.7038 107.758C94.8829 107.815 94.9776 107.992 94.9143 108.152C94.8799 108.241 94.8021 108.311 94.7038 108.341L93.169 109.149C92.9863 109.208 92.8916 109.387 92.9573 109.55C92.9941 109.642 93.0761 109.713 93.1798 109.744L95.2954 110.832L97.4062 111.927C97.5889 111.981 97.6896 112.157 97.6305 112.32C97.5961 112.416 97.5123 112.491 97.4062 112.523L95.8876 113.319C95.7049 113.372 95.6042 113.548 95.6633 113.712C95.6977 113.808 95.7815 113.883 95.8876 113.914L97.4224 114.712C97.7391 114.882 97.7391 115.145 97.4327 115.307L95.3334 116.396L93.2281 117.491C93.0454 117.552 92.9513 117.734 93.0182 117.898C93.0544 117.986 93.131 118.054 93.2281 118.087L94.7756 118.894C94.9589 118.949 95.0578 119.127 94.9963 119.291C94.9613 119.385 94.8799 119.458 94.7756 119.489L92.6745 120.585L90.5716 121.679C90.2182 121.839 89.8014 121.839 89.4487 121.679L89.4438 121.676ZM161.624 120.308L154.716 116.719C154.398 116.549 154.398 116.283 154.716 116.125L156.809 115.022L159.478 113.63L161.582 112.534C161.939 112.377 162.358 112.377 162.716 112.534L169.626 116.125C169.816 116.19 169.911 116.379 169.839 116.549C169.804 116.63 169.736 116.695 169.649 116.731L167.541 117.82L164.874 119.212L162.77 120.308C162.591 120.389 162.393 120.429 162.193 120.425C161.996 120.429 161.802 120.389 161.628 120.308H161.624ZM97.4707 120.295L95.9335 119.499C95.7501 119.443 95.653 119.263 95.7164 119.099C95.7513 119.008 95.8315 118.936 95.9335 118.904L97.4574 118.109C97.8181 117.95 98.242 117.95 98.6027 118.109L100.136 118.904C100.443 119.075 100.454 119.341 100.136 119.499L98.6129 120.295C98.2517 120.454 97.8277 120.454 97.4671 120.295H97.4707ZM65.3868 120.295L58.4732 116.704C58.1535 116.533 58.1535 116.271 58.4732 116.109L60.5743 115.016L63.2465 113.624L65.3494 112.527C65.7076 112.37 66.1261 112.37 66.4837 112.527L73.3913 116.118C73.714 116.289 73.714 116.555 73.4058 116.713L71.3023 117.806L68.6307 119.198L66.5272 120.295C66.3493 120.377 66.1508 120.418 65.95 120.415C65.7534 120.419 65.5592 120.377 65.3855 120.295H65.3868ZM110.83 118.916L109.295 118.117C108.977 117.948 108.977 117.681 109.285 117.523L110.819 116.715C111.176 116.555 111.596 116.555 111.953 116.715L113.487 117.51C113.806 117.68 113.806 117.946 113.502 118.105L111.963 118.913C111.79 118.994 111.596 119.035 111.401 119.032C111.203 119.036 111.006 118.996 110.829 118.917L110.83 118.916ZM137.539 116.12L135.991 115.314C135.675 115.145 135.675 114.881 135.991 114.719L138.096 113.626L140.199 112.53C140.552 112.372 140.966 112.372 141.319 112.53L142.867 113.337C143.048 113.395 143.143 113.572 143.08 113.735C143.045 113.82 142.972 113.889 142.878 113.921L141.343 114.729L140.777 115.027L138.675 116.12C138.499 116.203 138.302 116.244 138.103 116.24C137.907 116.244 137.712 116.203 137.538 116.121L137.539 116.12ZM126.828 113.337L125.29 112.543L124.714 112.245L122.595 111.151C122.411 111.095 122.314 110.915 122.377 110.751C122.413 110.66 122.493 110.588 122.595 110.556L124.698 109.463L127.37 108.072L129.471 106.979C129.827 106.818 130.248 106.818 130.604 106.979L132.142 107.773C132.444 107.935 132.461 108.2 132.163 108.36L130.629 109.168L130.061 109.463L127.96 110.556C127.776 110.613 127.679 110.793 127.742 110.956C127.778 111.048 127.858 111.12 127.96 111.151L129.494 111.947C129.678 112.005 129.773 112.185 129.708 112.35C129.672 112.439 129.594 112.51 129.494 112.541L127.97 113.336C127.61 113.497 127.186 113.497 126.825 113.336L126.828 113.337ZM134.813 111.946L133.274 111.15C132.955 110.989 132.955 110.724 133.274 110.568L134.811 109.76C134.994 109.701 135.087 109.52 135.021 109.357C134.985 109.266 134.903 109.195 134.8 109.165L133.262 108.366C133.079 108.306 132.985 108.125 133.052 107.96C133.088 107.873 133.165 107.803 133.262 107.772L134.786 106.977C135.147 106.816 135.571 106.816 135.931 106.977L137.47 107.772L138.046 108.07L140.149 109.166C140.507 109.324 140.926 109.324 141.283 109.166L143.387 108.07L145.491 106.977C145.851 106.816 146.275 106.816 146.636 106.977L148.755 108.07L150.869 109.166C151.174 109.324 151.174 109.59 150.833 109.761L148.722 110.853L146.619 111.946C146.266 112.106 145.849 112.106 145.496 111.946L143.95 111.141C143.594 110.976 143.172 110.976 142.817 111.141L141.293 111.937C140.931 112.096 140.508 112.096 140.147 111.937L138.612 111.141C138.255 110.981 137.835 110.981 137.478 111.141L135.944 111.946C135.773 112.031 135.581 112.073 135.386 112.071C135.185 112.073 134.986 112.03 134.809 111.946H134.813ZM97.3983 109.167L95.8611 108.369C95.6778 108.308 95.5837 108.127 95.6506 107.962C95.6868 107.875 95.7634 107.806 95.8611 107.774L97.3845 106.98C97.7457 106.819 98.1697 106.819 98.5303 106.98L100.069 107.774C100.385 107.936 100.385 108.201 100.069 108.369L98.5442 109.167C98.1829 109.325 97.7608 109.326 97.3989 109.169L97.3983 109.167ZM134.812 106.394L133.278 105.595C132.955 105.426 132.955 105.159 133.266 105L134.801 104.192C135.158 104.032 135.578 104.032 135.935 104.192L137.47 104.988C137.654 105.047 137.75 105.23 137.683 105.395C137.649 105.48 137.575 105.549 137.48 105.583L135.945 106.394C135.772 106.475 135.578 106.515 135.382 106.512C135.185 106.515 134.989 106.475 134.812 106.395L134.812 106.394ZM124.108 106.381L122.573 105.586C122.251 105.416 122.241 105.15 122.56 104.991L124.662 103.897L127.333 102.506L129.435 101.413C129.792 101.253 130.213 101.253 130.57 101.413L132.104 102.211C132.414 102.369 132.426 102.635 132.118 102.794L130.583 103.599L130.014 103.897L127.347 105.288L125.243 106.382C125.073 106.466 124.881 106.51 124.686 106.506C124.485 106.508 124.286 106.465 124.108 106.381H124.108ZM156.192 106.381L154.642 105.577C154.461 105.521 154.364 105.346 154.426 105.184C154.46 105.093 154.54 105.021 154.642 104.991L156.18 104.185C156.532 104.024 156.947 104.024 157.299 104.185L158.849 104.991C159.03 105.045 159.126 105.221 159.065 105.383C159.03 105.474 158.95 105.546 158.849 105.577L157.311 106.381C157.139 106.463 156.947 106.505 156.752 106.502C156.558 106.505 156.366 106.463 156.194 106.382L156.192 106.381ZM140.15 106.381L138.615 105.586C138.432 105.53 138.334 105.352 138.396 105.187C138.431 105.095 138.512 105.022 138.615 104.991L140.139 104.195C140.5 104.035 140.924 104.035 141.284 104.195L142.819 104.991C143.002 105.048 143.098 105.228 143.034 105.392C142.998 105.483 142.919 105.553 142.819 105.585L141.295 106.381C140.933 106.541 140.51 106.541 140.149 106.381L140.15 106.381ZM70.6678 106.373L69.1192 105.565C68.9358 105.511 68.8363 105.334 68.8966 105.17C68.931 105.075 69.0136 105.001 69.1192 104.97L71.2239 103.876L73.881 102.485L76.5502 101.095L78.6519 99.999C79.0059 99.8417 79.4208 99.8417 79.7748 99.999L81.3211 100.807C81.6769 100.972 82.0996 100.972 82.4555 100.807L83.9806 100.014C84.3413 99.8546 84.7652 99.8546 85.1264 100.014L86.6601 100.809C86.844 100.873 86.9375 101.057 86.8675 101.222C86.8325 101.305 86.7614 101.371 86.6709 101.405L85.1482 102.199L84.5825 102.498L82.479 103.59C82.122 103.751 81.7016 103.751 81.3446 103.59L79.8074 102.795C79.4467 102.635 79.0228 102.635 78.6621 102.795L76.5586 103.889L73.9051 105.28L71.8016 106.373C71.444 106.534 71.0237 106.534 70.666 106.373L70.6678 106.373ZM102.719 106.363L101.181 105.565L100.604 105.27L98.4887 104.173C98.1353 104.016 97.7204 104.016 97.367 104.173L95.8321 104.98C95.4739 105.141 95.0524 105.141 94.6942 104.98L93.1605 104.185C92.8415 104.016 92.8415 103.753 93.1485 103.59L95.252 102.498L97.3531 101.404C97.5358 101.349 97.6347 101.171 97.5738 101.008C97.5388 100.914 97.4574 100.841 97.3531 100.809L95.8177 100.014C95.4564 99.8536 95.0331 99.8536 94.6718 100.014L93.1479 100.809C92.7915 100.969 92.3711 100.969 92.0147 100.809L90.4648 100.001C90.2821 99.9476 90.182 99.7708 90.2423 99.6065C90.2767 99.5119 90.3593 99.4378 90.4648 99.407L92.5701 98.3139L94.6718 97.2207C94.8546 97.1607 94.9481 96.9801 94.8823 96.8179C94.8449 96.7266 94.7635 96.6563 94.661 96.6255L92.5502 95.5302L90.4323 94.4365C90.2489 94.3749 90.1567 94.1916 90.226 94.0272C90.2616 93.9413 90.337 93.8742 90.4323 93.8423L91.9598 93.0471C92.3163 92.8865 92.736 92.8865 93.0918 93.0471L94.6399 93.8505L95.2056 94.1478L97.888 95.5394L100.573 96.9326L103.251 98.3241L105.365 99.4173C105.688 99.587 105.688 99.853 105.355 100.001L103.252 101.095L101.163 102.188C100.856 102.358 100.845 102.624 101.163 102.783L103.276 103.879L105.391 104.973C105.574 105.028 105.672 105.207 105.61 105.371C105.575 105.464 105.494 105.536 105.391 105.567L103.864 106.362C103.503 106.523 103.079 106.523 102.718 106.362L102.719 106.363ZM148.197 105.022L146.094 103.929L143.416 102.538L141.301 101.445C140.944 101.284 140.523 101.284 140.166 101.445L138.063 102.538L135.958 103.634C135.601 103.791 135.182 103.791 134.825 103.634L133.278 102.823C133.095 102.766 132.998 102.588 133.061 102.423C133.096 102.332 133.176 102.26 133.278 102.229L134.804 101.433C134.987 101.376 135.084 101.196 135.021 101.033C134.986 100.941 134.906 100.87 134.804 100.838L133.265 100.043C132.905 99.8822 132.481 99.8822 132.12 100.043L130.596 100.838C130.239 100.999 129.819 100.999 129.462 100.838L127.351 99.7416L125.237 98.6474C125.053 98.5917 124.956 98.4133 125.018 98.249C125.053 98.1565 125.134 98.0841 125.237 98.0533L126.761 97.2575C127.121 97.0964 127.546 97.0964 127.906 97.2575L129.441 98.0533C129.798 98.2128 130.219 98.2128 130.576 98.0533L132.113 97.2456C132.432 97.0747 132.42 96.8125 132.1 96.6504L130.565 95.8529C130.383 95.7967 130.284 95.6183 130.347 95.4534C130.382 95.3615 130.463 95.2891 130.565 95.2577L132.089 94.4619C132.451 94.3013 132.875 94.3013 133.235 94.4619L134.774 95.2577C135.13 95.4183 135.55 95.4183 135.907 95.2577L137.442 94.45C137.793 94.2894 138.21 94.2894 138.562 94.45L140.11 95.2577C140.418 95.4199 140.432 95.6843 140.11 95.841L138.577 96.6487L138.008 96.9472L135.907 98.0403C135.723 98.0917 135.621 98.2663 135.678 98.4306C135.712 98.5285 135.798 98.6053 135.907 98.6355L137.442 99.4346C137.802 99.5935 138.226 99.5935 138.587 99.4346L140.111 98.6355C140.469 98.4782 140.888 98.4782 141.246 98.6355L143.36 99.7319L146.042 101.124L148.156 102.217C148.514 102.374 148.932 102.374 149.289 102.217L150.83 101.409C151.182 101.249 151.597 101.249 151.949 101.409L153.483 102.207C153.682 102.271 153.787 102.466 153.717 102.644C153.688 102.719 153.63 102.782 153.556 102.823L152.016 103.634L151.448 103.929L149.347 105.022C149.171 105.105 148.975 105.146 148.776 105.143C148.575 105.146 148.377 105.104 148.2 105.02L148.197 105.022ZM118.734 103.589L117.2 102.794C116.881 102.624 116.871 102.358 117.19 102.199L119.292 101.106L121.393 100.013C121.754 99.853 122.178 99.853 122.539 100.013L124.072 100.808C124.391 100.978 124.391 101.244 124.062 101.403L122.539 102.198L121.97 102.497L119.866 103.589C119.696 103.674 119.503 103.717 119.308 103.713C119.109 103.715 118.912 103.673 118.734 103.589ZM113.389 100.816L95.7495 91.6636C95.5662 91.6079 95.4685 91.4295 95.5306 91.2646C95.5656 91.1727 95.6464 91.1003 95.7495 91.0689L97.8404 89.9661L100.511 88.5745L103.168 87.1829L105.836 85.7919L108.495 84.3998L111.167 83.0088L113.266 81.9145C113.627 81.7551 114.05 81.7551 114.412 81.9145L132.036 91.0673C132.225 91.1252 132.326 91.3101 132.261 91.4798C132.227 91.5669 132.153 91.6377 132.058 91.6734L129.954 92.7665L127.285 94.1581L124.627 95.5496L121.959 96.9412L119.301 98.3317L116.631 99.7238L114.529 100.817C114.167 100.978 113.743 100.978 113.383 100.817L113.389 100.816ZM113.539 84.5793L111.188 85.8011L108.529 87.191L105.861 88.5826L103.201 89.9742L100.849 91.196C100.745 91.2333 100.695 91.3376 100.735 91.4312C100.757 91.4804 100.803 91.5182 100.859 91.536L113.606 98.1517C113.811 98.2441 114.052 98.2441 114.256 98.1517L116.608 96.9309L119.267 95.5388L121.934 94.1473L124.594 92.7562L126.946 91.535C127.051 91.4998 127.104 91.3944 127.065 91.3014C127.044 91.2522 127.001 91.2133 126.946 91.1949L114.188 84.5787C114.083 84.5333 113.968 84.5101 113.852 84.5112C113.742 84.5079 113.634 84.5312 113.538 84.5787L113.539 84.5793ZM86.6528 98.0241L85.1053 97.2202C84.922 97.1629 84.8249 96.9834 84.8882 96.8201C84.9238 96.7282 85.0034 96.6568 85.1053 96.6249L86.6293 95.8297C86.9857 95.6691 87.4061 95.6691 87.7625 95.8297L89.3111 96.6347C89.4939 96.6941 89.5892 96.8753 89.5228 97.0396C89.4872 97.1283 89.4095 97.1975 89.3111 97.2294L87.7872 98.0246C87.4308 98.1852 87.0104 98.1852 86.654 98.0246L86.6528 98.0241ZM113.351 95.2566L106.438 91.6636C106.121 91.4944 106.121 91.2284 106.438 91.0689L108.528 89.9661L111.2 88.5745L113.303 87.4814C113.66 87.3208 114.08 87.3208 114.437 87.4814L121.349 91.0689C121.537 91.1273 121.638 91.3117 121.573 91.4814C121.54 91.569 121.466 91.6398 121.37 91.675L119.267 92.7676L116.599 94.1624L114.494 95.2555C114.316 95.3361 114.118 95.3772 113.918 95.3734C113.72 95.3788 113.525 95.3393 113.349 95.2582L113.351 95.2566Z" fill="#DFDFDF"/>
<g opacity="0.99624">
<path d="M168.099 121.334C167.785 121.334 167.472 121.33 167.158 121.322C167.116 121.323 167.074 121.321 167.032 121.318C166.702 121.306 166.368 121.293 166.043 121.273C166.021 121.271 165.999 121.27 165.977 121.269H165.93L165.845 121.263H165.825C164.769 121.194 163.717 121.073 162.674 120.903C162.667 120.903 162.658 120.901 162.65 120.899C160.127 120.514 157.695 119.749 155.455 118.637C155.452 118.637 155.45 118.635 155.45 118.632L155.37 118.594L95.5153 87.3822L52.4718 64.9365C52.4573 64.9306 52.444 64.9235 52.4308 64.9149C52.2432 64.8165 52.0581 64.717 51.8832 64.6165C51.2041 64.2305 50.5643 63.7909 49.9702 63.3044C49.6404 63.0324 49.3292 62.7421 49.0391 62.4356C49.0349 62.4313 49.0294 62.4242 49.0252 62.4204C48.872 62.2545 48.7237 62.0869 48.5922 61.9171L48.588 61.9123C48.5826 61.9069 48.5777 61.9009 48.5735 61.895L48.5591 61.8728C48.5542 61.8663 48.5591 61.8728 48.5542 61.869C48.3986 61.6684 48.2575 61.4673 48.1321 61.263C47.9861 61.0327 47.8553 60.7948 47.7407 60.551C47.6472 60.3455 47.5646 60.1358 47.4952 59.9233V59.9049C47.494 59.8995 47.4916 59.8941 47.4874 59.8903C47.488 59.8871 47.488 59.8844 47.4874 59.8811C47.488 59.8746 47.4868 59.8676 47.4832 59.8611C47.482 59.8584 47.482 59.8557 47.4832 59.853C47.482 59.846 47.4796 59.8395 47.4753 59.8336C47.4747 59.8298 47.4747 59.8254 47.4753 59.8217C47.4723 59.8163 47.4705 59.8103 47.4711 59.8044C47.4687 59.8 47.4669 59.7962 47.4663 59.7914C47.4669 59.7871 47.4651 59.7817 47.4615 59.7784C47.459 59.7714 47.4578 59.7638 47.4572 59.7562V59.7519C47.4084 59.5859 47.3698 59.4216 47.3366 59.2556C47.2908 59.0069 47.2643 58.7561 47.257 58.5042V58.362L47.2371 52.7903V52.8357C47.169 50.3823 48.9426 47.9155 52.5556 46.0444L94.2229 24.4588C100.292 21.3146 109.57 20.8729 116.513 23.1343C117.62 23.4906 118.69 23.9344 119.709 24.461L222.609 78.118C226.156 79.9675 227.902 82.396 227.849 84.8212V84.6996L227.865 90.3475V90.3751C227.86 92.7765 226.085 95.1796 222.547 97.0123L180.879 118.601C180.823 118.628 180.77 118.655 180.714 118.686C180.658 118.714 180.604 118.74 180.549 118.768C179.537 119.261 178.48 119.677 177.392 120.012C177.387 120.014 177.383 120.016 177.377 120.016C177.351 120.025 177.324 120.034 177.297 120.041C177.292 120.041 177.288 120.042 177.284 120.045C177.256 120.053 177.223 120.062 177.196 120.072C177.193 120.071 177.188 120.071 177.185 120.072C177.158 120.082 177.132 120.088 177.105 120.096C177.101 120.099 177.096 120.101 177.091 120.101C177.03 120.121 176.967 120.138 176.903 120.155C174.616 120.802 172.247 121.184 169.853 121.295H169.848C169.816 121.295 169.782 121.299 169.75 121.299H169.617C169.591 121.298 169.565 121.299 169.539 121.303H169.431C169.419 121.304 169.407 121.304 169.395 121.303H169.059C169.039 121.302 169.019 121.302 168.999 121.303H168.657C168.479 121.303 168.302 121.307 168.122 121.307L168.099 121.334ZM167.679 113.799C168.059 113.799 168.437 113.791 168.815 113.774H168.842L168.956 113.769C169.088 113.762 169.219 113.755 169.351 113.746H169.36L169.436 113.741H169.464H169.507H169.521L169.564 113.738L169.65 113.732H169.722L169.801 113.726C169.906 113.717 170.01 113.708 170.117 113.697H170.13H170.16H170.192L170.471 113.668C170.564 113.658 170.651 113.648 170.734 113.638C170.827 113.626 170.921 113.614 171.013 113.602H171.018L171.079 113.594L171.093 113.591H171.11L171.151 113.586L171.175 113.582H171.179L171.211 113.579C171.23 113.577 171.248 113.574 171.266 113.57H171.271C171.743 113.502 172.211 113.422 172.669 113.329L172.81 113.299L172.883 113.284H172.895L172.929 113.276H172.933L172.981 113.267L172.998 113.262L173.028 113.255L173.065 113.247H173.07C173.583 113.132 174.086 113 174.577 112.851L174.62 112.838L174.647 112.829C174.711 112.809 174.776 112.789 174.84 112.768L174.859 112.761L174.889 112.753L174.915 112.744L174.928 112.739L175.049 112.699L175.088 112.685H175.098L175.171 112.66L175.189 112.653C175.198 112.65 175.207 112.648 175.214 112.645C175.445 112.566 175.671 112.481 175.892 112.395C175.988 112.359 176.082 112.321 176.176 112.281H176.183L176.234 112.258L176.271 112.243C176.28 112.24 176.288 112.236 176.295 112.233H176.303L176.343 112.216L176.356 112.21C176.363 112.208 176.37 112.205 176.376 112.201L176.388 112.196L176.54 112.13L176.673 112.07L176.682 112.067L176.726 112.047L176.735 112.041L176.776 112.023L176.795 112.014L176.839 111.993L176.859 111.983L176.879 111.972L176.907 111.959L176.92 111.952L176.926 111.949L176.944 111.942L176.973 111.927L176.985 111.921L177.04 111.893L177.046 111.89L177.055 111.886L177.171 111.828L177.246 111.79L177.296 111.764L220.151 89.5566L220.272 89.4933L220.28 89.489C221.354 88.9435 222.296 88.2137 223.055 87.34C223.025 87.3065 222.994 87.2719 222.966 87.2389C222.936 87.2005 222.904 87.1638 222.868 87.1302C222.864 87.1248 222.858 87.12 222.854 87.1151C222.849 87.1113 222.846 87.1065 222.841 87.1021C222.55 86.7913 222.23 86.502 221.886 86.2371C221.87 86.2258 221.854 86.2139 221.84 86.2031H221.835C221.82 86.1906 221.805 86.1793 221.789 86.1679C221.773 86.156 221.758 86.1436 221.742 86.1328L221.695 86.1004C221.695 86.1004 221.695 86.0955 221.691 86.0955C221.676 86.0847 221.662 86.0744 221.644 86.0631L221.64 86.0582L221.593 86.0257L221.589 86.0214C221.573 86.0095 221.557 85.9987 221.54 85.9884C221.526 85.9771 221.507 85.9647 221.491 85.9538C221.245 85.7857 220.986 85.6208 220.707 85.4619C220.687 85.45 220.668 85.4397 220.651 85.4284C220.648 85.4278 220.644 85.4267 220.641 85.4246C220.625 85.4159 220.608 85.4057 220.593 85.3965C220.586 85.3938 220.579 85.3905 220.573 85.3862C220.56 85.3797 220.547 85.3721 220.535 85.364C220.525 85.3597 220.515 85.3538 220.506 85.3489C220.496 85.3429 220.487 85.3375 220.477 85.3327C220.465 85.3246 220.452 85.3181 220.439 85.3116C220.431 85.3094 220.424 85.3056 220.418 85.3008L220.406 85.2943C220.373 85.2748 220.339 85.257 220.304 85.2397C220.301 85.2397 220.298 85.2386 220.297 85.2359L220.237 85.2067L116.991 31.3659C116.304 31.0107 115.587 30.7063 114.846 30.4538C114.71 30.4073 114.574 30.3619 114.435 30.3187L114.416 30.3116L114.399 30.3057L114.377 30.3003L114.358 30.2933C114.341 30.2884 114.322 30.2841 114.306 30.2787H114.299C114.282 30.2749 114.266 30.2679 114.25 30.263C114.169 30.2376 114.087 30.2127 114.002 30.1884L113.797 30.1305L113.693 30.1024L113.633 30.0851H113.621C113.543 30.064 113.465 30.0424 113.386 30.023L113.326 30.0073C113.174 29.9694 113.024 29.9343 112.869 29.8997C112.844 29.8932 112.819 29.8883 112.793 29.8824H112.782L112.756 29.8754L112.718 29.8667H112.713L112.659 29.8543C112.559 29.8321 112.459 29.8099 112.357 29.7899H112.338L112.32 29.7856L112.287 29.7791L112.256 29.7732C112.25 29.7726 112.244 29.771 112.238 29.7694L112.218 29.7651H112.209L112.175 29.7591H112.162C112.154 29.758 112.146 29.7564 112.139 29.7543H112.13L112.094 29.7472H112.088L112.067 29.7435L112.047 29.7402L112.016 29.7337H112.011C111.997 29.7337 111.982 29.7278 111.965 29.7261C111.958 29.724 111.951 29.7224 111.943 29.7218L111.915 29.7153H111.906L111.88 29.7126L111.87 29.7088H111.866L111.793 29.6959C111.669 29.6742 111.547 29.6515 111.424 29.6321C111.253 29.6045 111.082 29.5791 110.909 29.5553C110.506 29.5012 110.097 29.4537 109.688 29.4175C109.481 29.3975 109.274 29.3823 109.066 29.3683L109.006 29.3656H108.931L108.761 29.3547L108.654 29.3499L108.594 29.3472H108.56L108.507 29.3439H108.46C108.431 29.345 108.402 29.3434 108.373 29.3396H108.369L108.181 29.3326H108.147C107.331 29.3093 106.513 29.3239 105.698 29.3753H105.691C105.673 29.3747 105.655 29.3758 105.638 29.3791L105.443 29.392C105.329 29.4002 105.214 29.4093 105.1 29.4202C105.08 29.4196 105.06 29.4207 105.04 29.4239H105.023C103.779 29.5326 102.548 29.7413 101.345 30.0457C101.08 30.1132 100.817 30.1873 100.561 30.2614H100.553C100.538 30.2679 100.521 30.2727 100.504 30.277C100.486 30.2808 100.468 30.2873 100.451 30.2949C100.445 30.2954 100.439 30.2965 100.434 30.2987C100.415 30.3052 100.394 30.3116 100.374 30.3165C100.143 30.389 99.9165 30.463 99.6952 30.5403C99.6198 30.5695 99.5444 30.5955 99.469 30.6236C99.4594 30.6268 99.4497 30.6306 99.4401 30.6355L99.428 30.6387C98.9076 30.8323 98.3992 31.0523 97.9065 31.2977C97.9035 31.2994 97.8998 31.3015 97.8968 31.3042C97.8799 31.3113 97.8637 31.3188 97.848 31.328C97.8407 31.328 97.8383 31.3329 97.8311 31.3351C97.8172 31.3415 97.8033 31.348 97.7907 31.3561C97.7684 31.3675 97.7497 31.3778 97.7298 31.3864L90.0648 35.3584L90.0738 38.2399V38.3167C90.0738 39.2557 89.3857 40.1943 88.0004 40.9117L73.2343 48.5631C72.9086 48.7286 72.5709 48.8729 72.2229 48.9956C71.9678 49.0848 71.7055 49.1676 71.4353 49.2373H71.4275L71.3768 49.2503C71.1356 49.3114 70.8877 49.366 70.6374 49.4125C70.6091 49.4168 70.5771 49.4222 70.55 49.4276C70.3775 49.459 70.2057 49.4844 70.0302 49.5082C70.0012 49.5125 69.9747 49.5146 69.9469 49.5195C69.8185 49.5352 69.6924 49.5503 69.5622 49.5628C69.1334 49.6049 68.7016 49.6249 68.2692 49.6244C68.0141 49.6244 67.759 49.6174 67.5033 49.6028H67.4502L67.4044 49.599H67.364C67.3525 49.6001 67.3411 49.6001 67.329 49.599H67.2627C67.2476 49.6001 67.2313 49.5984 67.2162 49.5947H67.1993L67.1686 49.592L67.1421 49.5882H67.1282C67.0968 49.5882 67.0679 49.5838 67.0347 49.5811H67.0088C66.9973 49.5817 66.9853 49.5801 66.9744 49.5768H66.9599C66.8761 49.5682 66.7929 49.559 66.7097 49.5487C66.6264 49.539 66.5438 49.5292 66.4612 49.5184L66.4479 49.5146C66.4407 49.5146 66.4334 49.5136 66.4268 49.5114C65.5867 49.3984 64.7666 49.1859 63.9886 48.88L54.8822 53.5969C53.7563 54.1521 52.7685 54.9063 51.9779 55.8135C52.055 55.907 52.1371 55.9984 52.2233 56.0903L52.2402 56.1081L52.2776 56.147L52.3059 56.1773L52.3108 56.1827C52.6274 56.5038 52.9735 56.8012 53.3444 57.071L53.3661 57.0861L53.412 57.1191C53.5724 57.2337 53.7406 57.3472 53.9167 57.4586L53.9541 57.4824L53.9825 57.5008L54.094 57.5689H54.097L54.1194 57.5813L54.1242 57.5846L54.1429 57.5964L54.1519 57.6013L54.1857 57.6208C54.1923 57.624 54.1978 57.6278 54.2032 57.6321L54.2195 57.6419C54.2261 57.6451 54.2327 57.6489 54.2388 57.6532C54.2478 57.6575 54.2569 57.6629 54.2647 57.6684L54.2713 57.6721L54.2768 57.6748L54.2967 57.6851C54.3003 57.6884 54.3039 57.6911 54.3081 57.6932L54.3552 57.7197L54.3787 57.7338L54.4155 57.7527L54.4251 57.7597L54.4818 57.7922L54.4908 57.7959L54.5065 57.8051L54.5349 57.8203L54.5445 57.8257L54.5566 57.8316L54.5783 57.8446L54.6103 57.8619H54.6151L54.7285 57.9219L54.7972 57.9576L97.9867 80.4789L158.048 111.798C158.065 111.805 158.08 111.813 158.095 111.822L158.108 111.828C158.112 111.829 158.114 111.83 158.116 111.832C158.446 112.002 158.788 112.161 159.142 112.309L159.188 112.328L159.238 112.349C159.432 112.429 159.629 112.506 159.83 112.58L159.847 112.586C159.862 112.59 159.879 112.596 159.894 112.603H159.901C159.921 112.609 159.941 112.617 159.962 112.625L159.985 112.634L160.011 112.643H160.016C160.346 112.761 160.687 112.869 161.033 112.967L161.138 112.998C161.226 113.023 161.314 113.048 161.403 113.073H161.414L161.438 113.08H161.453L161.498 113.091L161.519 113.098H161.527L161.562 113.107L161.582 113.109H161.589C162.635 113.38 163.704 113.575 164.785 113.694L164.826 113.699L164.964 113.714L165.019 113.72H165.028L165.055 113.724H165.116L165.265 113.738C165.462 113.757 165.658 113.773 165.856 113.786H165.876L165.971 113.793L166.074 113.799L166.127 113.803L166.274 113.811H166.298L166.479 113.82C166.605 113.825 166.731 113.83 166.857 113.834L167.044 113.839H167.194C167.353 113.805 167.517 113.792 167.679 113.799Z" fill="#454956"/>
<path d="M222.608 78.04L119.699 24.4478C112.68 20.7938 101.27 20.7938 94.2099 24.4478L52.5377 46.0085C45.4782 49.6588 45.433 55.5846 52.4521 59.2414L155.363 112.831C158.872 114.66 163.48 115.57 168.093 115.57C172.706 115.57 177.326 114.657 180.858 112.829L222.53 91.2707C229.59 87.6155 229.627 81.6941 222.608 78.04ZM220.198 89.4423L177.342 111.615C172.004 114.375 163.376 114.375 158.069 111.615L54.8089 57.8374C49.5025 55.0797 49.5296 50.599 54.8692 47.8358L63.9707 43.1237C66.7177 44.2304 70.6883 44.1282 73.2218 42.8194L87.9928 35.1771C90.5288 33.8639 90.7404 31.8041 88.617 30.3725L97.7234 25.6621C103.064 22.9006 111.693 22.9006 116.996 25.6621L220.259 79.437C225.565 82.2006 225.538 86.6786 220.198 89.4423Z" fill="#525867"/>
<path d="M54.868 47.8676C49.5296 50.6329 49.5007 55.1174 54.8077 57.8827L158.059 111.722C163.367 114.488 171.991 114.488 177.329 111.722L220.182 89.5222C225.52 86.7564 225.549 82.2725 220.242 79.5066L116.99 25.6674C111.683 22.9016 103.059 22.9016 97.7192 25.6674L88.6128 30.3843C90.735 31.8154 90.5245 33.8795 87.9892 35.1927L73.2212 42.8463C70.6883 44.1573 66.7189 44.26 63.9726 43.1523L54.868 47.8676Z" fill="#454956" fill-opacity="0.2"/>
</g>
<g opacity="0.2">
<path opacity="0.2" d="M88.1513 66.0779L125.231 42.3982L148.746 66.0774L126.818 81.9913L88.1513 66.0779Z" fill="url(#paint0_linear_2_455)"/>
</g>
<path d="M126.216 57.9229C127.371 57.7627 128.544 58.0078 129.194 58.4869V53.5706L124.821 55.8482V58.3829C125.173 58.1669 125.649 58.0016 126.216 57.9229Z" fill="#FFC95F"/>
<path d="M126.216 57.8775C125.649 57.9562 125.173 58.1221 124.821 58.338V58.8946C124.821 60.8097 129.195 60.6348 129.194 58.8946V58.4415C128.544 57.9624 127.371 57.7173 126.216 57.8775Z" fill="#D78F24"/>
<path d="M124.821 53.4645V44.6973C124.821 39.8839 128.955 33.9741 134.229 31.2455C137.339 29.6363 140.428 29.39 142.706 30.5674C144.718 31.6087 145.826 33.5709 145.826 36.0926V61.8324C145.826 63.4927 141.451 63.5512 141.451 61.8324V36.0926C141.451 35.4781 141.33 34.3828 140.518 33.9634C139.658 33.5169 138.086 33.7767 136.417 34.6409C132.501 36.665 129.194 41.2715 129.194 44.6973V53.4645C129.196 55.2046 124.821 55.3795 124.821 53.4645Z" fill="url(#paint1_linear_2_455)"/>
<path d="M124.067 62.3463L121.655 61.0981C120.677 60.592 120.188 59.928 120.19 59.2651L120.136 78.2579C120.136 78.9208 120.623 79.5849 121.601 80.0914L124.013 81.3391C126.216 82.3444 128.822 82.3444 131.026 81.3391L131.08 62.3463C128.876 63.3516 126.27 63.3516 124.067 62.3463Z" fill="#D78F24"/>
<path d="M148.398 53.3265L131.08 62.3455C130.03 62.8493 128.856 63.1068 127.666 63.095V82.085C128.837 82.0906 129.992 81.8337 131.026 81.3383L148.344 72.3193C149.15 71.9937 149.698 71.305 149.781 70.515L149.835 51.5222C149.753 52.3116 149.204 53.0009 148.398 53.3265Z" fill="#ECA845"/>
<path d="M141.425 63.4926C141.425 62.421 140.455 62.0538 139.259 62.6729C138.037 63.3273 137.233 64.4636 137.094 65.7337C137.008 66.269 137.422 66.766 138.019 66.8436C138.021 66.8436 138.023 66.8436 138.025 66.8436V72.2058C138.025 72.8164 138.578 73.0256 139.259 72.6736C139.956 72.3008 140.413 71.6542 140.494 70.9312V65.5684C141.042 64.9831 141.369 64.2556 141.425 63.4926Z" fill="#715B36"/>
<path d="M136.923 32.0974C137.144 32.4145 137.978 32.071 138.267 32.0198C139.951 31.5914 141.76 32.0434 142.953 33.1915C143.239 33.4277 143.681 33.8747 144.003 33.5851C144.313 33.304 144.035 32.9481 143.853 32.6703C141.906 29.7174 136.18 31.0325 136.923 32.0974Z" fill="white"/>
<path d="M148.371 49.6893L145.958 48.4411C145.915 48.4214 145.87 48.4085 145.826 48.3894V49.8141C146.026 49.9541 146.184 50.1126 146.276 50.2909C146.672 51.0555 145.795 51.841 144.317 52.0451C142.839 52.2492 141.321 51.7966 140.925 51.0331C140.687 50.5743 140.915 50.1093 141.451 49.7646V47.7495C140.591 47.8502 139.744 48.0767 138.95 48.4383L129.194 53.5193V58.4356C129.375 58.5689 129.522 58.7173 129.609 58.8837C130.005 59.6484 129.128 60.4339 127.65 60.6385C126.172 60.8432 124.654 60.39 124.258 59.6265C124.014 59.1559 124.256 58.678 124.821 58.3316V55.7964L121.633 57.4573C119.702 58.4632 119.712 60.0926 121.655 61.0979L124.068 62.3455C126.271 63.3508 128.877 63.3508 131.081 62.3455L148.398 53.3265C150.323 52.324 150.314 50.6946 148.371 49.6893Z" fill="#FFC95F"/>
<path d="M141.451 50.3887V49.7646C140.915 50.1087 140.686 50.5743 140.925 51.0331C141.32 51.7966 142.839 52.2492 144.316 52.0451C145.794 51.841 146.671 51.0561 146.275 50.2915C146.183 50.1132 146.026 49.9541 145.826 49.8141V50.3887C145.826 52.0496 141.451 52.1075 141.451 50.3887Z" fill="#D78F24"/>
<path d="M124.821 58.8877V58.3311C124.256 58.6774 124.014 59.1564 124.258 59.6265C124.653 60.39 126.172 60.8432 127.649 60.6385C129.127 60.4339 130.005 59.6478 129.609 58.8832C129.523 58.7168 129.375 58.5683 129.194 58.4351V58.8877C129.196 60.6278 124.821 60.8027 124.821 58.8877Z" fill="#D78F24"/>
<path d="M129.242 59.7228C128.872 59.3084 127.455 59.0638 126.077 59.1746C125.205 59.2449 124.559 59.4417 124.295 59.6812C124.734 60.4115 126.207 60.8405 127.648 60.6404C128.376 60.5397 128.955 60.2974 129.311 59.987C129.335 59.9005 129.321 59.8116 129.242 59.7228Z" fill="#B7761F"/>
<defs>
<linearGradient id="paint0_linear_2_455" x1="115.244" y1="49.4499" x2="135.097" y2="75.2758" gradientUnits="userSpaceOnUse">
<stop stop-color="white" stop-opacity="0"/>
<stop offset="0.5" stop-color="#808080" stop-opacity="0.5"/>
<stop offset="1"/>
</linearGradient>
<linearGradient id="paint1_linear_2_455" x1="142.599" y1="36.4626" x2="131.677" y2="57.4884" gradientUnits="userSpaceOnUse">
<stop stop-color="#C0C2C3"/>
<stop offset="0.5" stop-color="#B6B8B9"/>
<stop offset="1" stop-color="#ACAEAF"/>
</linearGradient>
</defs>
</svg>
